<svg width="9" height="6" viewBox="0 0 9 6" fill="none" xmlns="http://www.w3.org/2000/svg">
<path d="M7.42972 6H1.56988C1.34276 6.00056 1.12316 5.92747 0.952065 5.79437C0.780972 5.66127 0.670074 5.47725 0.640064 5.27665L0.00520207 1.10177C-0.010562 0.99927 0.00970673 0.894933 0.0632201 0.803115C0.116734 0.711297 0.200862 0.636507 0.304035 0.589035C0.407207 0.541563 0.524353 0.52374 0.639359 0.538018C0.754365 0.552295 0.861581 0.597973 0.946259 0.668766L1.99406 1.53228C2.04945 1.57997 2.11525 1.61701 2.18738 1.6411C2.25951 1.66518 2.33642 1.67579 2.41335 1.67227C2.49027 1.66875 2.56557 1.65117 2.63455 1.62063C2.70353 1.59009 2.76472 1.54724 2.81433 1.49473L4.0672 0.178193C4.11993 0.122378 4.18573 0.07751 4.25997 0.0467293C4.33421 0.0159487 4.41511 0 4.49699 0C4.57888 0 4.65977 0.0159487 4.73402 0.0467293C4.80826 0.07751 4.87405 0.122378 4.92679 0.178193L6.18528 1.49473C6.23442 1.54642 6.29483 1.58869 6.36285 1.61897C6.43086 1.64925 6.50507 1.66691 6.58097 1.67089C6.65687 1.67487 6.73289 1.66508 6.80442 1.64211C6.87595 1.61914 6.9415 1.58348 6.99711 1.53728L8.04492 0.673772C8.12876 0.60055 8.23625 0.552572 8.35228 0.536578C8.4683 0.520585 8.58704 0.53738 8.6918 0.584604C8.79656 0.631828 8.88209 0.707107 8.93636 0.799867C8.99064 0.892627 9.01093 0.998206 8.9944 1.10177L8.35954 5.27415C8.33015 5.4752 8.21953 5.65982 8.04837 5.79343C7.87722 5.92704 7.65727 6.00048 7.42972 6Z" fill="#ffffff"/>
</svg>
