<svg width="34" height="34" viewBox="0 0 34 34" fill="none" xmlns="http://www.w3.org/2000/svg">
<path d="M12.943 26.6858L16.4847 23.1441C16.9826 22.6462 16.9826 21.8389 16.4847 21.341L12.943 17.7993C12.4451 17.3014 11.6378 17.3014 11.1399 17.7993C10.642 18.2972 10.642 19.1045 11.1399 19.6024L12.5255 20.988H9.91677C7.25659 20.988 5.1001 23.1445 5.1001 25.8047C5.1001 28.4648 7.25659 30.6213 9.91677 30.6213H27.6251C28.3293 30.6213 28.9001 30.0505 28.9001 29.3463C28.9001 28.6422 28.3293 28.0713 27.6251 28.0713H9.91677C8.66492 28.0713 7.6501 27.0565 7.6501 25.8047C7.6501 24.5528 8.66492 23.538 9.91677 23.538H12.4846L11.1399 24.8826C10.642 25.3806 10.642 26.1878 11.1399 26.6858C11.6378 27.1837 12.4451 27.1837 12.943 26.6858Z" fill="#A7C4FC"/>
<path d="M15.7354 4.32228C15.2483 3.87695 14.5019 3.87695 14.0148 4.32228L10.4731 7.56028C9.95342 8.03542 9.9173 8.84189 10.3924 9.36159C10.8676 9.88129 11.6741 9.91742 12.1938 9.44228L13.6001 8.15652V12.214C13.6001 14.5558 15.4985 16.4541 17.8402 16.4541H24.0834C25.3353 16.4541 26.3501 17.4689 26.3501 18.7208C26.3501 19.9726 25.3353 20.9875 24.0834 20.9875H19.8334C19.1293 20.9875 18.5584 21.5583 18.5584 22.2625C18.5584 22.9666 19.1293 23.5375 19.8334 23.5375H24.0834C26.7436 23.5375 28.9001 21.381 28.9001 18.7208C28.9001 16.0606 26.7436 13.9041 24.0834 13.9041H17.8402C16.9068 13.9041 16.1501 13.1474 16.1501 12.214V8.1565L17.5565 9.44228C18.0762 9.91742 18.8826 9.88129 19.3578 9.36159C19.8329 8.84189 19.7968 8.03542 19.2771 7.56028L15.7354 4.32228Z" fill="#6C9CFA"/>
</svg>
