<svg width="34" height="34" viewBox="0 0 34 34" fill="none" xmlns="http://www.w3.org/2000/svg">
<path d="M27.929 5.46429C27.929 4.79365 27.3854 4.25 26.7147 4.25C26.0441 4.25 25.5004 4.79365 25.5004 5.46429V7.16519C25.1007 6.82329 24.6784 6.507 24.2358 6.21865C22.8997 5.34821 21.4052 4.74945 19.8377 4.45657C18.2702 4.16369 16.6604 4.18242 15.1001 4.51168C13.5399 4.84095 12.0597 5.47431 10.7443 6.3756C10.191 6.75464 10.0498 7.51041 10.4289 8.06364C10.8079 8.61688 11.5637 8.75809 12.1169 8.37905C13.1693 7.65802 14.3534 7.15133 15.6016 6.88792C16.8498 6.6245 18.1377 6.60952 19.3917 6.84383C20.6457 7.07813 21.8412 7.55714 22.9101 8.25349C23.3054 8.51104 23.6806 8.79646 24.0329 9.10714H21.8576C21.1869 9.10714 20.6433 9.6508 20.6433 10.3214C20.6433 10.9921 21.1869 11.5357 21.8576 11.5357H26.7147C27.3854 11.5357 27.929 10.9921 27.929 10.3214V5.46429Z" fill="#A7C4FC"/>
<path d="M29.6918 15.2045C29.6262 14.5371 29.0319 14.0492 28.3645 14.1149C27.6971 14.1805 27.2093 14.7748 27.2749 15.4422C27.3998 16.7118 27.2734 17.9935 26.9029 19.2142C26.5324 20.4349 25.9251 21.5707 25.1157 22.5567C24.3063 23.5428 23.3105 24.3597 22.1854 24.9609C21.442 25.3581 20.6517 25.6561 19.8348 25.8485L21.0875 23.6786C21.4229 23.0979 21.2239 22.3552 20.6431 22.0199C20.0623 21.6846 19.3197 21.8836 18.9843 22.4644L16.5558 26.6708C16.2205 27.2516 16.4194 27.9942 17.0002 28.3295L21.2066 30.7581C21.7874 31.0934 22.5301 30.8944 22.8654 30.3136C23.2007 29.7328 23.0017 28.9902 22.4209 28.6549L21.2475 27.9774C21.9656 27.7518 22.6629 27.4593 23.3299 27.1029C24.7364 26.3514 25.981 25.3302 26.9928 24.0977C28.0046 22.8651 28.7637 21.4454 29.2268 19.9195C29.6899 18.3936 29.8479 16.7914 29.6918 15.2045Z" fill="#C4D7FD"/>
<path d="M3.72312 11.3361C3.11897 11.6272 2.86518 12.353 3.15629 12.9571C3.44739 13.5613 4.17314 13.8151 4.7773 13.524L5.962 12.9532C5.78308 13.5589 5.65128 14.179 5.56846 14.8081C5.36032 16.3891 5.46561 17.9956 5.87833 19.5359C6.29105 21.0762 7.00311 22.5201 7.97386 23.7852C8.9446 25.0503 10.155 26.1118 11.536 26.9091C12.1168 27.2444 12.8594 27.0454 13.1948 26.4646C13.5301 25.8838 13.3311 25.1412 12.7503 24.8059C11.6455 24.168 10.6772 23.3188 9.90057 22.3067C9.12398 21.2947 8.55433 20.1395 8.22415 18.9073C7.89398 17.6751 7.80974 16.3899 7.97625 15.1251C8.07552 14.3711 8.26273 13.6332 8.53288 12.9261L9.64033 15.2245C9.93143 15.8287 10.6572 16.0824 11.2613 15.7913C11.8655 15.5002 12.1193 14.7745 11.8282 14.1703L9.71983 9.79463C9.42873 9.19048 8.70298 8.93669 8.09882 9.2278L3.72312 11.3361Z" fill="#6C9CFA"/>
</svg>
