<svg width="34" height="34" viewBox="0 0 34 34" fill="none" xmlns="http://www.w3.org/2000/svg">
<path d="M27.9285 5.46429C27.9285 4.79365 27.3849 4.25 26.7142 4.25C26.0436 4.25 25.5 4.79365 25.5 5.46429V7.16519C25.1002 6.82329 24.6779 6.507 24.2353 6.21865C22.8992 5.34821 21.4047 4.74945 19.8372 4.45657C18.2697 4.16369 16.6599 4.18242 15.0996 4.51168C13.5394 4.84095 12.0593 5.47431 10.7438 6.3756C10.1905 6.75464 10.0493 7.51041 10.4284 8.06364C10.8074 8.61688 11.5632 8.75809 12.1164 8.37905C13.1688 7.65802 14.3529 7.15133 15.6011 6.88792C16.8493 6.6245 18.1372 6.60952 19.3912 6.84383C20.6452 7.07813 21.8407 7.55714 22.9096 8.25349C23.3049 8.51104 23.6801 8.79646 24.0324 9.10714H21.8571C21.1865 9.10714 20.6428 9.6508 20.6428 10.3214C20.6428 10.9921 21.1865 11.5357 21.8571 11.5357H26.7142C27.3849 11.5357 27.9285 10.9921 27.9285 10.3214V5.46429Z" fill="white"/>
<path d="M29.6913 15.2045C29.6257 14.5371 29.0314 14.0492 28.364 14.1149C27.6966 14.1805 27.2088 14.7748 27.2744 15.4422C27.3993 16.7118 27.2729 17.9935 26.9024 19.2142C26.5319 20.4349 25.9246 21.5707 25.1152 22.5567C24.3058 23.5428 23.3101 24.3597 22.1849 24.9609C21.4415 25.3581 20.6512 25.6561 19.8343 25.8485L21.0871 23.6786C21.4224 23.0979 21.2234 22.3552 20.6426 22.0199C20.0618 21.6846 19.3192 21.8836 18.9839 22.4644L16.5553 26.6708C16.22 27.2516 16.419 27.9942 16.9997 28.3295L21.2062 30.7581C21.7869 31.0934 22.5296 30.8944 22.8649 30.3136C23.2002 29.7328 23.0012 28.9902 22.4204 28.6549L21.247 27.9774C21.9651 27.7518 22.6624 27.4593 23.3294 27.1029C24.7359 26.3514 25.9805 25.3302 26.9923 24.0977C28.0041 22.8651 28.7632 21.4454 29.2263 19.9195C29.6894 18.3936 29.8474 16.7914 29.6913 15.2045Z" fill="#E2EBFE"/>
<path d="M3.72264 11.3361C3.11848 11.6272 2.8647 12.353 3.1558 12.9571C3.4469 13.5613 4.17265 13.8151 4.77681 13.524L5.96151 12.9532C5.78259 13.5589 5.65079 14.179 5.56797 14.8081C5.35983 16.3891 5.46513 17.9956 5.87785 19.5359C6.29056 21.0762 7.00262 22.5201 7.97337 23.7852C8.94411 25.0503 10.1545 26.1118 11.5355 26.9091C12.1163 27.2444 12.8589 27.0454 13.1943 26.4646C13.5296 25.8838 13.3306 25.1412 12.7498 24.8059C11.645 24.168 10.6767 23.3188 9.90008 22.3067C9.12349 21.2947 8.55384 20.1395 8.22367 18.9073C7.89349 17.6751 7.80925 16.3899 7.97577 15.1251C8.07503 14.3711 8.26224 13.6332 8.53239 12.9261L9.63984 15.2245C9.93094 15.8287 10.6567 16.0824 11.2608 15.7913C11.865 15.5002 12.1188 14.7745 11.8277 14.1703L9.71934 9.79463C9.42824 9.19048 8.70249 8.93669 8.09833 9.2278L3.72264 11.3361Z" fill="#C4D7FD"/>
</svg>
