<svg width="18" height="4" viewBox="0 0 18 4" fill="none" xmlns="http://www.w3.org/2000/svg">
<path d="M4 2C4 1.60444 3.8827 1.21776 3.66294 0.888858C3.44318 0.55996 3.13082 0.303615 2.76537 0.152239C2.39992 0.000864162 1.99778 -0.0387426 1.60982 0.038428C1.22186 0.115598 0.865492 0.306081 0.585787 0.585786C0.306082 0.865491 0.115601 1.22186 0.0384302 1.60982C-0.0387402 1.99778 0.000866492 2.39991 0.152242 2.76537C0.303617 3.13082 0.559962 3.44318 0.88886 3.66294C1.21776 3.8827 1.60444 4 2 4C2.53043 4 3.03914 3.78928 3.41421 3.41421C3.78929 3.03914 4 2.53043 4 2ZM14 2C14 2.39556 14.1173 2.78224 14.3371 3.11114C14.5568 3.44004 14.8692 3.69638 15.2346 3.84776C15.6001 3.99913 16.0022 4.03874 16.3902 3.96157C16.7781 3.8844 17.1345 3.69392 17.4142 3.41421C17.6939 3.13451 17.8844 2.77814 17.9616 2.39018C18.0387 2.00222 17.9991 1.60008 17.8478 1.23463C17.6964 0.869179 17.44 0.556822 17.1111 0.337059C16.7822 0.117296 16.3956 -1.67035e-06 16 -1.65306e-06C15.4696 -1.62987e-06 14.9609 0.210712 14.5858 0.585785C14.2107 0.960858 14 1.46957 14 2ZM7 2C7 2.39556 7.1173 2.78224 7.33706 3.11114C7.55682 3.44004 7.86918 3.69638 8.23463 3.84776C8.60009 3.99913 9.00222 4.03874 9.39018 3.96157C9.77814 3.8844 10.1345 3.69392 10.4142 3.41421C10.6939 3.13451 10.8844 2.77814 10.9616 2.39018C11.0387 2.00222 10.9991 1.60008 10.8478 1.23463C10.6964 0.869179 10.44 0.556822 10.1111 0.337059C9.78224 0.117297 9.39556 -1.36437e-06 9 -1.34708e-06C8.46957 -1.32389e-06 7.96086 0.210713 7.58579 0.585785C7.21071 0.960858 7 1.46957 7 2Z" fill="white"/>
</svg>
