<svg width="25" height="25" viewBox="0 0 25 25" fill="none" xmlns="http://www.w3.org/2000/svg">
<path d="M20.6896 21.5517H4.31033C2.88447 21.5517 1.72412 20.3914 1.72412 18.9655V6.03448C1.72412 4.60862 2.88447 3.44827 4.31033 3.44827H8.2405C9.35516 3.44827 10.3414 4.15862 10.6939 5.21638L10.7707 5.44569C10.8276 5.61719 10.9371 5.76639 11.0837 5.87209C11.2302 5.97779 11.4064 6.03461 11.5871 6.03448H20.6896C22.1155 6.03448 23.2758 7.19482 23.2758 8.62069V18.9655C23.2758 20.3914 22.1155 21.5517 20.6896 21.5517ZM4.31033 5.17241C3.83447 5.17241 3.44826 5.55948 3.44826 6.03448V18.9655C3.44826 19.4405 3.83447 19.8276 4.31033 19.8276H20.6896C21.1655 19.8276 21.5517 19.4405 21.5517 18.9655V8.62069C21.5517 8.14569 21.1655 7.75862 20.6896 7.75862H11.5871C11.0442 7.75915 10.5149 7.5886 10.0745 7.2712C9.63406 6.9538 9.30484 6.50569 9.1336 5.99051L9.05688 5.7612C8.99997 5.5897 8.89046 5.4405 8.7439 5.3348C8.59734 5.2291 8.4212 5.17228 8.2405 5.17241H4.31033Z" fill="white"/>
<path d="M20.6896 21.5517H4.31033C2.88447 21.5517 1.72412 20.3914 1.72412 18.9655V10.3448C1.72412 10.1162 1.81495 9.89692 1.97662 9.73525C2.13828 9.57358 2.35756 9.48276 2.58619 9.48276H22.4138C22.6424 9.48276 22.8617 9.57358 23.0234 9.73525C23.185 9.89692 23.2758 10.1162 23.2758 10.3448V18.9655C23.2758 20.3914 22.1155 21.5517 20.6896 21.5517ZM3.44826 11.2069V18.9655C3.44826 19.4405 3.83447 19.8276 4.31033 19.8276H20.6896C21.1655 19.8276 21.5517 19.4405 21.5517 18.9655V11.2069H3.44826Z" fill="white"/>
</svg>
