<svg width="64" height="20" viewBox="0 0 64 20" fill="none" xmlns="http://www.w3.org/2000/svg">
<path d="M18.2869 0L20.5267 0C20.7868 0 21.0012 0.209894 21.0012 0.474542V12.0415C21.0012 12.3016 21.211 12.516 21.4756 12.516H26.9406C27.2006 12.516 27.415 12.7259 27.415 12.9906V14.7884C27.415 15.0485 27.2052 15.2629 26.9406 15.2629H18.2869C18.0269 15.2629 17.8125 15.053 17.8125 14.7884V0.474542C17.8125 0.209894 18.0223 0 18.2869 0Z" fill="#172031"/>
<path d="M28.3525 5.1899C29.1324 4.1883 30.4687 3.6875 32.3659 3.6875C33.6019 3.6875 34.6965 3.9356 35.6543 4.42721C36.612 4.91882 37.0909 5.85151 37.0909 7.22067V12.4308C37.0909 12.7938 37.0955 13.2303 37.1137 13.7449C37.132 14.1354 37.1912 14.3973 37.2916 14.5351C37.361 14.635 37.4568 14.7228 37.5771 14.7986C37.6643 14.8535 37.7249 14.9452 37.7249 15.0483C37.7249 15.1962 37.6049 15.3162 37.457 15.3162H34.8561C34.6463 15.3162 34.4593 15.1737 34.4001 14.9716C34.3727 14.8659 34.3453 14.7694 34.3316 14.6683C34.2852 14.4109 33.9504 14.2924 33.7526 14.4635C33.4731 14.7054 33.1702 14.9219 32.8448 15.114C32.2109 15.4816 31.4948 15.6653 30.6921 15.6653C29.6705 15.6653 28.8268 15.3713 28.1609 14.7832C27.495 14.1951 27.1621 13.3635 27.1621 12.2884C27.1621 10.8917 27.6957 9.88088 28.7675 9.25603C29.3513 8.91604 30.2178 8.67253 31.3535 8.5255L32.3568 8.40145C32.8996 8.33253 33.2918 8.24524 33.5244 8.13957C33.944 7.96038 34.1538 7.67552 34.1538 7.29418C34.1538 6.83014 33.9941 6.50852 33.6749 6.32933C33.3556 6.15015 32.8813 6.06285 32.2611 6.06285C31.5633 6.06285 31.0707 6.23745 30.7834 6.58203C30.6329 6.76581 30.5234 7.00013 30.4459 7.2758C30.3911 7.47796 30.2041 7.62039 29.9943 7.62039H28.056C27.7641 7.62039 27.5407 7.35391 27.5863 7.05986C27.7048 6.31555 27.9602 5.70448 28.3525 5.1899ZM30.5462 13.1705C30.8198 13.4003 31.1619 13.5151 31.5587 13.5151C32.1926 13.5151 32.7764 13.3268 33.31 12.9546C33.8436 12.5778 34.1218 11.8933 34.1446 10.9009V9.79818C33.9577 9.91764 33.7707 10.0095 33.5791 10.083C33.3876 10.1565 33.1276 10.2255 32.7992 10.2852L32.1379 10.4092C31.5176 10.5195 31.0707 10.6573 30.8016 10.8136C30.3455 11.0846 30.1175 11.5027 30.1175 12.0725C30.1175 12.5778 30.2589 12.9454 30.5416 13.1659L30.5462 13.1705Z" fill="#172031"/>
<path d="M42.1245 10.8544L43.8526 4.43051C43.9071 4.22417 44.089 4.08203 44.2937 4.08203H46.3356C46.6493 4.08203 46.8722 4.40758 46.7676 4.71479L43.2386 15.2287C42.5201 17.3792 41.9471 18.7089 41.5288 19.2271C41.1104 19.7452 40.2691 20.002 39.0048 20.002C38.7502 20.002 38.5501 20.002 38.3955 19.9974C38.3273 19.9974 38.2454 19.9928 38.1454 19.9882C37.8998 19.9744 37.7042 19.7681 37.7042 19.5113V17.9501C37.7042 17.7551 37.8689 17.6006 38.0635 17.6131C38.3454 17.6268 38.6092 17.613 38.8639 17.581C39.1185 17.5443 39.3323 17.4663 39.5051 17.3425C39.6733 17.2233 39.828 16.9803 39.9689 16.6043C40.1145 16.2283 40.169 15.999 40.1463 15.9165L36.3581 4.71479C36.2536 4.40758 36.4764 4.08203 36.7902 4.08203H38.973C39.1777 4.08203 39.355 4.21959 39.4141 4.42134L41.2468 10.859C41.3787 11.3175 42.0017 11.3129 42.1245 10.8544Z" fill="#172031"/>
<path d="M55.1225 12.2938C55.4547 12.2938 55.6823 12.6305 55.564 12.9487C55.3956 13.4099 55.0997 13.8803 54.681 14.3554C53.7161 15.4623 52.3689 16.0203 50.6348 16.0203C49.2012 16.0203 47.9404 15.5545 46.8481 14.6183C45.7558 13.682 45.2051 12.1647 45.2051 10.057C45.2051 8.08301 45.6966 6.57027 46.6843 5.51872C47.6719 4.46718 48.9554 3.94141 50.5302 3.94141C51.4677 3.94141 52.3097 4.12128 53.0607 4.4764C53.8117 4.83153 54.4307 5.3942 54.9177 6.1598C55.3591 6.83777 55.6413 7.62181 55.7733 8.51193C55.837 8.94547 55.8689 9.53581 55.8689 10.2876C55.8689 10.5551 55.6595 10.7718 55.3956 10.7718H48.6823C48.3956 10.7718 48.1726 11.0347 48.2135 11.3207C48.3364 12.1739 48.6732 12.7965 49.2285 13.1793C49.6335 13.4653 50.1251 13.6082 50.694 13.6082C51.2993 13.6082 51.7909 13.433 52.1686 13.0871C52.3234 12.9441 52.4645 12.7642 52.5919 12.5382C52.6738 12.3953 52.8149 12.303 52.9788 12.303H55.1179L55.1225 12.2938ZM52.2688 8.80249C52.5646 8.80249 52.7967 8.52577 52.733 8.23521C52.6238 7.72328 52.4144 7.31281 52.1004 7.00841C51.6771 6.60255 51.1537 6.39501 50.5256 6.39501C49.8429 6.39501 49.315 6.61178 48.9417 7.04531C48.6732 7.35431 48.4775 7.74172 48.3501 8.20293C48.2681 8.50271 48.5003 8.80249 48.8098 8.80249H52.2642H52.2688Z" fill="#172031"/>
<path d="M61.4703 7.03419C60.2841 7.03419 59.4858 7.42287 59.0797 8.19566C58.8516 8.63007 58.7376 9.30225 58.7376 10.2077V15.137C58.7376 15.3977 58.5277 15.6126 58.2631 15.6126H56.242C55.982 15.6126 55.7676 15.4023 55.7676 15.137V4.77984C55.7676 4.5192 55.9774 4.30428 56.242 4.30428H58.108C58.368 4.30428 58.5824 4.51462 58.5824 4.77984C58.5824 5.21882 59.1299 5.41545 59.4173 5.08621C59.5405 4.93989 59.6591 4.82557 59.7732 4.73411C60.3252 4.27227 61.0415 4.03906 61.9265 4.03906C61.9813 4.03906 62.0269 4.03906 62.068 4.04364C62.0915 4.04364 62.6674 4.04744 63.1089 4.05137C63.3836 4.05381 63.6012 4.27518 63.6012 4.54994V6.50847C63.6012 6.81461 63.332 7.06979 63.0259 7.06326C62.5401 7.05289 61.9193 7.04625 61.8262 7.04333C61.6802 7.03876 61.5616 7.03419 61.4749 7.03419H61.4703Z" fill="#172031"/>
<path d="M9.15723 6.10547V9.1582H9.1582V14.8965C9.1582 15.0986 8.99408 15.2634 8.79199 15.2637H6.47168C6.26937 15.2637 6.10547 15.0988 6.10547 14.8965V11.2998L2.4502 15.0146C2.30829 15.1587 2.07678 15.1604 1.93262 15.0186L0.27832 13.3916C0.134482 13.2498 0.132844 13.0181 0.274414 12.874L3.93066 9.1582H0.366211C0.164033 9.15815 0.000136372 8.99415 0 8.79199V6.47168C5.33419e-05 6.26945 0.163982 6.10552 0.366211 6.10547H9.15723Z" fill="#172031"/>
<path d="M6.10352 8.79143C6.10352 8.99374 6.26752 9.15774 6.46983 9.15774H14.895C15.0973 9.15774 15.2613 8.99374 15.2613 8.79143V6.47147C15.2613 6.26916 15.0973 6.10516 14.895 6.10516L9.15612 6.10516L9.15613 0.36631C9.15613 0.164003 8.99212 3.30756e-07 8.78981 3.04226e-07L6.46983 0C6.26752 -2.65294e-08 6.10352 0.164003 6.10352 0.36631L6.10352 8.79143Z" fill="#6C9CFA"/>
<path d="M6.11719 6.125H9.17659V9.18441H8.37177C7.1266 9.18441 6.11719 8.175 6.11719 6.92983V6.125Z" fill="#E2EBFE"/>
</svg>
