<svg width="41" height="41" viewBox="0 0 41 41" fill="none" xmlns="http://www.w3.org/2000/svg">
<path d="M16.4874 9.67225L19.6306 16.5872C19.7306 16.8073 19.907 16.9837 20.1272 17.0837L27.0421 20.2269C27.2765 20.3335 27.2765 20.6665 27.0421 20.7731L20.1272 23.9162C19.907 24.0163 19.7306 24.1927 19.6306 24.4128L16.4874 31.3277C16.3809 31.5622 16.0478 31.5622 15.9412 31.3277L12.7981 24.4128C12.698 24.1927 12.5216 24.0163 12.3015 23.9162L5.38661 20.7731C5.15213 20.6665 5.15213 20.3335 5.38661 20.2269L12.3015 17.0837C12.5216 16.9837 12.698 16.8073 12.7981 16.5872L15.9412 9.67225C16.0478 9.43777 16.3809 9.43777 16.4874 9.67225Z" fill="#A7C4FC"/>
<path d="M32.1306 12.6271L30.6821 15.8137C30.6111 15.97 30.389 15.97 30.318 15.8137L28.8695 12.6271C28.7695 12.407 28.5931 12.2306 28.373 12.1305L25.1863 10.6821C25.03 10.611 25.03 10.389 25.1863 10.3179L28.373 8.86945C28.5931 8.7694 28.7695 8.593 28.8695 8.37289L30.318 5.18627C30.389 5.02995 30.6111 5.02995 30.6821 5.18627L32.1306 8.37289C32.2306 8.593 32.407 8.7694 32.6272 8.86945L35.8138 10.3179C35.9701 10.389 35.9701 10.611 35.8138 10.6821L32.6272 12.1305C32.407 12.2306 32.2306 12.407 32.1306 12.6271Z" fill="#8C81F7"/>
<path d="M28.8695 28.3729L30.318 25.1863C30.389 25.0299 30.6111 25.0299 30.6821 25.1863L32.1306 28.3729C32.2306 28.593 32.407 28.7694 32.6272 28.8695L35.8138 30.3179C35.9701 30.389 35.9701 30.611 35.8138 30.6821L32.6272 32.1305C32.407 32.2306 32.2306 32.407 32.1306 32.6271L30.6821 35.8137C30.6111 35.97 30.389 35.97 30.318 35.8137L28.8695 32.6271C28.7695 32.407 28.5931 32.2306 28.373 32.1305L25.1863 30.6821C25.03 30.611 25.03 30.389 25.1863 30.3179L28.373 28.8695C28.5931 28.7694 28.7695 28.593 28.8695 28.3729Z" fill="#6C9CFA"/>
</svg>
