<svg width="20" height="20" viewBox="0 0 20 20" fill="none" xmlns="http://www.w3.org/2000/svg">
<path d="M4.92141 14.7018H5.0669L6.66731 14.404C7.39478 14.255 8.04949 13.8827 8.55871 13.3615L15.1786 6.65976C15.6151 6.28744 15.8333 5.69173 15.8333 5.09602C15.8333 4.50032 15.6151 3.97907 15.1786 3.53229C14.3784 2.71319 12.9962 2.71319 12.1233 3.53229L5.50338 10.1595C4.99415 10.6808 4.63042 11.351 4.48493 12.0956L4.19394 13.8082C4.1212 14.0316 4.19394 14.3295 4.41218 14.4784C4.55767 14.6273 4.70317 14.7018 4.92141 14.7018ZM13.1417 4.64924C13.2872 4.50032 13.5055 4.42585 13.6509 4.42585C13.8692 4.42585 14.0147 4.50032 14.1602 4.64924C14.3057 4.79817 14.3784 4.9471 14.3784 5.09602C14.3784 5.17049 14.3784 5.39388 14.1602 5.61727L13.8692 5.91512L12.8507 4.9471L13.1417 4.64924ZM5.93985 12.4679C6.0126 12.0211 6.23084 11.6488 6.59457 11.2765L11.8323 5.98958L12.8507 6.95761L7.61301 12.2445C7.32203 12.5424 6.88555 12.7658 6.44907 12.8402L5.86711 12.9891L5.93985 12.4679ZM15.1059 15.5954H4.92141C4.48493 15.5954 4.19394 15.8932 4.19394 16.34C4.19394 16.7868 4.48493 17.0846 4.92141 17.0846H15.1059C15.5423 17.0846 15.8333 16.7868 15.8333 16.34C15.8333 15.8932 15.5423 15.5954 15.1059 15.5954Z" fill="#666B75"/>
</svg>
