<svg width="200" height="200" viewBox="0 0 200 200" fill="none" xmlns="http://www.w3.org/2000/svg">
<path fill-rule="evenodd" clip-rule="evenodd" d="M173.966 49.4137L189.007 22L162.053 34.8871C154.507 28.8963 144.959 25.3179 134.576 25.3179C110.149 25.3179 90.3477 45.1195 90.3477 69.5459C90.3477 93.9723 110.149 113.774 134.576 113.774C159.002 113.774 178.804 93.9723 178.804 69.5459C178.804 62.2954 177.059 55.4523 173.966 49.4137Z" fill="#B2AAFF"/>
<path fill-rule="evenodd" clip-rule="evenodd" d="M65.4344 139.397C89.8608 139.397 109.662 119.596 109.662 95.1694C109.662 70.7429 89.8608 50.9414 65.4344 50.9414C41.008 50.9414 21.2064 70.7429 21.2064 95.1694C21.2064 102.419 22.9507 109.261 26.0424 115.299L11 142.717L37.9566 129.828C45.5029 135.819 55.0507 139.397 65.4344 139.397Z" fill="#A7C4FC"/>
<path fill-rule="evenodd" clip-rule="evenodd" d="M162.839 122.126C156.517 98.5321 132.265 84.5303 108.671 90.8523C85.0769 97.1743 71.0751 121.426 77.3971 145.02C83.7192 168.614 107.971 182.616 131.565 176.294C138.569 174.418 144.727 170.961 149.76 166.411L180.136 173.844L160.709 151.142C164.541 142.303 165.526 132.155 162.839 122.126Z" fill="#415E96"/>
<circle cx="46.6296" cy="96.6921" r="5.08367" fill="white"/>
<circle cx="62.8971" cy="96.6916" r="5.08367" fill="white"/>
<circle cx="78.1452" cy="96.694" r="5.08367" fill="white"/>
<line x1="119.959" y1="117.326" x2="119.959" y2="148.248" stroke="white" stroke-width="4.66339" stroke-linecap="round"/>
<line x1="134.786" y1="133.423" x2="103.864" y2="133.423" stroke="white" stroke-width="4.66339" stroke-linecap="round"/>
<line x1="152.072" y1="69.5378" x2="121.149" y2="69.5378" stroke="white" stroke-width="4.66339" stroke-linecap="round"/>
</svg>
