<svg width="200" height="200" viewBox="0 0 200 200" fill="none" xmlns="http://www.w3.org/2000/svg">
<path d="M87.8789 23.703C87.8789 20.9163 90.138 18.6572 92.9247 18.6572C95.7114 18.6572 97.9705 20.9163 97.9705 23.703L97.9705 199.53H87.8789L87.8789 23.703Z" fill="#D9D9D9"/>
<rect x="35.665" y="14" width="121.455" height="35.3066" rx="5.64906" fill="#6C9CFA"/>
<path d="M55.6239 29.5774H53.7208C53.6243 28.6339 52.8362 28.0871 51.6461 28.0871C50.3969 28.0871 49.6518 28.6929 49.6518 29.5238C49.641 30.4406 50.6167 30.8266 51.5228 31.041L52.5521 31.2983C54.1925 31.6843 55.7741 32.5475 55.7741 34.456C55.7741 36.386 54.2462 37.7048 51.6139 37.7048C49.062 37.7048 47.443 36.4825 47.3572 34.3059H49.2979C49.3837 35.4531 50.354 36.016 51.5978 36.016C52.9005 36.016 53.7958 35.3834 53.8012 34.4399C53.7958 33.5875 53.0024 33.2176 51.823 32.912L50.5739 32.5903C48.7672 32.1293 47.6467 31.2179 47.6521 29.6418C47.6414 27.7011 49.3676 26.4091 51.6729 26.4091C54.0049 26.4091 55.5864 27.7225 55.6239 29.5774ZM60.5474 36.0268C60.7726 36.0321 61.1532 36.0053 61.3945 35.9892V37.5707C61.164 37.6083 60.794 37.6512 60.3008 37.6512C58.848 37.6512 57.7275 36.9328 57.7329 35.3834V30.7944H56.5642V29.304H57.7329V27.3312L59.6629 27.3312V29.304H61.2819V30.7944L59.6629 30.7944V35.0618C59.6629 35.8552 60.0542 36.016 60.5474 36.0268ZM65.9708 29.1968C67.5308 29.1968 69.3321 29.8401 69.3321 32.0328V37.5386H67.4826V36.4074H67.4182C67.0644 37.0936 66.2924 37.7048 65.0004 37.7048C63.4296 37.7048 62.2395 36.847 62.2395 35.228C62.2395 33.3677 63.7781 32.8262 65.306 32.7244C65.8796 32.6868 67.0537 32.6332 67.4129 32.6171L67.4075 31.9524C67.4075 31.1429 66.8875 30.6711 65.9171 30.6711C65.054 30.6711 64.5286 31.0624 64.3839 31.6522H62.5129C62.6523 30.2583 63.9068 29.1968 65.9708 29.1968ZM65.4936 36.2841C66.6677 36.2841 67.4182 35.5067 67.4182 34.5846L67.4129 33.9038C67.0644 33.9199 65.9922 33.9896 65.6062 34.0271C64.6841 34.0968 64.1051 34.4828 64.1051 35.2012C64.1051 35.9142 64.6841 36.2841 65.4936 36.2841ZM72.9362 37.5386H71.0062V29.304L72.8772 29.304V30.6765H72.963C73.2632 29.7222 74.0567 29.1861 74.9948 29.1861C75.2093 29.1861 75.5149 29.2075 75.6971 29.2397V31.0142C75.5256 30.9606 75.1181 30.9016 74.7965 30.9016C73.7296 30.9016 72.9362 31.6468 72.9362 32.6868V37.5386ZM80.4893 36.0268C80.7144 36.0321 81.0951 36.0053 81.3363 35.9892V37.5707C81.1058 37.6083 80.7359 37.6512 80.2427 37.6512C78.7898 37.6512 77.6694 36.9328 77.6747 35.3834V30.7944H76.506V29.304H77.6747V27.3312H79.6047V29.304H81.2237V30.7944H79.6047V35.0618C79.6047 35.8552 79.9961 36.016 80.4893 36.0268Z" fill="white"/>
<circle cx="134.454" cy="31.0779" r="9.53096" stroke="white" stroke-width="1.12129"/>
<path d="M138.939 30.8045C139.438 31.0923 139.438 31.8116 138.939 32.0993L133.333 35.3362C132.834 35.6239 132.212 35.2643 132.212 34.6888L132.212 28.215C132.212 27.6396 132.834 27.2799 133.333 27.5677L138.939 30.8045Z" fill="white"/>
<rect x="18.0137" y="54.9551" width="121.455" height="35.3066" rx="5.64906" fill="#415E96"/>
<path d="M97.5419 70.7205H95.6387C95.5422 69.777 94.7542 69.2301 93.564 69.2301C92.3149 69.2301 91.5697 69.8359 91.5697 70.6669C91.559 71.5836 92.5347 71.9696 93.4407 72.1841L94.47 72.4414C96.1105 72.8274 97.692 73.6905 97.692 75.599C97.692 77.529 96.1641 78.8478 93.5319 78.8478C90.98 78.8478 89.361 77.6255 89.2752 75.4489H91.2159C91.3017 76.5962 92.272 77.1591 93.5158 77.1591C94.8185 77.1591 95.7138 76.5265 95.7192 75.583C95.7138 74.7306 94.9204 74.3606 93.7409 74.0551L92.4918 73.7334C90.6852 73.2724 89.5647 72.361 89.5701 70.7848C89.5593 68.8441 91.2856 67.5521 93.5908 67.5521C95.9229 67.5521 97.5044 68.8656 97.5419 70.7205ZM102.465 77.1698C102.691 77.1752 103.071 77.1484 103.312 77.1323V78.7138C103.082 78.7513 102.712 78.7942 102.219 78.7942C100.766 78.7942 99.6455 78.0758 99.6509 76.5265V71.9375H98.4822V70.4471H99.6509V68.4742H101.581V70.4471H103.2V71.9375H101.581V76.2048C101.581 76.9983 101.972 77.1591 102.465 77.1698ZM108.044 78.8425C105.637 78.8425 104.099 77.143 104.099 74.5965C104.099 72.0447 105.637 70.3399 108.044 70.3399C110.451 70.3399 111.985 72.0447 111.985 74.5965C111.985 77.143 110.451 78.8425 108.044 78.8425ZM108.05 77.2985C109.369 77.2985 110.028 76.0976 110.028 74.5912C110.028 73.0847 109.369 71.8678 108.05 71.8678C106.709 71.8678 106.05 73.0847 106.05 74.5912C106.05 76.0976 106.709 77.2985 108.05 77.2985ZM115.279 81.7696H113.349V70.4471H115.241V71.8034H115.359C115.654 71.2137 116.26 70.3399 117.718 70.3399C119.621 70.3399 121.112 71.8302 121.112 74.5751C121.112 77.2824 119.659 78.8264 117.723 78.8264C116.303 78.8264 115.665 77.9847 115.359 77.3843H115.279V81.7696ZM115.241 74.5644C115.241 76.1673 115.938 77.2449 117.187 77.2449C118.474 77.2449 119.149 76.1137 119.149 74.5644C119.149 73.0258 118.485 71.9267 117.187 71.9267C115.927 71.9267 115.241 72.9614 115.241 74.5644Z" fill="white"/>
<circle cx="42.0789" cy="72.9964" r="9.53096" stroke="white" stroke-width="1.12129"/>
<rect x="38.9736" y="69.1152" width="1.55256" height="6.9865" fill="white"/>
<rect x="43.6309" y="69.1152" width="1.55256" height="6.9865" fill="white"/>
<rect x="35.667" y="95.9106" width="121.455" height="35.3066" rx="5.64906" fill="#8C81F7"/>
<path d="M57.1421 111.772H55.1424C54.9173 110.454 53.8665 109.692 52.5316 109.692C50.7303 109.692 49.4597 111.076 49.4597 113.558C49.4597 116.083 50.741 117.423 52.5209 117.423C53.8343 117.423 54.8851 116.694 55.1424 115.407L57.1421 115.418C56.8365 117.514 55.0995 119.197 52.4994 119.197C49.5991 119.197 47.4762 117.096 47.4762 113.558C47.4762 110.009 49.6259 107.918 52.4994 107.918C54.9226 107.918 56.799 109.328 57.1421 111.772ZM62.189 119.208C59.7819 119.208 58.2432 117.509 58.2432 114.962C58.2432 112.41 59.7819 110.706 62.189 110.706C64.5961 110.706 66.1293 112.41 66.1293 114.962C66.1293 117.509 64.5961 119.208 62.189 119.208ZM62.1943 117.664C63.5131 117.664 64.1725 116.463 64.1725 114.957C64.1725 113.45 63.5131 112.233 62.1943 112.233C60.8541 112.233 60.1947 113.45 60.1947 114.957C60.1947 116.463 60.8541 117.664 62.1943 117.664ZM69.4233 114.222V119.047H67.4933V110.813H69.3375V112.212H69.4394C69.8147 111.29 70.6563 110.706 71.8894 110.706C73.5888 110.706 74.7093 111.831 74.7093 113.804V119.047H72.7793V114.099C72.7793 113 72.1789 112.341 71.171 112.341C70.147 112.341 69.4233 113.027 69.4233 114.222ZM79.7661 117.536C79.9913 117.541 80.3719 117.514 80.6132 117.498V119.08C80.3826 119.117 80.0127 119.16 79.5195 119.16C78.0667 119.16 76.9462 118.442 76.9516 116.892V112.303H75.7829V110.813H76.9516V108.84H78.8816V110.813H80.5006V112.303H78.8816V116.571C78.8816 117.364 79.2729 117.525 79.7661 117.536ZM82.8145 109.639C82.1926 109.639 81.6887 109.172 81.6887 108.593C81.6887 108.009 82.1926 107.543 82.8145 107.543C83.4203 107.543 83.9296 108.009 83.9296 108.593C83.9296 109.172 83.4203 109.639 82.8145 109.639ZM83.7741 119.047H81.8442V110.813H83.7741V119.047ZM87.4093 114.222V119.047H85.4793V110.813L87.3235 110.813V112.212H87.4254C87.8007 111.29 88.6423 110.706 89.8754 110.706C91.5748 110.706 92.6953 111.831 92.6953 113.804V119.047H90.7653V114.099C90.7653 113 90.1649 112.341 89.157 112.341C88.133 112.341 87.4093 113.027 87.4093 114.222ZM99.6392 115.584V110.813H101.564V119.047H99.6982V117.589H99.6124C99.2371 118.506 98.374 119.155 97.1356 119.155C95.5166 119.155 94.3908 118.034 94.3908 116.056V110.813H96.3207V115.761C96.3207 116.806 96.9426 117.466 97.8808 117.466C98.7385 117.466 99.6446 116.849 99.6392 115.584ZM110.574 114.866V115.461H104.832C104.853 116.876 105.684 117.707 106.939 117.707C107.78 117.707 108.354 117.337 108.606 116.844H110.493C110.145 118.27 108.831 119.208 106.917 119.208C104.435 119.208 102.918 117.557 102.918 114.978C102.918 112.437 104.457 110.706 106.81 110.706C108.831 110.706 110.574 111.971 110.574 114.866ZM104.837 114.153H108.719C108.713 113.032 107.957 112.212 106.842 112.212C105.679 112.212 104.896 113.102 104.837 114.153Z" fill="white"/>
<circle cx="139.112" cy="114.14" r="8.75469" stroke="white" stroke-width="1.12129"/>
<path d="M137.56 110.258L141.859 113.841C142.046 113.996 142.046 114.282 141.859 114.437L137.56 118.021" stroke="white" stroke-width="1.55256" stroke-linecap="round"/>
<rect x="15" y="164.984" width="171" height="34.5459" fill="url(#paint0_linear_384_7761)"/>
<defs>
<linearGradient id="paint0_linear_384_7761" x1="93.6481" y1="164.984" x2="93.6481" y2="182.596" gradientUnits="userSpaceOnUse">
<stop stop-color="#212329" stop-opacity="0"/>
<stop offset="1" stop-color="#212329"/>
</linearGradient>
</defs>
</svg>
