<svg width="200" height="200" viewBox="0 0 200 200" fill="none" xmlns="http://www.w3.org/2000/svg">
<rect x="85.25" y="37" width="36.25" height="42.5" fill="white"/>
<rect x="4.44434" y="92.0977" width="67.711" height="66.933" rx="8.62756" fill="#B6AFFF"/>
<rect x="139.866" y="92.0977" width="66.933" height="67.711" rx="8.62756" transform="rotate(90 139.866 92.0977)" fill="#6C9CFA"/>
<rect x="197.777" y="122.922" width="36.1086" height="57.9107" rx="6.47067" transform="rotate(90 197.777 122.922)" fill="#D9D9D9"/>
<path d="M55.2273 138.314L21.3086 138.314L21.3086 132.294L36.9093 132.294L36.9093 131.831L21.3086 118.725L21.3086 111.362L36.5345 124.329L55.2273 111.223L55.2273 118.493L40.6572 128.543L45.1079 132.294L55.2273 132.294L55.2273 138.314Z" fill="white"/>
<path d="M93.5381 142.36V108.831H106.281C114.058 108.831 118.227 113.508 118.227 119.945C118.227 126.382 114.011 131.013 106.187 131.013H99.6285V142.36H93.5381ZM99.6285 126.058H105.344C109.935 126.058 111.997 123.511 111.997 119.945C111.997 116.333 109.935 113.878 105.344 113.878H99.6285V126.058Z" fill="white"/>
<path fill-rule="evenodd" clip-rule="evenodd" d="M139.866 33.7926C139.866 29.0277 136.004 25.165 131.239 25.165L80.7828 25.165C76.018 25.165 72.1553 29.0277 72.1553 33.7926L72.1553 83.4705C72.1553 88.2353 76.018 92.098 80.7828 92.098H131.239C136.004 92.098 139.866 88.2353 139.866 83.4705V33.7926ZM92.6462 41.8979V46.9458H103.14V75.4268H109.231V46.9458H119.678V41.8979H92.6462Z" fill="#2C3648"/>
<path d="M17.8086 88.09C17.8086 86.8988 18.7743 85.9331 19.9655 85.9331H29.9066C31.0979 85.9331 32.0635 86.8988 32.0635 88.09V92.098H17.8086V88.09Z" fill="#B6AFFF"/>
<path d="M147.885 118.915C147.885 117.723 148.85 116.758 150.042 116.758H159.983C161.174 116.758 162.14 117.723 162.14 118.915V122.923H147.885V118.915Z" fill="#D9D9D9"/>
<path d="M85.5186 21.1569C85.5186 19.9657 86.4842 19 87.6754 19H97.6166C98.8078 19 99.7735 19.9657 99.7735 21.1569V25.1649H85.5186V21.1569Z" fill="#2C3648"/>
<path d="M43.6445 88.0895C43.6445 86.8983 44.6102 85.9326 45.8014 85.9326H55.7426C56.9338 85.9326 57.8995 86.8983 57.8995 88.0895V92.0975H43.6445V88.0895Z" fill="#B6AFFF"/>
<path d="M173.722 118.914C173.722 117.723 174.687 116.757 175.879 116.757H185.82C187.011 116.757 187.977 117.723 187.977 118.914V122.922H173.722V118.914Z" fill="#D9D9D9"/>
<path d="M111.356 21.1569C111.356 19.9657 112.322 19 113.513 19H123.454C124.646 19 125.611 19.9657 125.611 21.1569V25.1649H111.356V21.1569Z" fill="#2C3648"/>
</svg>
