<svg width="200" height="200" viewBox="0 0 200 200" fill="none" xmlns="http://www.w3.org/2000/svg">
<path d="M100.806 69.0798C117.673 69.0798 131.346 55.4066 131.346 38.5399C131.346 21.6732 117.673 8 100.806 8C83.9398 8 70.2666 21.6732 70.2666 38.5399C70.2666 55.4066 83.9398 69.0798 100.806 69.0798Z" fill="#BAB3FA"/>
<path d="M114.667 35.5418C114.667 30.9152 110.853 27.166 106.147 27.166C103.775 27.166 101.628 28.6285 100.083 30.166C98.5392 28.6285 96.3943 27.166 94.02 27.166C89.3137 27.166 85.5 30.9152 85.5 35.5418C85.5 37.8759 86.4718 39.9845 88.0359 41.5025L88.05 41.5165L100.083 52.1661L112.117 41.5165L112.131 41.5025C113.695 39.9845 114.667 37.8759 114.667 35.5418Z" fill="white"/>
<path d="M152.46 107.635C169.327 107.635 183 93.9623 183 77.0956C183 60.2288 169.327 46.5557 152.46 46.5557C135.593 46.5557 121.92 60.2288 121.92 77.0956C121.92 93.9623 135.593 107.635 152.46 107.635Z" fill="#89B0FB"/>
<path d="M153.16 94.5202C154.943 94.3266 156.645 93.8324 158.2 92.9161C160.771 91.4032 162.834 89.368 164.204 86.6269C165.634 83.7666 165.974 80.7677 165.248 77.6676C164.54 74.644 162.901 72.1157 160.935 69.8114C159.542 68.1769 158.06 66.6223 156.624 65.0261C155.518 63.7969 154.692 62.3943 154.249 60.7767C153.926 59.5947 153.921 58.4071 154.301 57.2307C154.339 57.1137 154.438 56.9651 154.307 56.8694C154.187 56.7805 154.062 56.8975 153.963 56.9707C153.712 57.1564 153.473 57.3602 153.225 57.5527C150.753 59.4664 148.829 61.8494 147.67 64.7954C146.556 67.6265 146.233 70.5926 146.696 73.6275C146.81 74.3772 146.948 75.1235 147.082 75.916C146.726 75.8473 146.525 75.638 146.334 75.4128C145.376 74.2804 144.986 72.9048 144.707 71.4741C144.655 71.2028 144.82 70.7502 144.484 70.6962C144.208 70.6512 144.026 71.0699 143.817 71.2984C143.805 71.312 143.796 71.3288 143.785 71.3435C142.083 73.6185 140.846 76.1288 140.239 78.9374C139.661 81.612 139.816 84.2179 140.99 86.7294C141.915 88.7094 143.199 90.3946 144.869 91.7443C146.46 93.031 148.201 94.0463 150.251 94.3649C150.251 94.3649 151.809 94.6047 153.16 94.5191V94.5202Z" fill="white"/>
<path d="M152.799 92.9883C153.782 92.8727 154.719 92.5778 155.577 92.0309C156.993 91.128 158.131 89.9133 158.886 88.2774C159.674 86.5703 159.861 84.7806 159.461 82.9303C159.071 81.1258 158.167 79.6169 157.084 78.2416C156.316 77.2661 155.499 76.3384 154.708 75.3857C154.098 74.6521 153.643 73.815 153.399 72.8495C153.221 72.1441 153.219 71.4353 153.428 70.7333C153.449 70.6634 153.503 70.5747 153.431 70.5176C153.365 70.4646 153.296 70.5344 153.242 70.5781C153.103 70.6889 152.971 70.8105 152.835 70.9254C151.472 72.0675 150.412 73.4898 149.773 75.248C149.159 76.9376 148.981 78.7079 149.236 80.5191C149.299 80.9666 149.375 81.412 149.449 81.885C149.253 81.844 149.142 81.719 149.037 81.5847C148.509 80.9088 148.294 80.0878 148.14 79.2339C148.111 79.072 148.203 78.802 148.017 78.7697C147.865 78.7428 147.765 78.9927 147.65 79.1291C147.643 79.1372 147.638 79.1473 147.632 79.156C146.694 80.5138 146.012 82.0119 145.678 83.6882C145.359 85.2844 145.444 86.8397 146.092 88.3386C146.602 89.5203 147.309 90.526 148.229 91.3316C149.106 92.0995 150.066 92.7055 151.196 92.8956C151.196 92.8956 152.054 93.0387 152.799 92.9876V92.9883Z" fill="#89B0FB"/>
<path d="M48.5399 108.492C65.4066 108.492 79.0798 94.8192 79.0798 77.9525C79.0798 61.0858 65.4066 47.4126 48.5399 47.4126C31.6732 47.4126 18 61.0858 18 77.9525C18 94.8192 31.6732 108.492 48.5399 108.492Z" fill="#89B0FB"/>
<path d="M48.5868 96.5381C49.6624 96.5381 50.5343 95.6662 50.5343 94.5906C50.5343 93.5151 49.6624 92.6432 48.5868 92.6432V96.5381ZM48.5868 92.6432C40.341 92.6432 33.6564 85.9586 33.6564 77.7128H29.7615C29.7615 88.1097 38.1899 96.5381 48.5868 96.5381V92.6432ZM33.6564 77.7128C33.6564 69.467 40.341 62.7824 48.5868 62.7824V58.8875C38.1899 58.8875 29.7615 67.3159 29.7615 77.7128H33.6564Z" fill="white"/>
<path d="M65.4648 77.7128C65.4648 68.3914 57.9084 60.835 48.587 60.835" stroke="white" stroke-width="3.89489" stroke-dasharray="3.29 3.29"/>
<mask id="mask0_384_7588" style="mask-type:alpha" maskUnits="userSpaceOnUse" x="48" y="77" width="20" height="20">
<path d="M65.4629 77.712C65.4629 87.0334 57.9064 94.5898 48.5851 94.5898" stroke="white" stroke-width="3.89489"/>
</mask>
<g mask="url(#mask0_384_7588)">
<rect x="56.375" y="77.7119" width="12.983" height="14.2812" fill="white"/>
</g>
<circle cx="48.5874" cy="77.7128" r="15.5795" fill="#89B0FB"/>
<path d="M57.8217 86.8002L57.4296 91.3797C57.4071 91.6429 57.6022 91.8746 57.8655 91.8972L62.445 92.2893" stroke="white" stroke-width="2.59659" stroke-linecap="round"/>
<path d="M48.5869 69.479V79.7704H55.585" stroke="white" stroke-width="3.24574" stroke-linecap="round"/>
<path d="M135.208 169.913C152.075 169.913 165.748 156.24 165.748 139.373C165.748 122.507 152.075 108.833 135.208 108.833C118.341 108.833 104.668 122.507 104.668 139.373C104.668 156.24 118.341 169.913 135.208 169.913Z" fill="#89B0FB"/>
<path fill-rule="evenodd" clip-rule="evenodd" d="M148.577 148.951C151.12 145.829 152.646 141.844 152.646 137.503C152.646 127.487 144.525 119.367 134.509 119.367C124.492 119.367 116.372 127.487 116.372 137.503C116.372 147.52 124.492 155.64 134.509 155.64C139.229 155.64 143.528 153.837 146.754 150.882L143.239 147.743C140.889 149.749 137.84 150.96 134.509 150.96C127.077 150.96 121.052 144.935 121.052 137.503C121.052 130.072 127.077 124.047 134.509 124.047C141.94 124.047 147.965 130.072 147.965 137.503C147.965 140.647 146.887 143.539 145.08 145.829L148.577 148.951ZM143.33 144.267C144.769 142.393 145.624 140.048 145.624 137.503C145.624 131.364 140.647 126.387 134.508 126.387C128.369 126.387 123.392 131.364 123.392 137.503C123.392 143.642 128.369 148.619 134.508 148.619C137.145 148.619 139.567 147.701 141.473 146.167L140.941 145.692L137.897 142.974C136.913 143.585 135.751 143.938 134.508 143.938C130.953 143.938 128.072 141.057 128.072 137.502C128.072 133.948 130.953 131.067 134.508 131.067C138.062 131.067 140.943 133.948 140.943 137.502C140.943 138.85 140.529 140.1 139.822 141.134L143.33 144.267Z" fill="white"/>
<path fill-rule="evenodd" clip-rule="evenodd" d="M138.601 137.501C138.601 137.948 138.5 138.371 138.321 138.75L148.86 148.159L150.892 147.524L156.306 151.885L152.899 152.95L152.901 152.951L152.586 156.508L147.172 152.147L147.43 149.236L137.13 140.04C136.702 140.286 136.205 140.427 135.675 140.427C134.06 140.427 132.75 139.117 132.75 137.501C132.75 135.886 134.06 134.576 135.675 134.576C137.291 134.576 138.601 135.886 138.601 137.501Z" fill="#212329"/>
<path d="M68.2469 169.327C85.1136 169.327 98.7868 155.654 98.7868 138.787C98.7868 121.921 85.1136 108.248 68.2469 108.248C51.3802 108.248 37.707 121.921 37.707 138.787C37.707 155.654 51.3802 169.327 68.2469 169.327Z" fill="#BAB3FA"/>
<path d="M58.9731 132.891H56.6975C55.5766 132.891 54.668 133.87 54.668 135.079V147.595C54.668 148.803 55.5766 149.783 56.6975 149.783H58.9731C60.094 149.783 61.0026 148.803 61.0026 147.595V135.079C61.0026 133.87 60.094 132.891 58.9731 132.891Z" fill="white"/>
<path d="M63.1133 133.912V147.679C63.1133 148.841 64.0112 149.783 65.1184 149.783H75.7052C76.396 149.783 77.0392 149.409 77.4058 148.795L81.8116 141.404C82.0115 141.069 82.1172 140.682 82.1172 140.288V135.406C82.1172 134.244 81.2192 133.302 80.1121 133.302H74.0295C73.2641 133.302 72.652 132.635 72.682 131.832C72.7359 130.371 72.7794 128.241 72.6157 127.468C72.3568 126.248 69.7717 124.266 67.7677 126.545C66.182 128.349 65.3535 130.968 64.5922 132.215C64.3861 132.554 63.3401 132.665 63.1133 133.911V133.912Z" fill="white"/>
</svg>
