<svg width="200" height="200" viewBox="0 0 200 200" fill="none" xmlns="http://www.w3.org/2000/svg">
<rect x="96.0938" y="71.4517" width="7.05862" height="7.84292" fill="#D9D9D9"/>
<path fill-rule="evenodd" clip-rule="evenodd" d="M49.3484 173.129C44.2053 173.129 40.286 168.522 41.1097 163.445L53.6372 86.2353C54.2928 82.1945 57.7822 79.2256 61.8759 79.2256H98.9277H101.104H138.156C142.25 79.2256 145.739 82.1945 146.395 86.2353L158.922 163.445C159.746 168.522 155.826 173.129 150.683 173.129H101.104H98.9277H49.3484Z" fill="#415E96"/>
<path d="M134.337 116.226C134.337 105.062 125.308 96.0161 114.166 96.0161C108.551 96.0161 103.466 99.5448 99.8105 103.255C96.1546 99.5448 91.0766 96.0161 85.4553 96.0161C74.3132 96.0161 65.2842 105.062 65.2842 116.226C65.2842 121.858 67.585 126.945 71.2879 130.608L71.3214 130.642L99.8105 156.338L128.3 130.642L128.333 130.608C132.036 126.945 134.337 121.858 134.337 116.226Z" fill="#C4D7FD"/>
<mask id="mask0_384_7626" style="mask-type:alpha" maskUnits="userSpaceOnUse" x="65" y="96" width="70" height="61">
<path d="M134.337 116.226C134.337 105.062 125.308 96.0161 114.166 96.0161C108.551 96.0161 103.466 99.5448 99.8105 103.255C96.1546 99.5448 91.0766 96.0161 85.4553 96.0161C74.3132 96.0161 65.2842 105.062 65.2842 116.226C65.2842 121.858 67.585 126.945 71.2879 130.608L71.3214 130.642L99.8105 156.338L128.3 130.642L128.333 130.608C132.036 126.945 134.337 121.858 134.337 116.226Z" fill="#7EA9FF"/>
</mask>
<g mask="url(#mask0_384_7626)">
<path d="M73.2211 98.3974L100.406 126.376L99.8103 102.961L108.938 89.0713H131.36L140.686 104.747L137.71 135.9L100.406 163.481L64.4903 135.9L50.7988 104.747L73.2211 98.3974Z" fill="#7EA9FF"/>
</g>
<circle cx="100.429" cy="125.161" r="4.61695" fill="white"/>
<circle cx="100.429" cy="125.161" r="2.93806" fill="#415E96"/>
<path d="M74.2049 99.3781L107.862 131.336L106.161 133.037L74.2049 99.3781Z" fill="#415E96"/>
<path fill-rule="evenodd" clip-rule="evenodd" d="M128.223 16.4411C131.16 15.5858 134.639 16.9064 135.2 20.0258L135.2 20.0261C135.815 23.448 133.312 26.1951 130.435 27.6073C127.728 28.9357 124.641 29.3572 121.666 29.3912C121.401 29.394 121.136 29.3936 120.87 29.3905C120.731 29.1646 120.595 28.9365 120.462 28.7071C118.967 26.1349 117.747 23.2689 117.501 20.2631C117.239 17.0683 118.316 13.5124 121.569 12.2863C124.536 11.1694 127.453 13.4808 128.223 16.4411ZM99.0485 39.5033C97.0568 36.0561 92.3377 34.9635 88.4183 36.3825C86.9055 31.794 82.0742 28.4453 77.5112 30.5054C75.6233 31.3585 74.2572 32.7029 73.3273 34.3154C70.4541 32.8203 66.6448 33.8218 64.2407 36.3045C61.2582 33.2238 56.1116 32.4239 53.2736 35.8442C50.1618 39.597 51.3085 44.6854 53.8345 48.4049C56.2108 51.9044 59.6753 54.5582 63.2719 56.6623C63.5931 56.8498 63.9162 57.0339 64.2413 57.2134C64.5664 57.0333 64.8896 56.8498 65.2108 56.6623C68.3476 54.8272 71.384 52.5734 73.6855 49.7059C74.6908 52.0983 75.9972 54.3727 77.4239 56.5011C77.6577 56.8493 77.8952 57.195 78.137 57.537C78.5556 57.5152 78.9739 57.489 79.3921 57.4578C84.078 57.1037 88.9005 56.1275 93.0333 53.7601C94.7193 52.7943 96.2982 51.5242 97.5297 50.0243C99.0692 52.6293 101.784 54.5937 104.663 55.7521C109.083 57.5303 113.993 57.8346 118.683 57.5421C119.102 57.5156 119.52 57.4847 119.937 57.4483C120.129 57.0757 120.318 56.7012 120.501 56.3243C121.079 55.1373 121.619 53.9163 122.099 52.6685C122.804 54.3108 123.629 55.9005 124.515 57.4249C124.726 57.7873 124.941 58.1476 125.161 58.5043C125.58 58.5093 125.999 58.5099 126.418 58.5055C131.117 58.4518 135.992 57.7861 140.268 55.6879C144.813 53.4572 148.766 49.1182 147.795 43.7131L147.794 43.7128C146.909 38.7856 141.413 36.6997 136.774 38.0506C135.558 33.3748 130.95 29.7239 126.265 31.4881C124.488 32.1578 123.122 33.2677 122.112 34.6418C120.929 32.7632 119.204 31.2818 116.846 30.5871L116.845 30.5875C112.043 29.1728 107.717 33.1532 106.848 37.9062C104.096 37.3204 101.14 37.9184 99.0485 39.5033Z" fill="#6C9CFA"/>
<path fill-rule="evenodd" clip-rule="evenodd" d="M56.673 71.3402L44.3291 48.8179H102.692V48.8179H155.968L143.624 71.3402H97.6047V71.3402H56.673Z" fill="#A7C4FC"/>
</svg>
