<svg width="28" height="28" viewBox="0 0 28 28" fill="none" xmlns="http://www.w3.org/2000/svg">
<circle cx="9" cy="9" r="4" fill="#E2EBFE"/>
<circle cx="19" cy="9" r="4" fill="white"/>
<path d="M2 17C2 15.3431 3.34315 14 5 14H13C14.6569 14 16 15.3431 16 17V22C16 22.5523 15.5523 23 15 23H3C2.44772 23 2 22.5523 2 22V17Z" fill="white"/>
<path d="M12 17C12 15.3431 13.3431 14 15 14H23C24.6569 14 26 15.3431 26 17V22C26 22.5523 25.5523 23 25 23H13C12.4477 23 12 22.5523 12 22V17Z" fill="#E2EBFE"/>
</svg>
