<svg width="20" height="20" viewBox="0 0 20 20" fill="none" xmlns="http://www.w3.org/2000/svg">
<circle cx="10.0002" cy="10.0002" r="7.85714" fill="#6C9CFA"/>
<path fill-rule="evenodd" clip-rule="evenodd" d="M5.56912 10.3878C5.74936 10.3077 5.96042 10.3889 6.04053 10.5691L5.71417 10.7142C6.04053 10.5691 6.04044 10.5689 6.04035 10.5687L6.0402 10.5684L6.03996 10.5678L6.03972 10.5673C6.03968 10.5672 6.03986 10.5676 6.04028 10.5685L6.04559 10.5795C6.05103 10.5904 6.06032 10.6085 6.0738 10.6328C6.10076 10.6813 6.14434 10.7542 6.20713 10.8435C6.33278 11.022 6.53454 11.2648 6.83318 11.5092C7.42519 11.9936 8.41701 12.4999 9.99988 12.4999C11.5827 12.4999 12.5746 11.9936 13.1666 11.5092C13.4652 11.2648 13.667 11.022 13.7926 10.8435C13.8554 10.7542 13.899 10.6813 13.926 10.6328C13.9394 10.6085 13.9487 10.5904 13.9542 10.5795L13.9595 10.5685L13.9594 10.5687C14.0396 10.3888 14.2505 10.3078 14.4306 10.3878C14.6109 10.4679 14.6921 10.679 14.612 10.8592L14.2856 10.7142C14.612 10.8592 14.6119 10.8594 14.6118 10.8597L14.6115 10.8601L14.611 10.8613L14.6097 10.8641L14.606 10.8721C14.6031 10.8784 14.5991 10.8868 14.594 10.897C14.5839 10.9174 14.5694 10.9453 14.5504 10.9797C14.5122 11.0483 14.4554 11.1429 14.3768 11.2545C14.2197 11.4778 13.975 11.7706 13.6189 12.062C12.9014 12.6491 11.7503 13.2142 9.99988 13.2142C8.24941 13.2142 7.09838 12.6491 6.38087 12.062C6.02474 11.7706 5.78008 11.4778 5.62298 11.2545C5.54441 11.1429 5.48754 11.0483 5.4494 10.9797C5.43032 10.9453 5.4159 10.9174 5.40576 10.897C5.4007 10.8868 5.3967 10.8784 5.39372 10.8721L5.39001 10.8641L5.38872 10.8613L5.38822 10.8601L5.388 10.8597C5.3879 10.8594 5.3878 10.8592 5.71417 10.7142L5.3878 10.8592C5.3077 10.679 5.38887 10.4679 5.56912 10.3878ZM13.96 10.5673L13.9598 10.5678L13.9596 10.5684L13.9595 10.5685C13.9598 10.5678 13.96 10.5674 13.96 10.5673ZM13.96 10.5673C13.96 10.5673 13.96 10.5673 13.96 10.5673Z" fill="white"/>
<path fill-rule="evenodd" clip-rule="evenodd" d="M13.2357 6.95909C13.3372 7.12823 13.2824 7.34761 13.1132 7.44909L11.8379 8.21427L13.1132 8.97945C13.2824 9.08093 13.3372 9.30031 13.2357 9.46945C13.1342 9.63858 12.9149 9.69343 12.7457 9.59195L10.96 8.52052C10.8524 8.45597 10.7866 8.33972 10.7866 8.21427C10.7866 8.08882 10.8524 7.97257 10.96 7.90802L12.7457 6.83659C12.9149 6.73511 13.1342 6.78996 13.2357 6.95909Z" fill="white"/>
<path fill-rule="evenodd" clip-rule="evenodd" d="M6.37218 9.46962C6.2707 9.30048 6.32555 9.0811 6.49468 8.97962L7.76999 8.21444L6.49468 7.44926C6.32555 7.34778 6.2707 7.1284 6.37218 6.95926C6.47367 6.79013 6.69304 6.73528 6.86218 6.83677L8.64789 7.90819C8.75547 7.97274 8.82129 8.08899 8.82129 8.21444C8.82129 8.33989 8.75547 8.45614 8.64789 8.52069L6.86218 9.59212C6.69304 9.6936 6.47367 9.63875 6.37218 9.46962Z" fill="white"/>
</svg>
