<svg width="19" height="19" viewBox="0 0 19 19" fill="none" xmlns="http://www.w3.org/2000/svg">
<path fill-rule="evenodd" clip-rule="evenodd" d="M3.72768 1.65686C3.53694 1.65684 3.3554 1.65682 3.20243 1.66932C3.03563 1.68295 2.8443 1.71474 2.65306 1.81218C2.38493 1.9488 2.16694 2.16679 2.03032 2.43492C1.93288 2.62616 1.90109 2.81749 1.88746 2.98429C1.87496 3.13726 1.87498 3.3188 1.875 3.50954V11.6541C1.87498 11.8449 1.87496 12.0264 1.88746 12.1794C1.90109 12.3462 1.93288 12.5375 2.03032 12.7288C2.16694 12.9969 2.38493 13.2149 2.65306 13.3515C2.8443 13.4489 3.03563 13.4807 3.20243 13.4944C3.3554 13.5069 3.53694 13.5068 3.72768 13.5068H11.8723C12.063 13.5068 12.2446 13.5069 12.3975 13.4944C12.5643 13.4807 12.7557 13.4489 12.9469 13.3515C13.215 13.2149 13.433 12.9969 13.5696 12.7288C13.6671 12.5375 13.6989 12.3462 13.7125 12.1794C13.725 12.0264 13.725 11.8449 13.725 11.6541V3.50953C13.725 3.3188 13.725 3.13726 13.7125 2.98429C13.6989 2.81749 13.6671 2.62616 13.5696 2.43492C13.433 2.16679 13.215 1.9488 12.9469 1.81218C12.7557 1.71474 12.5643 1.68295 12.3975 1.66932C12.2446 1.65682 12.063 1.65684 11.8723 1.65686H3.72768ZM3.22499 3.08171C3.22499 3.04029 3.25856 3.00671 3.29999 3.00671H12.2999C12.3414 3.00671 12.3749 3.04029 12.3749 3.08171V12.0817C12.3749 12.1231 12.3414 12.1567 12.2999 12.1567H3.29999C3.25856 12.1567 3.22499 12.1231 3.22499 12.0817V3.08171ZM16.7125 15.1797C16.725 15.0267 16.725 14.8452 16.725 14.6544L16.725 6.83213L15.375 6.83242V15.0824C15.375 15.1238 15.3414 15.1574 15.3 15.1574H7.05001L7.05 16.5071L14.8723 16.5071C15.063 16.5071 15.2446 16.5071 15.3975 16.4946C15.5643 16.481 15.7557 16.4492 15.9469 16.3518C16.215 16.2152 16.433 15.9972 16.5696 15.729C16.6671 15.5378 16.6989 15.3465 16.7125 15.1797Z" fill="#212529"/>
</svg>
