<svg width="63" height="71" viewBox="0 0 63 71" fill="none" xmlns="http://www.w3.org/2000/svg">
<circle cx="43" cy="14" r="4.25" stroke="#D0D3DB" stroke-width="1.5"/>
<path fill-rule="evenodd" clip-rule="evenodd" d="M57.0203 16.6586L58.2512 12.6558L57.1876 12.3287L55.9567 16.3315L52.1597 15.164L51.8327 16.2276L55.6296 17.3951L54.4621 21.192L55.5257 21.5191L56.6932 17.7222L60.696 18.9531L61.0231 17.8895L57.0203 16.6586Z" fill="#D0D3DB"/>
<path d="M52.1198 3.27961C52.6425 2.53786 53.8034 2.81975 53.9278 3.71861L54.0612 4.68312C54.0992 4.95755 54.2493 5.20393 54.4757 5.36352L55.2717 5.9244C56.0134 6.4471 55.7315 7.60804 54.8327 7.73239L53.8681 7.86582C53.5937 7.90378 53.3473 8.05389 53.1878 8.28035L52.6269 9.07628C52.1042 9.81803 50.9432 9.53614 50.8189 8.63728L50.6855 7.67277C50.6475 7.39834 50.4974 7.15196 50.2709 6.99237L49.475 6.43149C48.7332 5.90879 49.0151 4.74785 49.914 4.6235L50.8785 4.49007C51.1529 4.45211 51.3993 4.302 51.5589 4.07554L52.1198 3.27961Z" fill="#D0D3DB"/>
<circle cx="25.5" cy="45.5" r="25.5" fill="#E4E7EE"/>
</svg>
