<svg width="41" height="41" viewBox="0 0 41 41" fill="none" xmlns="http://www.w3.org/2000/svg">
<path d="M6.69043 10.9286C6.69043 9.90288 7.5219 9.07141 8.54757 9.07141H32.4523C33.478 9.07141 34.3095 9.90288 34.3095 10.9286V11.9762C34.3095 13.0018 33.478 13.8333 32.4523 13.8333H8.54757C7.5219 13.8333 6.69043 13.0018 6.69043 11.9762V10.9286Z" fill="#A7C4FC"/>
<path d="M6.69043 19.9762C6.69043 18.9505 7.5219 18.1191 8.54757 18.1191H32.4523C33.478 18.1191 34.3095 18.9506 34.3095 19.9762V21.0238C34.3095 22.0495 33.478 22.881 32.4523 22.881H8.54757C7.5219 22.881 6.69043 22.0495 6.69043 21.0238V19.9762Z" fill="#6C9CFA"/>
<path d="M6.69043 29.0238C6.69043 27.9981 7.5219 27.1666 8.54757 27.1666H25.7857C26.8113 27.1666 27.6428 27.9981 27.6428 29.0238V30.0714C27.6428 31.0971 26.8113 31.9285 25.7857 31.9285H8.54757C7.5219 31.9285 6.69043 31.0971 6.69043 30.0714V29.0238Z" fill="#8C81F7"/>
</svg>
