<svg width="22" height="22" viewBox="0 0 22 22" fill="none" xmlns="http://www.w3.org/2000/svg">
<path d="M4.39221 15.6422H4.56797L6.5013 15.2907C7.38009 15.1149 8.171 14.6755 8.78615 14.0603L16.7831 6.15126C17.3104 5.71187 17.574 5.00884 17.574 4.30581C17.574 3.60278 17.3104 2.98762 16.7831 2.46035C15.8165 1.49368 14.1468 1.49368 13.0922 2.46035L5.09524 10.2816C4.48009 10.8967 4.0407 11.6876 3.86494 12.5664L3.51342 14.5876C3.42554 14.8513 3.51342 15.2028 3.77706 15.3785C3.95282 15.5543 4.12857 15.6422 4.39221 15.6422ZM14.3225 3.77853C14.4983 3.60278 14.7619 3.5149 14.9377 3.5149C15.2013 3.5149 15.3771 3.60278 15.5528 3.77853C15.7286 3.95429 15.8165 4.13005 15.8165 4.30581C15.8165 4.39368 15.8165 4.65732 15.5528 4.92096L15.2013 5.27247L13.971 4.13005L14.3225 3.77853ZM5.62251 13.0058C5.71039 12.4785 5.97403 12.0391 6.41342 11.5997L12.7407 5.36035L13.971 6.50278L7.64373 12.7422C7.29221 13.0937 6.76494 13.3573 6.23767 13.4452L5.53464 13.621L5.62251 13.0058ZM16.6952 16.6967H4.39221C3.86494 16.6967 3.51342 17.0482 3.51342 17.5755C3.51342 18.1028 3.86494 18.4543 4.39221 18.4543H16.6952C17.2225 18.4543 17.574 18.1028 17.574 17.5755C17.574 17.0482 17.2225 16.6967 16.6952 16.6967Z" fill="white"/>
</svg>
