<svg width="21" height="20" viewBox="0 0 21 20" fill="none" xmlns="http://www.w3.org/2000/svg">
<path d="M7.15 19.4966L12.35 10.4966C12.45 10.2966 12.45 10.1966 12.45 9.99659C12.45 9.79659 12.45 9.69659 12.35 9.49659L7.15 0.496587C7.05 0.296587 6.95 0.196586 6.75 0.0965859C6.25 -0.103415 5.65 -0.00341249 5.35 0.496588L0.15 9.49659C-0.0500004 9.79659 -0.0500004 10.1966 0.15 10.4966L5.35 19.4966C5.45 19.6966 5.55 19.7966 5.75 19.8966C6.25 20.0966 6.85 19.9966 7.15 19.4966ZM9.35 0.496587L9.25 0.696584L14.35 9.49659C14.55 9.79659 14.55 10.1966 14.35 10.4966L9.25 19.2966L9.35 19.4966C9.65 19.9966 10.25 20.0966 10.75 19.8966C10.95 19.7966 11.05 19.6966 11.15 19.4966L16.35 10.4966C16.55 10.1966 16.55 9.79659 16.35 9.49659L11.15 0.496587C10.85 -0.00341272 10.25 -0.103415 9.75 0.0965858C9.55 0.196586 9.45 0.296587 9.35 0.496587ZM13.35 0.496587L13.25 0.696584L18.35 9.49659C18.55 9.79659 18.55 10.1966 18.35 10.4966L13.25 19.2966L13.35 19.4966C13.65 19.9966 14.25 20.0966 14.75 19.8966C14.95 19.7966 15.05 19.6966 15.15 19.4966L20.35 10.4966C20.55 10.1966 20.55 9.79659 20.35 9.49659L15.15 0.496587C14.85 -0.0034129 14.25 -0.103415 13.75 0.0965856C13.55 0.196586 13.45 0.296586 13.35 0.496587Z" fill="#608DFF"/>
</svg>
