<svg width="21" height="20" viewBox="0 0 21 20" fill="none" xmlns="http://www.w3.org/2000/svg">
<path fill-rule="evenodd" clip-rule="evenodd" d="M4.92787 2.11963C4.73713 2.11961 4.5556 2.11959 4.40263 2.13209C4.23582 2.14572 4.04449 2.17751 3.85326 2.27495C3.58513 2.41157 3.36713 2.62956 3.23051 2.89769C3.13308 3.08892 3.10129 3.28026 3.08766 3.44706C3.07516 3.60003 3.07518 3.78157 3.0752 3.97231V12.1169C3.07518 12.3077 3.07516 12.4892 3.08766 12.6422C3.10129 12.809 3.13308 13.0003 3.23051 13.1915C3.36713 13.4597 3.58513 13.6776 3.85326 13.8143C4.04449 13.9117 4.23582 13.9435 4.40263 13.9571C4.5556 13.9696 4.73713 13.9696 4.92787 13.9696H13.0725C13.2632 13.9696 13.4448 13.9696 13.5977 13.9571C13.7645 13.9435 13.9559 13.9117 14.1471 13.8143C14.4152 13.6776 14.6332 13.4597 14.7698 13.1915C14.8673 13.0003 14.8991 12.809 14.9127 12.6422C14.9252 12.4892 14.9252 12.3077 14.9252 12.1169V3.9723C14.9252 3.78156 14.9252 3.60003 14.9127 3.44706C14.8991 3.28026 14.8673 3.08892 14.7698 2.89769C14.6332 2.62956 14.4152 2.41157 14.1471 2.27495C13.9559 2.17751 13.7645 2.14572 13.5977 2.13209C13.4448 2.11959 13.2632 2.11961 13.0725 2.11963H4.92787ZM4.42518 3.54448C4.42518 3.50306 4.45876 3.46948 4.50018 3.46948H13.5001C13.5416 3.46948 13.5751 3.50306 13.5751 3.54448V12.5444C13.5751 12.5859 13.5416 12.6194 13.5001 12.6194H4.50018C4.45876 12.6194 4.42518 12.5859 4.42518 12.5444V3.54448ZM17.9127 15.6424C17.9252 15.4895 17.9252 15.3079 17.9252 15.1172L17.9252 7.2949L16.5752 7.29519V15.5452C16.5752 15.5866 16.5416 15.6202 16.5002 15.6202H8.25021L8.25019 16.9699L16.0725 16.9699C16.2632 16.9699 16.4448 16.9699 16.5977 16.9574C16.7645 16.9438 16.9559 16.912 17.1471 16.8145C17.4152 16.6779 17.6332 16.4599 17.7698 16.1918C17.8673 16.0006 17.8991 15.8092 17.9127 15.6424Z" fill="currentColor"/>
</svg>
