<svg width="24" height="20" viewBox="0 0 24 20" fill="none" xmlns="http://www.w3.org/2000/svg">
<path d="M0 1.57857C0 0.706749 0.70675 0 1.57857 0H21.8976C22.7694 0 23.4762 0.706751 23.4762 1.57857V2.46905C23.4762 3.34087 22.7694 4.04762 21.8976 4.04762H1.57857C0.706752 4.04762 0 3.34087 0 2.46905V1.57857Z" fill="#E2EBFE"/>
<path d="M0 9.26908C0 8.39725 0.70675 7.69051 1.57857 7.69051H21.8976C22.7694 7.69051 23.4762 8.39726 23.4762 9.26908V10.1596C23.4762 11.0314 22.7694 11.7381 21.8976 11.7381H1.57857C0.706752 11.7381 0 11.0314 0 10.1596V9.26908Z" fill="#E2EBFE"/>
<path d="M0 16.9595C0 16.0877 0.706751 15.3809 1.57857 15.3809H16.231C17.1028 15.3809 17.8095 16.0877 17.8095 16.9595V17.85C17.8095 18.7218 17.1028 19.4285 16.231 19.4285H1.57857C0.706752 19.4285 0 18.7218 0 17.85V16.9595Z" fill="#E2EBFE"/>
</svg>
