<svg width="188" height="188" viewBox="0 0 188 188" fill="none" xmlns="http://www.w3.org/2000/svg">
<rect width="187.882" height="187.882" rx="34" fill="white"/>
<path fill-rule="evenodd" clip-rule="evenodd" d="M106 151.119C106 152.71 104.711 153.999 103.12 153.999H84.8801C83.2895 153.999 82.0001 152.71 82.0001 151.119L82.0001 122.842L53.2663 152.045C52.1507 153.179 50.3272 153.194 49.1935 152.078L36.1917 139.286C35.0579 138.17 35.0431 136.347 36.1586 135.213L64.9023 105.999H36.88C35.2894 105.999 34 104.71 34 103.119V84.8794C34 83.2889 35.2894 81.9994 36.88 81.9994H81.9997H82.0001H106V105.999L106 105.999V151.119Z" fill="#172031"/>
<path d="M81.9995 103.12C81.9995 104.71 83.2889 106 84.8795 106H151.12C152.71 106 154 104.71 154 103.12V84.8799C154 83.2893 152.71 81.9999 151.12 81.9999L106 81.9999L106 36.88C106 35.2894 104.71 34 103.12 34L84.8795 34C83.2889 34 81.9995 35.2894 81.9995 36.88L81.9995 103.12Z" fill="#6C9CFA"/>
</svg>
