<svg width="189" height="188" viewBox="0 0 189 188" fill="none" xmlns="http://www.w3.org/2000/svg">
    <rect x="0.882812" width="187.882" height="187.882" rx="34" fill="#6C9CFA"/>
    <path fill-rule="evenodd" clip-rule="evenodd" d="M82.884 82.0006H106.884V106.001L82.8844 106.001H106.884V151.12C106.884 152.711 105.595 154 104.004 154H85.7644C84.1738 154 82.8844 152.711 82.8844 151.12L82.8844 122.843L54.1505 152.046C53.035 153.18 51.2115 153.195 50.0777 152.079L37.0759 139.287C35.9421 138.171 35.9274 136.348 37.0429 135.214L65.7865 106.001H37.7643C36.1737 106.001 34.8843 104.711 34.8843 103.121V84.8806C34.8843 83.29 36.1737 82.0006 37.7643 82.0006L82.884 82.0006Z" fill="#172031"/>
    <path d="M82.8838 103.121C82.8838 104.711 84.1732 106.001 85.7638 106.001H152.004C153.595 106.001 154.884 104.711 154.884 103.121V84.8807C154.884 83.2901 153.595 82.0007 152.004 82.0007L106.884 82.0007L106.884 36.8808C106.884 35.2902 105.594 34.0008 104.004 34.0008L85.7638 34.0008C84.1732 34.0008 82.8838 35.2902 82.8838 36.8808L82.8838 103.121Z" fill="white"/>
    <path d="M83 82H107V106H85.2546C84.0094 106 83 104.991 83 103.745V82Z" fill="#A7C4FC"/>
</svg>
