<svg width="60" height="61" viewBox="0 0 60 61" fill="none" xmlns="http://www.w3.org/2000/svg">
<path fill-rule="evenodd" clip-rule="evenodd" d="M45.7118 0.97563C45.7118 1.91079 44.9537 2.66888 44.0185 2.66888C43.0833 2.66888 42.3253 1.91079 42.3253 0.97563V0.975464L40.0675 0.975464V0.975527C40.0675 1.91068 39.3094 2.66878 38.3742 2.66878C37.439 2.66878 36.681 1.91068 36.681 0.975527V0.975464L34.4234 0.975464V0.975527C34.4234 1.91068 33.6653 2.66878 32.7302 2.66878C31.795 2.66878 31.0369 1.91068 31.0369 0.975527V0.975464L28.7792 0.975464V0.975527C28.7792 1.91068 28.0211 2.66878 27.0859 2.66878C26.1508 2.66878 25.3927 1.91068 25.3927 0.975527V0.975464L23.1349 0.975464V0.975527C23.1349 1.91068 22.3768 2.66878 21.4416 2.66878C20.5065 2.66878 19.7484 1.91068 19.7484 0.975527V0.975464L17.4908 0.975464V0.975527C17.4908 1.91068 16.7327 2.66878 15.7976 2.66878C14.8624 2.66878 14.1043 1.91068 14.1043 0.975527V0.975464L11.8466 0.975464V0.975527C11.8466 1.91068 11.0885 2.66878 10.1533 2.66878C9.21818 2.66878 8.46008 1.91068 8.46008 0.975527V0.975464L6.20231 0.975464V0.975527C6.20231 1.91068 5.44422 2.66878 4.50906 2.66878C3.5739 2.66878 2.81581 1.91068 2.81581 0.975527V0.975464L0.558105 0.975464L0.558105 3.23317H0.558272C1.49343 3.23317 2.25152 3.99127 2.25152 4.92643C2.25152 5.86158 1.49343 6.61968 0.558272 6.61968H0.558105L0.558105 8.87739C0.558161 8.87739 0.558216 8.87739 0.558272 8.87739C1.49343 8.87739 2.25152 9.63548 2.25152 10.5706C2.25152 11.5058 1.49343 12.2639 0.558272 12.2639C0.558216 12.2639 0.558161 12.2639 0.558105 12.2639L0.558105 14.5215H0.558272C1.49343 14.5215 2.25152 15.2796 2.25152 16.2148C2.25152 17.15 1.49343 17.9081 0.558272 17.9081H0.558105L0.558105 20.1657H0.558272C1.49343 20.1657 2.25152 20.9237 2.25152 21.8589C2.25152 22.7941 1.49343 23.5522 0.558272 23.5522H0.558105L0.558105 25.81H0.558272C1.49343 25.81 2.25152 26.5681 2.25152 27.5032C2.25152 28.4384 1.49343 29.1965 0.558272 29.1965H0.558105L0.558105 31.454H0.558272C1.49343 31.454 2.25152 32.2121 2.25152 33.1473C2.25152 34.0824 1.49343 34.8405 0.558272 34.8405H0.558105L0.558105 37.0982H0.558272C1.49343 37.0982 2.25152 37.8563 2.25152 38.7915C2.25152 39.7266 1.49343 40.4847 0.558272 40.4847H0.558105L0.558105 42.7423H0.558272C1.49343 42.7423 2.25152 43.5004 2.25152 44.4356C2.25152 45.3707 1.49343 46.1288 0.558272 46.1288H0.558105L0.558105 48.3865H0.558272C1.49343 48.3865 2.25152 49.1446 2.25152 50.0798C2.25152 51.0149 1.49343 51.773 0.558272 51.773H0.558105L0.558105 54.0306H0.558272C1.49343 54.0306 2.25152 54.7887 2.25152 55.7239C2.25152 56.659 1.49343 57.4171 0.558272 57.4171H0.558105L0.558105 60.2393H2.81581C2.81585 59.3041 3.57393 58.5461 4.50906 58.5461C5.44419 58.5461 6.20227 59.3041 6.20231 60.2393H8.46008C8.46013 59.3041 9.21821 58.5461 10.1533 58.5461C11.0885 58.5461 11.8465 59.3041 11.8466 60.2393H14.1043C14.1044 59.3041 14.8625 58.5461 15.7976 58.5461C16.7327 58.5461 17.4908 59.3041 17.4908 60.2393H19.7484C19.7484 59.3041 20.5065 58.5461 21.4416 58.5461C22.3768 58.5461 23.1349 59.3041 23.1349 60.2393H25.3927C25.3927 59.3041 26.1508 58.5461 27.0859 58.5461C28.021 58.5461 28.7791 59.3041 28.7792 60.2393H31.0369C31.037 59.3041 31.795 58.5461 32.7302 58.5461C33.6653 58.5461 34.4234 59.3041 34.4234 60.2393H36.681C36.681 59.3041 37.4391 58.5461 38.3742 58.5461C39.3093 58.5461 40.0674 59.3041 40.0675 60.2393H42.3253C42.3253 59.3041 43.0834 58.5461 44.0185 58.5461C44.9536 58.5461 45.7117 59.3041 45.7118 60.2393H47.9691C47.9691 59.3041 48.7272 58.5461 49.6623 58.5461C50.5975 58.5461 51.3555 59.3041 51.3556 60.2393H53.6136C53.6136 59.3041 54.3717 58.5461 55.3068 58.5461C56.2419 58.5461 57 59.3041 57.0001 60.2393H59.8219V57.4172C58.8868 57.4171 58.1288 56.659 58.1288 55.7239C58.1288 54.7888 58.8868 54.0308 59.8219 54.0307V51.773C58.8868 51.7729 58.1288 51.0149 58.1288 50.0798C58.1288 49.1447 58.8868 48.3866 59.8219 48.3865V46.1288C58.8868 46.1287 58.1288 45.3707 58.1288 44.4356C58.1288 43.5005 58.8868 42.7424 59.8219 42.7423V40.4847C58.8868 40.4846 58.1288 39.7266 58.1288 38.7915C58.1288 37.8564 58.8868 37.0983 59.8219 37.0982V34.8406C58.8868 34.8405 58.1288 34.0824 58.1288 33.1473C58.1288 32.2122 58.8868 31.4542 59.8219 31.4541V29.1965C58.8868 29.1964 58.1288 28.4383 58.1288 27.5032C58.1288 26.5681 58.8868 25.8101 59.8219 25.81V23.5523C58.8868 23.5522 58.1288 22.7941 58.1288 21.859C58.1288 20.9239 58.8868 20.1658 59.8219 20.1657V17.9081C58.8868 17.908 58.1288 17.1499 58.1288 16.2148C58.1288 15.2797 58.8868 14.5216 59.8219 14.5215V12.2638C58.8868 12.2637 58.1288 11.5056 58.1288 10.5705C58.1288 9.63544 58.8868 8.87738 59.8219 8.87728V6.61978C58.8868 6.61968 58.1288 5.86163 58.1288 4.92653C58.1288 3.99143 58.8868 3.23338 59.8219 3.23328V0.975464L57.0001 0.975464V0.975527C57.0001 1.91068 56.242 2.66878 55.3068 2.66878C54.3716 2.66878 53.6136 1.91068 53.6136 0.975527V0.975464L51.3556 0.975464V0.975527C51.3556 1.91068 50.5975 2.66878 49.6623 2.66878C48.7272 2.66878 47.9691 1.91068 47.9691 0.975527V0.975464L45.7118 0.975464V0.97563Z" fill="white"/>
<rect x="5.07349" y="5.49084" width="50.2331" height="50.2331" fill="#6C9CFA"/>
</svg>
