<svg width="60" height="61" viewBox="0 0 60 61" fill="none" xmlns="http://www.w3.org/2000/svg">
    <path fill-rule="evenodd" clip-rule="evenodd" d="M45.7118 0.974775C45.7118 1.90993 44.9537 2.66803 44.0185 2.66803C43.0833 2.66803 42.3253 1.90993 42.3253 0.974775V0.974609L40.0675 0.974609V0.974672C40.0675 1.90983 39.3094 2.66792 38.3742 2.66792C37.439 2.66792 36.681 1.90983 36.681 0.974672V0.974609L34.4234 0.974609V0.974672C34.4234 1.90983 33.6653 2.66792 32.7302 2.66792C31.795 2.66792 31.0369 1.90983 31.0369 0.974672V0.974609L28.7792 0.974609V0.974672C28.7792 1.90983 28.0211 2.66792 27.0859 2.66792C26.1508 2.66792 25.3927 1.90983 25.3927 0.974672V0.974609L23.1349 0.974609V0.974672C23.1349 1.90983 22.3768 2.66792 21.4416 2.66792C20.5065 2.66792 19.7484 1.90983 19.7484 0.974672V0.974609L17.4908 0.974609V0.974672C17.4908 1.90983 16.7327 2.66792 15.7976 2.66792C14.8624 2.66792 14.1043 1.90983 14.1043 0.974672V0.974609L11.8466 0.974609V0.974672C11.8466 1.90983 11.0885 2.66792 10.1533 2.66792C9.21818 2.66792 8.46008 1.90983 8.46008 0.974672V0.974609L6.20231 0.974609V0.974672C6.20231 1.90983 5.44422 2.66792 4.50906 2.66792C3.5739 2.66792 2.81581 1.90983 2.81581 0.974672V0.974609L0.558105 0.974609L0.558105 3.23232H0.558272C1.49343 3.23232 2.25152 3.99041 2.25152 4.92557C2.25152 5.86073 1.49343 6.61882 0.558272 6.61882H0.558105L0.558105 8.87654C0.558161 8.87654 0.558216 8.87654 0.558272 8.87654C1.49343 8.87654 2.25152 9.63463 2.25152 10.5698C2.25152 11.5049 1.49343 12.263 0.558272 12.263C0.558216 12.263 0.558161 12.263 0.558105 12.263L0.558105 14.5207H0.558272C1.49343 14.5207 2.25152 15.2788 2.25152 16.2139C2.25152 17.1491 1.49343 17.9072 0.558272 17.9072H0.558105L0.558105 20.1648H0.558272C1.49343 20.1648 2.25152 20.9229 2.25152 21.858C2.25152 22.7932 1.49343 23.5513 0.558272 23.5513H0.558105L0.558105 25.8091H0.558272C1.49343 25.8091 2.25152 26.5672 2.25152 27.5024C2.25152 28.4375 1.49343 29.1956 0.558272 29.1956H0.558105L0.558105 31.4532H0.558272C1.49343 31.4532 2.25152 32.2113 2.25152 33.1464C2.25152 34.0816 1.49343 34.8397 0.558272 34.8397H0.558105L0.558105 37.0974H0.558272C1.49343 37.0974 2.25152 37.8555 2.25152 38.7906C2.25152 39.7258 1.49343 40.4839 0.558272 40.4839H0.558105L0.558105 42.7415H0.558272C1.49343 42.7415 2.25152 43.4996 2.25152 44.4347C2.25152 45.3699 1.49343 46.128 0.558272 46.128H0.558105L0.558105 48.3857H0.558272C1.49343 48.3857 2.25152 49.1438 2.25152 50.0789C2.25152 51.0141 1.49343 51.7722 0.558272 51.7722H0.558105L0.558105 54.0298H0.558272C1.49343 54.0298 2.25152 54.7878 2.25152 55.723C2.25152 56.6582 1.49343 57.4163 0.558272 57.4163H0.558105L0.558105 60.2384H2.81581C2.81585 59.3033 3.57393 58.5452 4.50906 58.5452C5.44419 58.5452 6.20227 59.3033 6.20231 60.2384H8.46008C8.46013 59.3033 9.21821 58.5452 10.1533 58.5452C11.0885 58.5452 11.8465 59.3033 11.8466 60.2384H14.1043C14.1044 59.3033 14.8625 58.5452 15.7976 58.5452C16.7327 58.5452 17.4908 59.3033 17.4908 60.2384H19.7484C19.7484 59.3033 20.5065 58.5452 21.4416 58.5452C22.3768 58.5452 23.1349 59.3033 23.1349 60.2384H25.3927C25.3927 59.3033 26.1508 58.5452 27.0859 58.5452C28.021 58.5452 28.7791 59.3033 28.7792 60.2384H31.0369C31.037 59.3033 31.795 58.5452 32.7302 58.5452C33.6653 58.5452 34.4234 59.3033 34.4234 60.2384H36.681C36.681 59.3033 37.4391 58.5452 38.3742 58.5452C39.3093 58.5452 40.0674 59.3033 40.0675 60.2384H42.3253C42.3253 59.3033 43.0834 58.5452 44.0185 58.5452C44.9536 58.5452 45.7117 59.3033 45.7118 60.2384H47.9691C47.9691 59.3033 48.7272 58.5452 49.6623 58.5452C50.5975 58.5452 51.3555 59.3033 51.3556 60.2384H53.6136C53.6136 59.3033 54.3717 58.5452 55.3068 58.5452C56.2419 58.5452 57 59.3033 57.0001 60.2384H59.8219V57.4163C58.8868 57.4162 58.1288 56.6582 58.1288 55.7231C58.1288 54.788 58.8868 54.0299 59.8219 54.0298V51.7722C58.8868 51.7721 58.1288 51.014 58.1288 50.0789C58.1288 49.1438 58.8868 48.3858 59.8219 48.3857V46.128C58.8868 46.1279 58.1288 45.3698 58.1288 44.4347C58.1288 43.4996 58.8868 42.7416 59.8219 42.7415V40.4839C58.8868 40.4838 58.1288 39.7257 58.1288 38.7906C58.1288 37.8555 58.8868 37.0975 59.8219 37.0974V34.8397C58.8868 34.8396 58.1288 34.0816 58.1288 33.1465C58.1288 32.2114 58.8868 31.4533 59.8219 31.4532V29.1956C58.8868 29.1955 58.1288 28.4374 58.1288 27.5024C58.1288 26.5673 58.8868 25.8092 59.8219 25.8091V23.5514C58.8868 23.5513 58.1288 22.7932 58.1288 21.8581C58.1288 20.923 58.8868 20.165 59.8219 20.1649V17.9072C58.8868 17.9071 58.1288 17.149 58.1288 16.2139C58.1288 15.2788 58.8868 14.5208 59.8219 14.5207V12.2629C58.8868 12.2628 58.1288 11.5048 58.1288 10.5697C58.1288 9.63458 58.8868 8.87652 59.8219 8.87643V6.61893C58.8868 6.61883 58.1288 5.86077 58.1288 4.92567C58.1288 3.99058 58.8868 3.23252 59.8219 3.23242V0.974609L57.0001 0.974609V0.974672C57.0001 1.90983 56.242 2.66792 55.3068 2.66792C54.3716 2.66792 53.6136 1.90983 53.6136 0.974672V0.974609L51.3556 0.974609V0.974672C51.3556 1.90983 50.5975 2.66792 49.6623 2.66792C48.7272 2.66792 47.9691 1.90983 47.9691 0.974672V0.974609L45.7118 0.974609V0.974775Z" fill="white"/>
    <rect x="5.07349" y="5.49023" width="50.2331" height="50.2331" fill="#6C9CFA"/>
    <rect x="12.4114" y="12.8281" width="23.1706" height="23.1705" fill="#212529"/>
    <rect x="16.2725" y="15.9883" width="23.1706" height="23.1705" fill="#212529"/>
    <rect x="20.1353" y="20.2012" width="23.1706" height="23.1705" fill="#212529"/>
    <rect x="23.9961" y="24.0625" width="23.1706" height="23.5215" fill="#212529"/>
    <path d="M28.9124 16.6895L28.9124 31.4343H36.2848" stroke="white" stroke-width="2.1834"/>
</svg>
