<svg width="20" height="21" viewBox="0 0 20 21" fill="none" xmlns="http://www.w3.org/2000/svg">
<path d="M5.83333 8.41668C5.3731 8.41668 5 8.78977 5 9.25001C5 9.71025 5.3731 10.0833 5.83333 10.0833H14.1667C14.6269 10.0833 15 9.71025 15 9.25001C15 8.78977 14.6269 8.41668 14.1667 8.41668H5.83333Z" fill="currentColor"/>
<path fill-rule="evenodd" clip-rule="evenodd" d="M7.5 3.41668C7.5 2.95644 7.1269 2.58334 6.66667 2.58334C6.20643 2.58334 5.83333 2.95644 5.83333 3.41668V4.25001H5C3.61929 4.25001 2.5 5.3693 2.5 6.75001V15.9167C2.5 17.2974 3.61929 18.4167 5 18.4167H15C16.3807 18.4167 17.5 17.2974 17.5 15.9167V6.75001C17.5 5.3693 16.3807 4.25001 15 4.25001H14.1667V3.41668C14.1667 2.95644 13.7936 2.58334 13.3333 2.58334C12.8731 2.58334 12.5 2.95644 12.5 3.41668V4.25001H7.5V3.41668ZM5 5.91668H5.83333C5.83333 6.37691 6.20643 6.75001 6.66667 6.75001C7.1269 6.75001 7.5 6.37691 7.5 5.91668H12.5C12.5 6.37691 12.8731 6.75001 13.3333 6.75001C13.7936 6.75001 14.1667 6.37691 14.1667 5.91668H15C15.4602 5.91668 15.8333 6.28977 15.8333 6.75001V15.9167C15.8333 16.3769 15.4602 16.75 15 16.75H5C4.53976 16.75 4.16667 16.3769 4.16667 15.9167V6.75001C4.16667 6.28977 4.53976 5.91668 5 5.91668Z" fill="currentColor"/>
</svg>
