<svg width="143" height="87" viewBox="0 0 143 87" fill="none" xmlns="http://www.w3.org/2000/svg">
<rect y="34.4952" width="133.279" height="54" rx="8" transform="rotate(-15 0 34.4952)" fill="#212529"/>
<path d="M38.3338 59.0593L33.942 42.6688L44.9445 39.7207L45.6967 42.5279L38.09 44.5661L39.1576 48.5505L46.1983 46.664L46.9505 49.4712L39.9098 51.3578L40.9775 55.3422L48.6068 53.2979L49.3589 56.1052L38.3338 59.0593ZM52.3808 55.2955L49.0869 43.0025L52.279 42.1472L52.8553 44.2979L52.9911 44.2615C53.1266 42.6844 54.1382 41.4792 55.7908 41.0364C57.4774 40.5845 58.9735 41.142 59.7601 42.4478L59.8733 42.4174C60.0096 40.8887 61.1676 39.5957 62.9674 39.1134C65.2426 38.5038 67.242 39.5816 67.9608 42.2643L70.175 50.5275L66.8244 51.4253L64.7862 43.8186C64.4214 42.412 63.4018 41.9573 62.3038 42.2515C61.0474 42.5881 60.5338 43.6599 60.8939 44.9586L62.9079 52.4747L59.6479 53.3483L57.5854 45.651C57.2722 44.4368 56.2932 43.862 55.1499 44.1684C54.0067 44.4747 53.3694 45.6281 53.7538 47.0174L55.7313 54.3977L52.3808 55.2955ZM74.4569 54.3301L69.9256 37.4188L73.2308 36.5332L73.7828 38.5933L73.9187 38.5569C74.1159 37.4365 74.7618 35.9531 76.8332 35.3981C79.5499 34.6702 82.3892 36.1659 83.5062 40.3798C84.6185 44.4857 83.0314 47.301 80.2242 48.0532C78.2206 48.5901 76.8812 47.7115 76.1328 46.8201L76.0422 46.8444L77.8075 53.4323L74.4569 54.3301ZM74.8521 42.6744C75.4352 44.8961 76.7773 46.1015 78.4443 45.6669C80.1505 45.1976 80.6753 43.4434 80.0817 41.2731C79.5198 39.1307 78.2169 37.8905 76.485 38.3546C74.8097 38.8035 74.2493 40.4701 74.8521 42.6744ZM90.9679 31.7806L91.6413 34.2935L89.3321 34.9122L90.9396 40.9115C91.1922 41.8993 91.7426 42.0066 92.4278 41.8473C92.7674 41.7563 93.3469 41.5646 93.7453 41.4215L94.4551 44.0702C94.108 44.2239 93.5263 44.4525 92.6969 44.6626C90.2776 45.323 88.3338 44.6792 87.7165 42.2847L85.9816 35.81L84.2836 36.2649L83.6103 33.752L85.3082 33.2971L84.5196 30.354L87.8702 29.4562L88.6588 32.3993L90.9679 31.7806ZM100.038 47.4757C99.3784 47.6403 98.7641 47.7927 98.3218 47.8627L97.6242 45.2592C98.0635 45.1779 98.5759 45.0528 98.9947 44.9406C99.6625 44.7616 100.176 44.5511 100.299 43.3779L100.363 42.8026L92.5635 31.353L96.0726 30.4128L101.08 38.7768L101.216 38.7404L101.393 28.9873L104.947 28.0349L103.805 42.9721C103.634 45.1411 102.627 46.7698 100.038 47.4757Z" fill="white"/>
</svg>
