<svg width="106" height="154" viewBox="0 0 106 154" fill="none" xmlns="http://www.w3.org/2000/svg">
<path d="M6.97216 131.079L6.12988 130.54L5.99352 130.754L5.97488 131.006L6.97216 131.079ZM5.42254 152.052L4.42526 151.978L4.28168 153.922L5.94413 152.905L5.42254 152.052ZM24.7947 103.231L25.6369 103.77L26.3583 102.643L25.073 102.271L24.7947 103.231ZM5.29524 97.581L4.29696 97.6397L4.33844 98.3448L5.01691 98.5414L5.29524 97.581ZM2 41.5619L1.91907 40.5652L0.944297 40.6444L1.00173 41.6206L2 41.5619ZM67.6752 36.2293L67.7562 37.226L68.2503 37.1859L68.5175 36.7684L67.6752 36.2293ZM87.0207 6.00157L86.1784 5.46252L86.1784 5.46252L87.0207 6.00157ZM100.143 3.12089L100.682 2.27862L100.682 2.27862L100.143 3.12089ZM103.024 16.2435L102.182 15.7044L102.182 15.7044L103.024 16.2435ZM80.4789 51.4707L79.6366 50.9316L79.4538 51.2172L79.4824 51.5551L80.4789 51.4707ZM85.699 113.069L85.7578 114.067L86.7821 114.007L86.6955 112.984L85.699 113.069ZM63.2914 114.387L63.0131 115.347L63.1784 115.395L63.3501 115.385L63.2914 114.387ZM43.8236 108.745L44.102 107.785L43.3842 107.577L42.9814 108.206L43.8236 108.745ZM22.9754 141.321L23.497 142.175L23.6935 142.054L23.8177 141.86L22.9754 141.321ZM5.97488 131.006L5.78117 133.627L7.77574 133.775L7.96944 131.153L5.97488 131.006ZM5.39377 138.871L5.00637 144.114L7.00093 144.261L7.38833 139.018L5.39377 138.871ZM4.61896 149.357L4.42526 151.978L6.41982 152.126L6.61352 149.504L4.61896 149.357ZM5.94413 152.905L8.13824 151.564L7.09506 149.858L4.90095 151.199L5.94413 152.905ZM12.5264 148.881L16.9147 146.199L15.8715 144.492L11.4833 147.175L12.5264 148.881ZM21.3029 143.516L23.497 142.175L22.4538 140.468L20.2597 141.81L21.3029 143.516ZM23.8177 141.86L25.555 139.146L23.8705 138.068L22.1331 140.782L23.8177 141.86ZM29.0297 133.716L32.5044 128.287L30.8199 127.209L27.3452 132.638L29.0297 133.716ZM35.9791 122.858L39.4539 117.428L37.7693 116.35L34.2946 121.78L35.9791 122.858ZM42.9286 111.999L44.6659 109.284L42.9814 108.206L41.244 110.921L42.9286 111.999ZM43.5453 109.706L45.9788 110.411L46.5354 108.49L44.102 107.785L43.5453 109.706ZM50.8457 111.821L55.7127 113.232L56.2693 111.311L51.4024 109.9L50.8457 111.821ZM60.5796 114.642L63.0131 115.347L63.5697 113.426L61.1363 112.721L60.5796 114.642ZM63.3501 115.385L66.1511 115.22L66.0336 113.224L63.2327 113.388L63.3501 115.385ZM71.753 114.891L77.3549 114.561L77.2375 112.565L71.6355 112.894L71.753 114.891ZM82.9568 114.232L85.7578 114.067L85.6403 112.07L82.8394 112.235L82.9568 114.232ZM86.6955 112.984L86.4344 109.904L84.4416 110.073L84.7026 113.153L86.6955 112.984ZM85.9124 103.744L85.3904 97.5846L83.3976 97.7535L83.9196 103.913L85.9124 103.744ZM84.8684 91.4249L84.3464 85.2651L82.3535 85.434L82.8755 91.5937L84.8684 91.4249ZM83.8244 79.1053L83.3024 72.9455L81.3095 73.1144L81.8315 79.2742L83.8244 79.1053ZM82.7803 66.7857L82.2583 60.6259L80.2655 60.7948L80.7875 66.9546L82.7803 66.7857ZM81.7363 54.4661L81.4753 51.3862L79.4824 51.5551L79.7434 54.635L81.7363 54.4661ZM81.3211 52.0097L83.1999 49.0741L81.5153 47.996L79.6366 50.9316L81.3211 52.0097ZM86.9574 43.2029L90.7149 37.3317L89.0304 36.2536L85.2728 42.1248L86.9574 43.2029ZM94.4724 31.4605L98.2299 25.5893L96.5454 24.5112L92.7879 30.3824L94.4724 31.4605ZM101.987 19.7181L103.866 16.7825L102.182 15.7044L100.303 18.64L101.987 19.7181ZM103.866 16.7825C104.633 15.5849 105.126 14.2882 105.361 12.9673L103.392 12.6167C103.203 13.6834 102.804 14.7321 102.182 15.7044L103.866 16.7825ZM103.638 5.11675C102.871 4.01574 101.88 3.04507 100.682 2.27862L99.6042 3.96317C100.576 4.58543 101.378 5.37078 101.997 6.25984L103.638 5.11675ZM100.682 2.27862C99.4847 1.51216 98.188 1.01851 96.867 0.783309L96.5164 2.75234C97.5831 2.94227 98.6319 3.34091 99.6042 3.96317L100.682 2.27862ZM89.0165 2.50666C87.9155 3.27354 86.9448 4.26492 86.1784 5.46252L87.8629 6.54061C88.4852 5.56832 89.2705 4.76705 90.1596 4.14779L89.0165 2.50666ZM86.1784 5.46252L84.5663 7.9815L86.2508 9.05959L87.8629 6.54061L86.1784 5.46252ZM81.342 13.0195L78.1178 18.0574L79.8023 19.1355L83.0266 14.0976L81.342 13.0195ZM74.8935 23.0954L71.6693 28.1333L73.3539 29.2114L76.5781 24.1735L74.8935 23.0954ZM68.4451 33.1713L66.8329 35.6903L68.5175 36.7684L70.1296 34.2494L68.4451 33.1713ZM67.5943 35.2326L64.3105 35.4992L64.4724 37.4927L67.7562 37.226L67.5943 35.2326ZM57.743 36.0325L51.1755 36.5658L51.3373 38.5592L57.9049 38.0259L57.743 36.0325ZM44.608 37.099L38.0404 37.6323L38.2023 39.6257L44.7698 39.0925L44.608 37.099ZM31.4729 38.1655L24.9054 38.6988L25.0673 40.6922L31.6348 40.159L31.4729 38.1655ZM18.3379 39.2321L11.7704 39.7653L11.9322 41.7588L18.4997 41.2255L18.3379 39.2321ZM5.20283 40.2986L1.91907 40.5652L2.08093 42.5586L5.36469 42.292L5.20283 40.2986ZM1.00173 41.6206L1.16649 44.4216L3.16304 44.3042L2.99827 41.5032L1.00173 41.6206ZM1.49601 50.0235L1.82553 55.6254L3.82208 55.508L3.49256 49.9061L1.49601 50.0235ZM2.15506 61.2273L2.48458 66.8292L4.48113 66.7118L4.15161 61.1099L2.15506 61.2273ZM2.81411 72.4311L3.14363 78.033L5.14018 77.9156L4.81066 72.3137L2.81411 72.4311ZM3.47315 83.6349L3.80268 89.2368L5.79923 89.1194L5.4697 83.5175L3.47315 83.6349ZM4.1322 94.8387L4.29696 97.6397L6.29351 97.5222L6.12875 94.7213L4.1322 94.8387ZM5.01691 98.5414L7.45434 99.2477L8.01099 97.3268L5.57356 96.6205L5.01691 98.5414ZM12.3292 100.66L17.2041 102.073L17.7607 100.152L12.8858 98.7394L12.3292 100.66ZM22.0789 103.486L24.5163 104.192L25.073 102.271L22.6356 101.565L22.0789 103.486ZM23.9524 102.692L22.4672 105.013L24.1517 106.091L25.6369 103.77L23.9524 102.692ZM19.4968 109.654L16.5263 114.296L18.2109 115.374L21.1813 110.732L19.4968 109.654ZM13.5559 118.937L10.5855 123.578L12.2701 124.657L15.2405 120.015L13.5559 118.937ZM7.61509 128.22L6.12988 130.54L7.81443 131.619L9.29964 129.298L7.61509 128.22Z" fill="#A7C4FC"/>
</svg>
