<svg width="108" height="127" viewBox="0 0 108 127" fill="none" xmlns="http://www.w3.org/2000/svg">
<path d="M69.3518 3.96457L69.0929 2.99865L69.0929 2.99865L69.3518 3.96457ZM72.2134 4.55018L71.5964 5.33718L71.9896 5.64541L72.4722 5.5161L72.2134 4.55018ZM4.15331 21.4344L4.41213 22.4004L4.41213 22.4004L4.15331 21.4344ZM1.84449 25.4334L2.81042 25.1746L2.81042 25.1746L1.84449 25.4334ZM27.9927 123.02L27.0268 123.279L27.0268 123.279L27.9927 123.02ZM31.9917 125.329L32.2505 126.295L32.2505 126.295L31.9917 125.329ZM97.1902 107.859L97.449 108.825L97.449 108.825L97.1902 107.859ZM99.459 105.689L99.2002 104.723L98.6712 104.864L98.5058 105.387L99.459 105.689ZM104.418 104.36L104.676 105.326L104.676 105.326L104.418 104.36ZM106.726 100.361L105.761 100.62L105.761 100.62L106.726 100.361ZM87.2242 27.5775L86.9654 26.6116L85.9995 26.8704L86.2583 27.8363L87.2242 27.5775ZM89.7014 26.9138L89.4426 25.9478L89.4426 25.9478L89.7014 26.9138ZM91.5489 23.7138L90.583 23.9726L90.583 23.9726L91.5489 23.7138ZM86.3644 4.36502L87.3304 4.1062L87.3304 4.1062L86.3644 4.36502ZM82.0978 1.90167L82.3566 2.8676L82.3566 2.8676L82.0978 1.90167ZM77.319 3.18215L77.5761 4.14854L77.5778 4.14808L77.319 3.18215ZM77.308 3.18509L77.0508 2.2187L77.0491 2.21916L77.308 3.18509ZM69.0929 2.99865L66.3763 3.72656L66.894 5.65841L69.6106 4.9305L69.0929 2.99865ZM60.9431 5.18238L55.5099 6.6382L56.0276 8.57005L61.4608 7.11423L60.9431 5.18238ZM50.0767 8.09402L44.6435 9.54985L45.1612 11.4817L50.5944 10.0259L50.0767 8.09402ZM39.2103 11.0057L33.7771 12.4615L34.2948 14.3933L39.728 12.9375L39.2103 11.0057ZM28.3439 13.9173L22.9107 15.3731L23.4283 17.305L28.8615 15.8492L28.3439 13.9173ZM17.4775 16.829L12.0443 18.2848L12.5619 20.2166L17.9951 18.7608L17.4775 16.829ZM6.6111 19.7406L3.89449 20.4685L4.41213 22.4004L7.12874 21.6725L6.6111 19.7406ZM3.89449 20.4685C1.61917 21.0782 0.268894 23.4169 0.878564 25.6923L2.81042 25.1746C2.48663 23.9662 3.20374 22.7242 4.41213 22.4004L3.89449 20.4685ZM0.878564 25.6923L1.6957 28.7418L3.62755 28.2242L2.81042 25.1746L0.878564 25.6923ZM3.32996 34.841L4.96423 40.9402L6.89608 40.4225L5.26181 34.3234L3.32996 34.841ZM6.59849 47.0393L8.23276 53.1385L10.1646 52.6208L8.53034 46.5217L6.59849 47.0393ZM9.86702 59.2376L11.5013 65.3368L13.4331 64.8192L11.7989 58.72L9.86702 59.2376ZM13.1356 71.436L14.7698 77.5351L16.7017 77.0175L15.0674 70.9183L13.1356 71.436ZM16.4041 83.6343L18.0383 89.7335L19.9702 89.2158L18.3359 83.1167L16.4041 83.6343ZM19.6726 95.8326L21.3069 101.932L23.2387 101.414L21.6045 95.315L19.6726 95.8326ZM22.9411 108.031L24.5754 114.13L26.5073 113.612L24.873 107.513L22.9411 108.031ZM26.2097 120.229L27.0268 123.279L28.9587 122.761L28.1415 119.712L26.2097 120.229ZM27.0268 123.279C27.6365 125.554 29.9752 126.904 32.2505 126.295L31.7329 124.363C30.5245 124.687 29.2824 123.97 28.9587 122.761L27.0268 123.279ZM32.2505 126.295L34.9672 125.567L34.4495 123.635L31.7329 124.363L32.2505 126.295ZM40.4004 124.111L45.8336 122.655L45.3159 120.723L39.8827 122.179L40.4004 124.111ZM51.2668 121.199L56.7 119.744L56.1823 117.812L50.7491 119.268L51.2668 121.199ZM62.1332 118.288L67.5664 116.832L67.0487 114.9L61.6155 116.356L62.1332 118.288ZM72.9996 115.376L78.4328 113.92L77.9151 111.988L72.4819 113.444L72.9996 115.376ZM83.866 112.464L89.2992 111.009L88.7816 109.077L83.3483 110.533L83.866 112.464ZM94.7324 109.553L97.449 108.825L96.9314 106.893L94.2147 107.621L94.7324 109.553ZM97.449 108.825C97.8005 108.731 98.1313 108.595 98.4366 108.423L97.457 106.679C97.296 106.77 97.1203 106.842 96.9314 106.893L97.449 108.825ZM99.9663 106.959C100.154 106.657 100.304 106.332 100.412 105.991L98.5058 105.387C98.4483 105.568 98.3683 105.741 98.2681 105.902L99.9663 106.959ZM99.7179 106.655L100.958 106.322L100.44 104.39L99.2002 104.723L99.7179 106.655ZM103.437 105.658L104.676 105.326L104.159 103.394L102.919 103.726L103.437 105.658ZM104.676 105.326C105.233 105.177 105.737 104.923 106.17 104.59L104.952 103.004C104.724 103.179 104.457 103.314 104.159 103.394L104.676 105.326ZM107.802 101.763C107.874 101.222 107.842 100.659 107.692 100.102L105.761 100.62C105.841 100.918 105.857 101.216 105.819 101.501L107.802 101.763ZM107.692 100.102L106.88 97.0695L104.948 97.5871L105.761 100.62L107.692 100.102ZM105.255 91.0042L103.629 84.9389L101.698 85.4565L103.323 91.5218L105.255 91.0042ZM102.004 78.8736L100.379 72.8083L98.4472 73.326L100.072 79.3913L102.004 78.8736ZM98.7539 66.743L97.1287 60.6778L95.1968 61.1954L96.822 67.2607L98.7539 66.743ZM95.5035 54.6125L93.8783 48.5472L91.9465 49.0648L93.5716 55.1301L95.5035 54.6125ZM92.2531 42.4819L90.6279 36.4166L88.6961 36.9343L90.3213 42.9996L92.2531 42.4819ZM89.0027 30.3514L88.1902 27.3187L86.2583 27.8363L87.0709 30.869L89.0027 30.3514ZM87.483 28.5435L88.1023 28.3775L87.5847 26.4457L86.9654 26.6116L87.483 28.5435ZM89.3409 28.0456L89.9602 27.8797L89.4426 25.9478L88.8233 26.1138L89.3409 28.0456ZM89.9602 27.8797C90.4316 27.7534 90.8583 27.5383 91.2252 27.2565L90.0071 25.6703C89.845 25.7948 89.6556 25.8908 89.4426 25.9478L89.9602 27.8797ZM92.6077 24.8621C92.6682 24.4034 92.6412 23.9263 92.5148 23.455L90.583 23.9726C90.6401 24.1856 90.6516 24.3976 90.6249 24.6002L92.6077 24.8621ZM92.5149 23.455L91.8668 21.0364L89.9349 21.554L90.583 23.9726L92.5149 23.455ZM90.5707 16.1992L89.2746 11.362L87.3427 11.8796L88.6388 16.7168L90.5707 16.1992ZM87.9784 6.5248L87.3304 4.1062L85.3985 4.62384L86.0466 7.04244L87.9784 6.5248ZM87.3304 4.1062C87.1735 3.52075 86.9066 2.99138 86.5571 2.53628L84.9709 3.75444C85.163 4.00469 85.3109 4.29677 85.3985 4.62384L87.3304 4.1062ZM83.5852 0.820479C83.0163 0.745352 82.4244 0.778875 81.839 0.935748L82.3566 2.8676C82.6837 2.77996 83.0106 2.76195 83.3234 2.80326L83.5852 0.820479ZM81.839 0.935748L80.6443 1.25587L81.1619 3.18772L82.3566 2.8676L81.839 0.935748ZM78.2549 1.8961L77.0602 2.21622L77.5778 4.14808L78.7725 3.82796L78.2549 1.8961ZM77.0619 2.21577L77.0591 2.2165L77.5733 4.14927L77.5761 4.14853L77.0619 2.21577ZM77.0536 2.21797L77.0508 2.2187L77.5651 4.15147L77.5678 4.15074L77.0536 2.21797ZM77.0491 2.21916L75.7755 2.56043L76.2931 4.49228L77.5668 4.15101L77.0491 2.21916ZM73.2282 3.24298L71.9546 3.58425L72.4722 5.5161L73.7458 5.17483L73.2282 3.24298ZM72.8303 3.76317C72.5708 3.55972 72.2886 3.38698 71.9899 3.24843L71.1484 5.06278C71.3077 5.13666 71.4582 5.22879 71.5964 5.33718L72.8303 3.76317ZM70.0683 2.85451C69.7444 2.86449 69.4174 2.9117 69.0929 2.99865L69.6106 4.9305C69.785 4.88375 69.959 4.85883 70.1299 4.85357L70.0683 2.85451Z" fill="#A7C4FC"/>
</svg>
