<svg width="20" height="20" viewBox="0 0 20 20" fill="none" xmlns="http://www.w3.org/2000/svg">
<path fill-rule="evenodd" clip-rule="evenodd" d="M15.244 16.4252C15.5694 16.7506 16.0971 16.7506 16.4225 16.4252C16.7479 16.0998 16.7479 15.5721 16.4225 15.2467L11.1784 10.0026L16.4225 4.75853C16.7479 4.43309 16.7479 3.90545 16.4225 3.58002C16.0971 3.25458 15.5694 3.25458 15.244 3.58002L9.99992 8.82409L4.75584 3.58002C4.4304 3.25458 3.90277 3.25458 3.57733 3.58002C3.25189 3.90545 3.25189 4.43309 3.57733 4.75853L8.82141 10.0026L3.57733 15.2467C3.25189 15.5721 3.25189 16.0998 3.57733 16.4252C3.90277 16.7506 4.4304 16.7506 4.75584 16.4252L9.99992 11.1811L15.244 16.4252Z" fill="#A9AFBB"/>
</svg>
