<svg width="278" height="276" viewBox="0 0 278 276" fill="none" xmlns="http://www.w3.org/2000/svg">
<path d="M71.0344 76.982C70.6411 75.9551 69.6401 75.5635 68.2896 75.9254C66.8931 76.2996 66.2845 77.1519 66.5117 78.0364C66.761 79.0035 67.8689 79.1694 69.0862 79.1189L70.3593 79.0929C72.7781 79.0061 74.7879 79.7082 75.3903 81.9199C76.0335 84.357 74.5594 86.4259 71.3139 87.2857C68.1008 88.1565 65.6533 87.2171 64.805 84.382L67.4877 83.6632C67.9389 84.9799 69.1868 85.3742 70.6568 84.9804C72.1083 84.5914 72.8633 83.6605 72.5974 82.6682C72.3537 81.7587 71.4136 81.5577 69.866 81.5883L68.3209 81.6281C65.9315 81.6776 64.2531 80.926 63.7313 78.9783C63.0746 76.5645 64.7753 74.3857 67.6876 73.6053C70.6367 72.8151 73.0134 73.931 73.6803 76.2731L71.0344 76.982ZM81.113 73.7695L81.6595 75.809L79.7853 76.3112L81.09 81.1804C81.295 81.9822 81.7417 82.0692 82.2979 81.9399C82.5735 81.8661 83.0438 81.7105 83.3672 81.5943L83.9432 83.7441C83.6616 83.8688 83.1894 84.0544 82.5163 84.2249C80.5527 84.7609 78.975 84.2383 78.474 82.2949L77.0659 77.0399L75.6878 77.4091L75.1413 75.3696L76.5194 75.0003L75.8794 72.6116L78.5988 71.883L79.2388 74.2716L81.113 73.7695ZM84.6454 80.5231C84.0589 78.2974 85.6467 77.094 87.5348 76.4601C88.2391 76.2221 89.5632 75.7984 89.9809 75.6668L89.7643 74.8583C89.5311 74.0248 88.8335 73.6997 87.8112 73.9637C86.8858 74.2215 86.4178 74.7901 86.4529 75.5093L83.8622 76.2035C83.5647 74.432 84.7071 72.6686 87.353 71.9596C89.5304 71.3762 91.8492 71.7986 92.485 74.2081L94.287 80.9331L91.7146 81.6224L91.3453 80.2443L91.2718 80.264C91.0311 81.3132 90.2504 82.2215 88.7688 82.6086C86.8603 83.1299 85.1839 82.4959 84.6454 80.5231ZM87.2349 79.7505C87.4392 80.5131 88.1631 80.7524 89.0383 80.5277C90.2761 80.1862 90.9231 79.1463 90.6308 78.0922L90.4363 77.3664C90.0278 77.4956 88.8783 77.8725 88.4288 78.0324C87.5046 78.3686 87.0281 78.9788 87.2349 79.7505ZM96.7396 80.2759L94.0662 70.2987L96.6937 69.5946L97.1565 71.3218L97.2668 71.2923C97.2976 69.9744 98.0508 69.0734 99.1716 68.7731C99.4472 68.6993 99.8062 68.6425 100.06 68.6336L100.71 71.059C100.43 71.0452 99.8894 71.1213 99.5127 71.2222C98.2817 71.5521 97.6011 72.6502 97.9377 73.8696L99.459 79.5473L96.7396 80.2759ZM107.525 66.6924L108.072 68.7319L106.197 69.2341L107.502 74.1033C107.707 74.9051 108.154 74.9921 108.71 74.8628C108.986 74.789 109.456 74.6334 109.779 74.5172L110.355 76.667C110.074 76.7917 109.601 76.9773 108.928 77.1478C106.965 77.6838 105.387 77.1613 104.886 75.2178L103.478 69.9628L102.1 70.332L101.553 68.2925L102.931 67.9232L102.291 65.5346L105.011 64.8059L105.651 67.1946L107.525 66.6924Z" fill="#6C9CFA"/>
<path d="M42.5629 88.7614C39.8946 78.803 45.8044 68.5669 55.7628 65.8986L107.505 52.0343C117.463 49.3659 127.7 55.2757 130.368 65.2342C133.036 75.1926 127.126 85.4287 117.168 88.097L65.4258 101.961C55.4673 104.63 45.2313 98.7199 42.5629 88.7614Z" fill="white"/>
<path d="M221.869 163.551L195.214 170.693C191.75 171.621 188.19 169.566 187.262 166.102L177.389 129.255C176.461 125.791 178.516 122.231 181.98 121.303L208.635 114.161L221.869 163.551Z" fill="#8C81F7"/>
<path fill-rule="evenodd" clip-rule="evenodd" d="M154.288 21.0497L144.881 23.5705L33.4989 53.4152C30.2524 54.2851 28.3258 57.6221 29.1957 60.8686L76.5733 237.684C77.4432 240.931 80.7803 242.858 84.0268 241.988L195.89 212.014C199.136 211.144 201.063 207.807 200.193 204.561L163.844 68.9048L168.46 67.668C171.058 66.9719 172.6 64.3016 171.904 61.7037L162.241 25.641C161.313 22.1772 157.752 20.1216 154.288 21.0497Z" fill="#2C3648"/>
<rect x="72.6318" y="47.2028" width="127.426" height="189.921" rx="6.0857" fill="#C4D7FD"/>
<rect x="3.13574" y="59.0302" width="137.977" height="200.472" rx="6.0857" transform="rotate(-15 3.13574 59.0302)" fill="#6C9CFA"/>
<path d="M4.71084 64.9085C3.84094 61.662 5.76756 58.325 9.01408 57.4551L20.3831 54.4088L72.2692 248.05L60.9001 251.096C57.6536 251.966 54.3166 250.04 53.4467 246.793L4.71084 64.9085Z" fill="#2C3648"/>
<path d="M162.996 175.845C163.924 179.309 161.868 182.869 158.404 183.797L47.8644 213.416C44.4006 214.345 40.8402 212.289 39.9121 208.825L30.039 171.979C29.1109 168.515 31.1665 164.954 34.6303 164.026L145.17 134.407C148.634 133.479 152.195 135.535 153.123 138.998L162.996 175.845Z" fill="#B6AFFF"/>
<path d="M43.0102 88.6784C40.3418 78.72 46.2516 68.4839 56.2101 65.8155L107.952 51.9513C117.911 49.2829 128.147 55.1927 130.815 65.1511C133.483 75.1096 127.574 85.3456 117.615 88.014L65.8731 101.878C55.9146 104.547 45.6786 98.6369 43.0102 88.6784Z" fill="white"/>
<path d="M253.203 128.711C254.044 129.151 254.33 130.216 253.821 131.018L227.212 172.971C226.454 174.164 224.639 173.887 224.273 172.521L206.862 107.542C206.496 106.176 207.929 105.028 209.182 105.683L253.203 128.711Z" fill="#8C81F7"/>
<path d="M107.802 101.567L106.737 85.047L120.456 81.3708L107.802 101.567Z" fill="white"/>
<path d="M43.0097 88.6784C40.3414 78.72 46.2511 68.4839 56.2096 65.8156L107.952 51.9513C117.91 49.2829 128.146 55.1927 130.815 65.1512C133.483 75.1096 127.573 85.3457 117.615 88.014L65.8726 101.878C55.9141 104.547 45.6781 98.6369 43.0097 88.6784Z" fill="white"/>
<path d="M71.7239 77.4229C71.3305 76.3959 70.3296 76.0044 68.979 76.3663C67.5826 76.7405 66.974 77.5928 67.2011 78.4772C67.4504 79.4444 68.5583 79.6103 69.7757 79.5598L71.0488 79.5338C73.4675 79.447 75.4773 80.1491 76.0798 82.3608C76.7229 84.7978 75.2489 86.8668 72.0033 87.7266C68.7903 88.5973 66.3427 87.658 65.4945 84.8229L68.1771 84.1041C68.6284 85.4208 69.8763 85.8151 71.3462 85.4212C72.7978 85.0323 73.5527 84.1013 73.2869 83.1091C73.0432 82.1996 72.1031 81.9985 70.5555 82.0292L69.0104 82.069C66.621 82.1185 64.9426 81.3669 64.4207 79.4192C63.7641 77.0054 65.4647 74.8266 68.3771 74.0462C71.3261 73.256 73.7028 74.3719 74.3698 76.714L71.7239 77.4229ZM81.8024 74.2103L82.3489 76.2499L80.4748 76.7521L81.7795 81.6213C81.9844 82.423 82.4312 82.5101 82.9873 82.3808C83.2629 82.3069 83.7333 82.1514 84.0566 82.0352L84.6327 84.185C84.351 84.3097 83.8789 84.4953 83.2057 84.6658C81.2421 85.2018 79.6645 84.6792 79.1634 82.7358L77.7553 77.4808L76.3773 77.85L75.8308 75.8105L77.2089 75.4412L76.5688 73.0525L79.2882 72.3239L79.9283 74.7125L81.8024 74.2103ZM85.3349 80.964C84.7483 78.7383 86.3362 77.5349 88.2243 76.901C88.9286 76.663 90.2527 76.2393 90.6704 76.1077L90.4537 75.2992C90.2205 74.4657 89.5229 74.1405 88.5007 74.4046C87.5752 74.6624 87.1072 75.2309 87.1424 75.9502L84.5516 76.6444C84.2542 74.8729 85.3965 73.1095 88.0425 72.4005C90.2198 71.8171 92.5387 72.2395 93.1745 74.649L94.9764 81.374L92.404 82.0633L92.0348 80.6852L91.9613 80.7049C91.7205 81.7541 90.9398 82.6624 89.4582 83.0495C87.5498 83.5708 85.8733 82.9368 85.3349 80.964ZM87.9243 80.1914C88.1287 80.9539 88.8525 81.1932 89.7278 80.9686C90.9656 80.6271 91.6125 79.5872 91.3203 78.5331L91.1258 77.8073C90.7173 77.9365 89.5677 78.3134 89.1182 78.4733C88.1941 78.8095 87.7176 79.4197 87.9243 80.1914ZM97.429 80.7168L94.7556 70.7396L97.3832 70.0355L97.846 71.7627L97.9562 71.7332C97.9871 70.4153 98.7402 69.5143 99.8611 69.214C100.137 69.1402 100.496 69.0834 100.749 69.0745L101.399 71.4999C101.12 71.4861 100.579 71.5621 100.202 71.6631C98.9711 71.9929 98.2905 73.0911 98.6271 74.3105L100.148 79.9882L97.429 80.7168ZM108.214 67.1333L108.761 69.1728L106.887 69.675L108.191 74.5442C108.396 75.346 108.843 75.433 109.399 75.3037C109.675 75.2299 110.145 75.0743 110.469 74.9581L111.045 77.1079C110.763 77.2326 110.291 77.4182 109.618 77.5887C107.654 78.1247 106.077 77.6021 105.575 75.6587L104.167 70.4037L102.789 70.7729L102.243 68.7334L103.621 68.3641L102.981 65.9754L105.7 65.2468L106.34 67.6355L108.214 67.1333Z" fill="#6C9CFA"/>
</svg>
