<svg width="28" height="28" viewBox="0 0 28 28" fill="none" xmlns="http://www.w3.org/2000/svg">
<path fill-rule="evenodd" clip-rule="evenodd" d="M23.0004 4.5C23.0004 3.94772 22.5527 3.5 22.0004 3.5C21.4481 3.5 21.0004 3.94772 21.0004 4.5V5.90074C20.6712 5.61918 20.3234 5.3587 19.9589 5.12124C18.8586 4.40441 17.6278 3.91131 16.3369 3.67012C15.0461 3.42892 13.7203 3.44434 12.4354 3.7155C11.1505 3.98667 9.93156 4.50826 8.84822 5.25049C8.39261 5.56265 8.27632 6.18504 8.58847 6.64065C8.90063 7.09626 9.52302 7.21255 9.97863 6.90039C10.8453 6.3066 11.8204 5.88933 12.8484 5.6724C13.8763 5.45547 14.9369 5.44314 15.9696 5.63609C17.0023 5.82905 17.9869 6.22353 18.8672 6.79699C19.1927 7.00909 19.5017 7.24414 19.7918 7.5H18.0004C17.4481 7.5 17.0004 7.94772 17.0004 8.5C17.0004 9.05228 17.4481 9.5 18.0004 9.5H22.0004C22.5527 9.5 23.0004 9.05228 23.0004 8.5V4.5Z" fill="#BAB3FA"/>
<path fill-rule="evenodd" clip-rule="evenodd" d="M24.4521 12.5213C24.398 11.9717 23.9086 11.57 23.359 11.624C22.8094 11.6781 22.4076 12.1675 22.4617 12.7171C22.5645 13.7626 22.4604 14.8182 22.1553 15.8235C21.8502 16.8288 21.3501 17.7641 20.6835 18.5761C20.0169 19.3882 19.1969 20.0609 18.2703 20.556C17.6581 20.8832 17.0072 21.1285 16.3345 21.287L17.3662 19.5001C17.6423 19.0218 17.4785 18.4102 17.0002 18.134C16.5219 17.8579 15.9103 18.0218 15.6341 18.5001L13.6341 21.9642C13.358 22.4425 13.5219 23.054 14.0002 23.3302L17.4643 25.3302C17.9426 25.6063 18.5542 25.4425 18.8303 24.9642C19.1064 24.4859 18.9426 23.8743 18.4643 23.5981L17.4979 23.0402C18.0893 22.8544 18.6635 22.6135 19.2129 22.32C20.3711 21.7011 21.3961 20.8602 22.2293 19.8451C23.0626 18.8301 23.6877 17.6609 24.0691 16.4043C24.4505 15.1477 24.5806 13.8282 24.4521 12.5213Z" fill="#8C81F7"/>
<path fill-rule="evenodd" clip-rule="evenodd" d="M3.0661 9.33563C2.56856 9.57536 2.35956 10.173 2.59929 10.6706C2.83902 11.1681 3.4367 11.3771 3.93424 11.1374L4.90988 10.6673C4.76253 11.1661 4.65399 11.6768 4.58579 12.1949C4.41438 13.4969 4.50109 14.8199 4.84098 16.0883C5.18086 17.3568 5.76726 18.5459 6.5667 19.5878C7.36614 20.6296 8.36296 21.5038 9.50024 22.1604C9.97853 22.4366 10.5901 22.2727 10.8663 21.7944C11.1424 21.3161 10.9785 20.7045 10.5002 20.4284C9.59041 19.9031 8.79296 19.2037 8.15341 18.3702C7.51386 17.5368 7.04474 16.5855 6.77283 15.5707C6.50092 14.5559 6.43155 13.4975 6.56868 12.4559C6.65042 11.835 6.8046 11.2273 7.02707 10.645L7.93909 12.5378C8.17882 13.0354 8.7765 13.2444 9.27404 13.0046C9.77158 12.7649 9.98058 12.1672 9.74085 11.6697L8.00456 8.06616C7.76483 7.56862 7.16716 7.35962 6.66961 7.59935L3.0661 9.33563Z" fill="#6C9CFA"/>
</svg>
