<svg width="272" height="138" viewBox="0 0 272 138" fill="none" xmlns="http://www.w3.org/2000/svg">
<g clip-path="url(#clip0_1978_112997)">
<path d="M0 8C0 3.58172 3.58172 0 8 0H264C268.418 0 272 3.58172 272 8V138H0V8Z" fill="#E9F0FF"/>
<g clip-path="url(#clip1_1978_112997)">
<rect x="43" y="10" width="560" height="350" rx="6" fill="#F2F4F8"/>
<path d="M187.361 23.5443V28.6484H186.249V23.5443H187.361ZM185.757 23.681V28.6393H184.663V28.3568H183.414V27.582H184.663V23.681H185.757ZM180.078 26.6159C181.163 26.6159 182.977 26.5885 184.307 26.388L184.389 27.1628C183.911 27.2676 183.387 27.3405 182.858 27.3906V28.6029H181.746V27.4544C181.163 27.4772 180.62 27.4818 180.187 27.4818L180.078 26.6159ZM182.585 28.9128V29.4688H186.203V28.9128H187.361V31.7474H181.436V28.9128H182.585ZM182.585 30.8542H186.203V30.3529H182.585V30.8542ZM182.247 23.8268C183.332 23.8268 184.079 24.3008 184.079 25.0664C184.079 25.8229 183.332 26.306 182.247 26.3151C181.163 26.306 180.424 25.8229 180.424 25.0664C180.424 24.3008 181.163 23.8268 182.247 23.8268ZM182.247 24.6289C181.764 24.6289 181.482 24.7656 181.482 25.0664C181.482 25.3672 181.764 25.5039 182.247 25.5039C182.73 25.5039 183.04 25.3672 183.04 25.0664C183.04 24.7656 182.73 24.6289 182.247 24.6289ZM197.305 23.5443V31.8568H196.147V23.5443H197.305ZM194.734 24.237V27.4362H192V28.9583C193.262 28.9538 194.338 28.8809 195.555 28.6849L195.655 29.6237C194.288 29.8607 193.057 29.9154 191.544 29.9154H190.797V26.5156H193.549V25.1758H190.788V24.237H194.734ZM205.143 26.1602V27.0898H199.337V23.918H200.495V26.1602H205.143ZM205.982 28.0286V28.9583H204.25V31.8385H203.074V28.9583H201.333V31.8385H200.167V28.9583H198.417V28.0286H205.982ZM213.474 23.5443V27.6914H212.316V26.1419H210.931C210.703 27.0124 209.865 27.5911 208.798 27.5911C207.531 27.5911 206.583 26.7982 206.592 25.668C206.583 24.5651 207.531 23.7813 208.798 23.7813C209.865 23.7813 210.703 24.3509 210.931 25.2031H212.316V23.5443H213.474ZM208.798 24.7201C208.151 24.7201 207.686 25.0846 207.695 25.668C207.686 26.2878 208.151 26.6523 208.798 26.6523C209.427 26.6523 209.883 26.2878 209.883 25.668C209.883 25.0846 209.427 24.7201 208.798 24.7201ZM213.474 28.056V30.2982H209.126V30.8359H213.72V31.7474H207.96V29.4414H212.316V28.9492H207.951V28.056H213.474ZM224.293 29.9063V30.8724H216.701V29.9063H224.293ZM223.655 24.2734V25.2031H222.488V27.7188H223.618V28.6302H217.329V27.7188H218.441V25.2031H217.293V24.2734H223.655ZM219.608 27.7188H221.34V25.2031H219.608V27.7188ZM232.359 29.9609V30.918H224.767V29.9609H227.966V28.7122H225.642V25.9232H230.336V25.0117H225.633V24.082H231.484V26.8346H226.809V27.7643H231.676V28.7122H229.124V29.9609H232.359ZM238.311 23.7083V28.5573H237.208V26.5339H236.288V25.5951H237.208V23.7083H238.311ZM235.449 25.3307C235.449 26.2057 235.887 27.0716 236.953 27.4818L236.37 28.375C235.663 28.1016 235.185 27.6094 234.902 27.0078C234.597 27.6823 234.087 28.2337 233.326 28.5391L232.715 27.6185C233.854 27.1901 234.319 26.2422 234.319 25.3216V25.0755H232.997V24.1458H236.689V25.0755H235.449V25.3307ZM239.961 23.5443V28.6029H238.858V23.5443H239.961ZM239.961 28.9036V31.8385H238.803V29.8242H234.228V28.9036H239.961ZM247.663 27.8281V28.7487H241.793V24.1549H247.599V25.0938H242.978V25.9688H247.408V26.8802H242.978V27.8281H247.663ZM248.492 29.9245V30.8724H240.9V29.9245H248.492Z" fill="#212329"/>
<path d="M255.677 25.8913C255.677 26.2046 255.423 26.4585 255.11 26.4585C254.797 26.4585 254.543 26.2046 254.543 25.8913C254.543 25.5781 254.797 25.3242 255.11 25.3242C255.423 25.3242 255.677 25.5781 255.677 25.8913Z" fill="#212329"/>
<path d="M255.677 27.9978C255.677 28.311 255.423 28.565 255.11 28.565C254.797 28.565 254.543 28.311 254.543 27.9978C254.543 27.6846 254.797 27.4307 255.11 27.4307C255.423 27.4307 255.677 27.6846 255.677 27.9978Z" fill="#212329"/>
<path d="M255.677 30.1043C255.677 30.4175 255.423 30.6714 255.11 30.6714C254.797 30.6714 254.543 30.4175 254.543 30.1043C254.543 29.7911 254.797 29.5372 255.11 29.5372C255.423 29.5372 255.677 29.7911 255.677 30.1043Z" fill="#212329"/>
<path d="M184.422 43.6538V44.0791H180.062V43.6538H184.422ZM184.023 40.3679V40.7827H183.295V42.3724H184.007V42.7765H180.445V42.3724H181.157V40.7827H180.434V40.3679H184.023ZM181.657 42.3724H182.8V40.7827H181.657V42.3724ZM189.127 43.6803V44.1057H184.768V43.6803H186.687V42.8456H185.299V41.3303H188.096V40.6604H185.289V40.2457H188.596V41.7344H185.799V42.4309H188.707V42.8456H187.187V43.6803H189.127ZM192.599 40.0117V42.7818H192.121V41.5323H191.456V41.1229H192.121V40.0117H192.599ZM190.914 40.9315C190.914 41.4473 191.228 41.9843 191.834 42.2342L191.578 42.6223C191.145 42.4442 190.847 42.1145 190.68 41.7237C190.51 42.1624 190.196 42.5319 189.734 42.7286L189.462 42.3299C190.095 42.0747 190.425 41.4845 190.425 40.9315V40.6976H189.579V40.2882H191.711V40.6976H190.914V40.9315ZM193.535 39.9107V42.819H193.057V39.9107H193.535ZM193.535 43.0157V44.6746H193.035V43.4251H190.297V43.0157H193.535ZM198.044 42.4468V42.8509H194.726V40.3041H197.996V40.7135H195.236V41.3569H197.895V41.7556H195.236V42.4468H198.044ZM198.538 43.6591V44.0738H194.178V43.6591H198.538ZM204.562 42.2288V42.6329H200.213V42.2288H202.143V41.7237H200.755V40.1287H204.025V40.5275H201.255V41.3197H204.057V41.7237H202.632V42.2288H204.562ZM202.382 42.9413C203.408 42.9413 204.025 43.255 204.025 43.8079C204.025 44.3609 203.408 44.6693 202.382 44.6746C201.351 44.6693 200.729 44.3609 200.729 43.8079C200.729 43.255 201.351 42.9413 202.382 42.9413ZM202.382 43.3347C201.654 43.3347 201.239 43.5049 201.239 43.8079C201.239 44.111 201.654 44.2811 202.382 44.2758C203.1 44.2811 203.52 44.111 203.52 43.8079C203.52 43.5049 203.1 43.3347 202.382 43.3347ZM208.661 39.9054V41.3303H209.353V41.7556H208.661V43.4092H208.156V39.9054H208.661ZM208.863 44.1642V44.5736H205.641V43.0423H206.147V44.1642H208.863ZM206.258 40.235C206.976 40.235 207.524 40.7242 207.529 41.4207C207.524 42.1119 206.976 42.6063 206.258 42.6063C205.54 42.6063 204.988 42.1119 204.993 41.4207C204.988 40.7242 205.54 40.235 206.258 40.235ZM206.258 40.6763C205.822 40.6763 205.482 40.9794 205.487 41.4207C205.482 41.862 205.822 42.165 206.258 42.165C206.7 42.165 207.035 41.862 207.035 41.4207C207.035 40.9794 206.7 40.6763 206.258 40.6763ZM212.718 40.9049C212.718 41.5217 213.175 42.1012 213.909 42.3352L213.649 42.7286C213.101 42.5479 212.686 42.173 212.474 41.6972C212.258 42.2155 211.836 42.6249 211.267 42.8243L211.006 42.4256C211.745 42.1757 212.202 41.5589 212.208 40.9049V40.6976H211.139V40.2882H213.766V40.6976H212.718V40.9049ZM214.903 39.916V43.3932H214.398V39.916H214.903ZM215.047 44.1642V44.5736H211.788V43.0636H212.298V44.1642H215.047ZM219.72 39.9107V42.9147H219.242V41.5855H218.689V42.7499H218.216V40.0011H218.689V41.1708H219.242V39.9107H219.72ZM218.04 40.453V40.8518H215.632V40.453H216.594V39.9479H217.094V40.453H218.04ZM216.839 41.0751C217.445 41.0751 217.87 41.3994 217.87 41.8939C217.87 42.3883 217.445 42.7127 216.839 42.7127C216.243 42.7127 215.818 42.3883 215.818 41.8939C215.818 41.3994 216.243 41.0751 216.839 41.0751ZM216.839 41.4473C216.504 41.4473 216.27 41.6227 216.27 41.8939C216.27 42.165 216.504 42.3458 216.839 42.3458C217.184 42.3458 217.413 42.165 217.413 41.8939C217.413 41.6227 217.184 41.4473 216.839 41.4473ZM218.125 42.9838C219.136 42.9838 219.742 43.2869 219.747 43.8292C219.742 44.3609 219.136 44.6693 218.125 44.664C217.115 44.6693 216.509 44.3609 216.514 43.8292C216.509 43.2869 217.115 42.9838 218.125 42.9838ZM218.125 43.372C217.418 43.372 217.009 43.5315 217.014 43.8292C217.009 44.1163 217.418 44.2811 218.125 44.2758C218.838 44.2811 219.237 44.1163 219.242 43.8292C219.237 43.5315 218.838 43.372 218.125 43.372ZM223.139 41.4366V41.846H222.209V42.4468C222.631 42.4282 223.051 42.399 223.442 42.3564L223.479 42.7286C222.464 42.8669 221.347 42.8934 220.454 42.8934L220.385 42.4894C220.792 42.4867 221.246 42.4814 221.709 42.4681V41.846H220.81V40.2138H223.097V40.6232H221.316V41.4366H223.139ZM224.314 39.9107V43.4836H223.809V39.9107H224.314ZM224.463 44.1642V44.5736H221.172V43.2284H221.677V44.1642H224.463ZM230.338 39.9107V44.6746H229.833V39.9107H230.338ZM226.425 43.3773C226.816 43.3746 227.265 43.372 227.733 43.356V42.8828C227.175 42.811 226.813 42.484 226.818 42.0162C226.813 41.4792 227.281 41.1229 227.972 41.1229C228.669 41.1229 229.147 41.4792 229.147 42.0162C229.147 42.4787 228.786 42.8031 228.233 42.8775V43.3401C228.674 43.3215 229.121 43.2869 229.541 43.2337L229.578 43.6112C228.52 43.7867 227.366 43.7973 226.494 43.7973L226.425 43.3773ZM229.434 40.4796V40.8837H226.526V40.4796H227.733V39.9213H228.238V40.4796H229.434ZM227.972 41.5164C227.573 41.5164 227.292 41.7131 227.297 42.0162C227.292 42.3192 227.573 42.5053 227.972 42.5053C228.382 42.5053 228.663 42.3192 228.663 42.0162C228.663 41.7131 228.382 41.5164 227.972 41.5164ZM234.959 40.3679V40.8358C234.959 41.426 234.959 42.0853 234.778 43.0583L234.267 43.0051C234.453 42.0853 234.453 41.41 234.453 40.8358V40.7773H231.561V40.3679H234.959ZM235.448 43.6112V44.0313H231.104V43.6112H232.757V41.9311H233.257V43.6112H235.448ZM237.239 40.2138C237.973 40.2138 238.521 40.6763 238.521 41.3462C238.521 41.9364 238.095 42.3644 237.495 42.4575V43.2125C237.917 43.1938 238.34 43.1619 238.734 43.1114L238.771 43.4889C237.766 43.6644 236.655 43.6697 235.831 43.6644L235.751 43.2497C236.12 43.247 236.546 43.2444 236.99 43.2337V42.4575C236.373 42.3697 235.953 41.9391 235.958 41.3462C235.953 40.6763 236.49 40.2138 237.239 40.2138ZM237.239 40.6391C236.782 40.6444 236.447 40.9209 236.447 41.3462C236.447 41.7716 236.782 42.0534 237.239 42.0481C237.691 42.0534 238.021 41.7716 238.026 41.3462C238.021 40.9209 237.691 40.6444 237.239 40.6391ZM239.526 39.9107V41.846H240.259V42.2714H239.526V44.6746H239.021V39.9107H239.526ZM245.794 39.916V43.3773H245.289V39.916H245.794ZM245.938 44.1642V44.5736H242.679V43.0264H243.189V44.1642H245.938ZM243.21 40.235C243.928 40.235 244.476 40.7242 244.476 41.4154C244.476 42.1172 243.928 42.601 243.21 42.601C242.493 42.601 241.94 42.1172 241.94 41.4154C241.94 40.7242 242.493 40.235 243.21 40.235ZM243.21 40.6763C242.764 40.6763 242.434 40.9794 242.434 41.4154C242.434 41.862 242.764 42.1597 243.21 42.1597C243.646 42.1597 243.981 41.862 243.981 41.4154C243.981 40.9794 243.646 40.6763 243.21 40.6763ZM248.203 41.1229C248.197 41.9683 248.687 42.8296 249.399 43.1752L249.085 43.5793C248.567 43.3108 248.166 42.7765 247.958 42.1385C247.743 42.819 247.326 43.3879 246.783 43.6697L246.47 43.2603C247.203 42.9094 247.698 41.9949 247.698 41.1229V40.3095H248.203V41.1229ZM250.26 39.9107V41.8088H251.026V42.2395H250.26V44.6746H249.755V39.9107H250.26ZM255.2 39.9107V44.6852H254.695V39.9107H255.2ZM252.653 40.2669C253.36 40.2669 253.881 40.9156 253.881 41.9364C253.881 42.9626 253.36 43.6112 252.653 43.6112C251.935 43.6112 251.419 42.9626 251.419 41.9364C251.419 40.9156 251.935 40.2669 252.653 40.2669ZM252.653 40.7189C252.212 40.7189 251.909 41.1867 251.909 41.9364C251.909 42.6914 252.212 43.1593 252.653 43.1593C253.089 43.1593 253.392 42.6914 253.392 41.9364C253.392 41.1867 253.089 40.7189 252.653 40.7189ZM259.825 42.4468V42.8509H256.508V40.3041H259.778V40.7135H257.018V41.3569H259.677V41.7556H257.018V42.4468H259.825ZM260.32 43.6591V44.0738H255.96V43.6591H260.32ZM265.02 42.0959V42.484H260.66V42.0959H265.02ZM264.483 42.819V43.8664H261.686V44.2599H264.632V44.6161H261.181V43.5315H263.983V43.1806H261.176V42.819H264.483ZM264.472 40.033V41.0645H261.718V41.426H264.552V41.7822H261.218V40.7295H263.967V40.3892H261.208V40.033H264.472ZM271.06 43.6591V44.0791H266.7V43.6591H268.619V42.5585H267.2V40.2935H270.539V42.5585H269.119V43.6591H271.06ZM267.689 40.6976V42.1597H270.044V40.6976H267.689ZM272.682 40.2669C273.394 40.2669 273.899 40.9156 273.904 41.9364C273.899 42.9626 273.394 43.6112 272.682 43.6112C271.969 43.6112 271.459 42.9626 271.464 41.9364C271.459 40.9156 271.969 40.2669 272.682 40.2669ZM272.682 40.7189C272.246 40.7189 271.948 41.1867 271.948 41.9364C271.948 42.6914 272.246 43.1593 272.682 43.1593C273.123 43.1593 273.421 42.6914 273.421 41.9364C273.421 41.1867 273.123 40.7189 272.682 40.7189ZM275.117 39.9107V41.7769H275.882V42.2023H275.117V44.6746H274.612V39.9107H275.117ZM279.928 41.6653V42.064H276.696V40.1819H279.87V40.5913H277.206V41.6653H279.928ZM280.465 42.6436V43.053H278.519V44.664H278.025V43.053H276.106V42.6436H280.465ZM284.671 41.3037V41.7078H281.391V40.0808H281.89V41.3037H284.671ZM285.171 42.3086V42.7127H280.811V42.3086H285.171ZM284.703 44.1482V44.5629H281.353V43.1646H281.858V44.1482H284.703ZM288.999 42.9041C290.03 42.9041 290.679 43.2284 290.684 43.7867C290.679 44.3396 290.03 44.6693 288.999 44.664C287.978 44.6693 287.324 44.3396 287.324 43.7867C287.324 43.2284 287.978 42.9041 288.999 42.9041ZM288.999 43.2869C288.276 43.2869 287.824 43.473 287.829 43.7867C287.824 44.0951 288.276 44.2758 288.999 44.2758C289.727 44.2758 290.179 44.0951 290.185 43.7867C290.179 43.473 289.727 43.2869 288.999 43.2869ZM290.647 40.1446V40.5434C290.647 40.9262 290.647 41.3197 290.514 41.8088L290.02 41.7556C290.147 41.2692 290.147 40.9182 290.147 40.5487H287.361V40.1446H290.647ZM291.189 42.1012V42.5106H286.856V42.1012H288.595V41.208H289.089V42.1012H291.189ZM295.299 39.9107V41.3197H295.991V41.7397H295.299V43.372H294.789V39.9107H295.299ZM294.007 40.2722C294.007 41.5217 293.157 42.4309 291.764 42.8509L291.551 42.4468C292.665 42.1119 293.359 41.4792 293.46 40.6923H291.753V40.2722H294.007ZM295.496 44.1642V44.5736H292.274V43.0157H292.784V44.1642H295.496Z" fill="#8B909C"/>
<path d="M182.208 62.5686C182.208 63.2309 182.615 63.9054 183.526 64.1788L183.132 64.7865C182.512 64.592 182.074 64.194 181.825 63.6927C181.573 64.2365 181.123 64.674 180.476 64.8898L180.075 64.2821C180.993 63.9844 181.418 63.2674 181.418 62.5686V62.4896H180.282V61.8698H183.32V62.4896H182.208V62.5686ZM184.681 61.4809V65.4792H183.903V61.4809H184.681ZM184.827 66.2873V66.9071H180.974V65.1146H181.758V66.2873H184.827ZM190.18 61.4748V64.9444H189.445V63.474H189.001V64.7622H188.278V61.5781H189.001V62.842H189.445V61.4748H190.18ZM188.114 62.046V62.6476H185.398V62.046H186.376V61.5234H187.148V62.046H188.114ZM186.765 62.8299C187.47 62.8299 187.968 63.2188 187.974 63.796C187.968 64.3672 187.47 64.7561 186.765 64.7561C186.072 64.7561 185.568 64.3672 185.568 63.796C185.568 63.2188 186.072 62.8299 186.765 62.8299ZM186.765 63.3889C186.461 63.3889 186.261 63.5408 186.261 63.796C186.261 64.0512 186.461 64.2092 186.765 64.2031C187.069 64.2092 187.27 64.0512 187.276 63.796C187.27 63.5408 187.069 63.3889 186.765 63.3889ZM188.29 64.9931C189.487 64.9931 190.204 65.3576 190.211 66.0017C190.204 66.6398 189.487 67.0043 188.29 67.0043C187.099 67.0043 186.376 66.6398 186.376 66.0017C186.376 65.3576 187.099 64.9931 188.29 64.9931ZM188.29 65.5764C187.543 65.5764 187.148 65.7101 187.154 66.0017C187.148 66.2813 187.543 66.421 188.29 66.421C189.044 66.421 189.427 66.2813 189.427 66.0017C189.427 65.7101 189.044 65.5764 188.29 65.5764ZM197.283 63.9844V64.6102H195.145V65.0174C196.108 65.0903 196.676 65.4366 196.682 66.0078C196.676 66.6458 195.953 67.0043 194.756 67.0043C193.54 67.0043 192.817 66.6458 192.817 66.0078C192.817 65.4336 193.391 65.0872 194.373 65.0174V64.6102H192.24V63.9844H197.283ZM194.756 65.5885C193.99 65.5946 193.601 65.7283 193.607 66.0078C193.601 66.2752 193.99 66.421 194.756 66.421C195.503 66.421 195.898 66.2752 195.904 66.0078C195.898 65.7283 195.503 65.5946 194.756 65.5885ZM196.828 61.7118V62.3194H195.327C195.457 62.7083 196.02 63.082 197.071 63.1701L196.797 63.7778C195.755 63.6775 195.05 63.2826 194.756 62.7448C194.464 63.2826 193.771 63.6775 192.72 63.7778L192.465 63.1701C193.489 63.082 194.054 62.7053 194.197 62.3194H192.702V61.7118H196.828ZM202.248 61.4809V65.4549H201.47V61.4809H202.248ZM202.394 66.2873V66.9071H198.541V65.0538H199.325V66.2873H202.394ZM199.216 61.8333C200.066 61.8333 200.729 62.4167 200.729 63.2248C200.729 64.0512 200.066 64.6285 199.216 64.6285C198.365 64.6285 197.703 64.0512 197.703 63.2248C197.703 62.4167 198.365 61.8333 199.216 61.8333ZM199.216 62.5078C198.784 62.5017 198.456 62.7752 198.462 63.2248C198.456 63.6866 198.784 63.954 199.216 63.954C199.635 63.954 199.963 63.6866 199.963 63.2248C199.963 62.7752 199.635 62.5017 199.216 62.5078ZM209.078 61.4748V67.0043H208.306V61.4748H209.078ZM204.454 65.4427C204.876 65.4397 205.359 65.4397 205.863 65.4245V64.9566C205.256 64.8503 204.861 64.4735 204.867 63.954C204.861 63.3342 205.426 62.9149 206.24 62.9149C207.06 62.9149 207.632 63.3342 207.632 63.954C207.632 64.4705 207.237 64.8472 206.629 64.9566V65.4002C207.091 65.3789 207.559 65.3424 208.002 65.2847L208.057 65.8559C206.848 66.0625 205.541 66.0747 204.557 66.0747L204.454 65.4427ZM207.923 62.0885V62.6962H204.563V62.0885H205.863V61.4991H206.635V62.0885H207.923ZM206.24 63.5043C205.863 63.5043 205.596 63.6684 205.602 63.954C205.596 64.2457 205.863 64.4036 206.24 64.4036C206.629 64.4036 206.89 64.2457 206.89 63.954C206.89 63.6684 206.629 63.5043 206.24 63.5043ZM214.364 61.9549V62.4774C214.364 63.1701 214.364 63.9479 214.139 65.1207L213.362 65.0417C213.571 63.9965 213.58 63.2188 213.586 62.5686H210.329V61.9549H214.364ZM214.85 65.6979V66.3299H209.807V65.6979H211.612V63.796H212.383V65.6979H214.85Z" fill="#212329"/>
<path d="M220.275 66.5061C219.175 66.5061 218.506 65.6858 218.506 64.2457C218.506 62.8056 219.175 61.9852 220.275 61.9852C221.374 61.9852 222.043 62.8116 222.043 64.2457C222.043 65.6918 221.374 66.5061 220.275 66.5061ZM220.275 65.7526C220.785 65.7526 221.113 65.2604 221.107 64.2457C221.107 63.2431 220.785 62.7326 220.275 62.7326C219.764 62.7326 219.442 63.2431 219.442 64.2457C219.436 65.2604 219.764 65.7526 220.275 65.7526Z" fill="#8B909C"/>
<rect x="180.081" y="74.8624" width="114.722" height="279.944" rx="4.47222" stroke="#06080C" stroke-opacity="0.12" stroke-width="0.388889" stroke-linecap="round" stroke-dasharray="1.56 1.56"/>
<path d="M227.997 139.535C227.997 144.723 232.227 148.929 237.446 148.929C242.665 148.929 246.895 144.723 246.895 139.535C246.895 134.348 242.665 130.142 237.446 130.142C232.227 130.142 227.997 134.348 227.997 139.535Z" fill="#DFE3EA"/>
<path fill-rule="evenodd" clip-rule="evenodd" d="M235.076 127.314C234.939 127.001 234.864 126.656 234.864 126.293C234.864 124.876 236.019 123.727 237.445 123.727C238.871 123.727 240.027 124.876 240.027 126.293C240.027 126.656 239.951 127.001 239.814 127.314C239.94 127.372 240.027 127.499 240.027 127.646V128.625C240.027 128.827 239.862 128.991 239.658 128.991H238.792V129.767C243.632 130.42 247.363 134.545 247.363 139.535C247.363 144.98 242.923 149.393 237.446 149.393C231.969 149.393 227.529 144.98 227.529 139.535C227.529 134.575 231.215 130.47 236.012 129.78V128.991H235.232C235.028 128.991 234.864 128.827 234.864 128.625V127.646C234.864 127.499 234.95 127.372 235.076 127.314ZM235.764 127.28H239.127C239.299 126.991 239.397 126.653 239.397 126.293C239.397 125.221 238.523 124.352 237.445 124.352C236.367 124.352 235.493 125.221 235.493 126.293C235.493 126.653 235.591 126.991 235.764 127.28ZM246.427 139.535C246.427 134.604 242.406 130.607 237.446 130.607C232.486 130.607 228.464 134.604 228.464 139.535C228.464 144.466 232.486 148.464 237.446 148.464C242.406 148.464 246.427 144.466 246.427 139.535Z" fill="#CED2DA"/>
<path d="M237.551 144.874L238.329 139.514L236.592 139.524L237.363 144.874C237.379 144.982 237.536 144.982 237.551 144.874Z" fill="white"/>
<path d="M237.369 133.927L236.591 139.36L238.328 139.349L237.557 133.927C237.541 133.818 237.384 133.818 237.369 133.927Z" fill="#F2F4F8"/>
<path d="M236.523 139.336C236.556 138.815 237.008 138.419 237.532 138.452C238.057 138.484 238.455 138.934 238.422 139.455C238.389 139.976 237.937 140.373 237.413 140.34C236.888 140.307 236.49 139.858 236.523 139.336Z" fill="#CED2DA"/>
<rect width="110.446" height="350" transform="translate(43 10)" fill="#F2F4F8"/>
<rect x="47.666" y="14.668" width="101.113" height="340.667" rx="4.66667" fill="white"/>
<path d="M62.5556 24H63.4266C63.5278 24 63.6111 24.0816 63.6111 24.1845V28.6828C63.6111 28.7839 63.6927 28.8674 63.7956 28.8674H65.9209C66.022 28.8674 66.1054 28.949 66.1054 29.0519V29.751C66.1054 29.8522 66.0238 29.9356 65.9209 29.9356H62.5556C62.4545 29.9356 62.3711 29.854 62.3711 29.751V24.1845C62.3711 24.0816 62.4527 24 62.5556 24Z" fill="#172031"/>
<path d="M66.4707 26.0179C66.774 25.6283 67.2937 25.4336 68.0315 25.4336C68.5122 25.4336 68.9379 25.5301 69.3103 25.7213C69.6828 25.9124 69.869 26.2752 69.869 26.8076V28.8338C69.869 28.9749 69.8708 29.1447 69.8779 29.3448C69.885 29.4967 69.908 29.5985 69.9471 29.6521C69.974 29.691 70.0113 29.7251 70.0581 29.7546C70.092 29.7759 70.1155 29.8116 70.1155 29.8517C70.1155 29.9092 70.0689 29.9559 70.0114 29.9559H68.9999C68.9183 29.9559 68.8456 29.9005 68.8226 29.8218C68.8119 29.7808 68.8013 29.7432 68.796 29.7039C68.7779 29.6038 68.6477 29.5577 68.5708 29.6243C68.4621 29.7183 68.3443 29.8025 68.2178 29.8772C67.9712 30.0202 67.6928 30.0916 67.3806 30.0916C66.9833 30.0916 66.6552 29.9773 66.3962 29.7486C66.1373 29.5199 66.0078 29.1965 66.0078 28.7784C66.0078 28.2352 66.2153 27.8421 66.6321 27.5991C66.8592 27.4669 67.1961 27.3722 67.6378 27.315L68.028 27.2668C68.239 27.24 68.3916 27.206 68.482 27.165C68.6452 27.0953 68.7268 26.9845 68.7268 26.8362C68.7268 26.6557 68.6647 26.5307 68.5406 26.461C68.4164 26.3913 68.2319 26.3573 67.9907 26.3573C67.7194 26.3573 67.5278 26.4252 67.4161 26.5592C67.3575 26.6307 67.315 26.7218 67.2848 26.829C67.2635 26.9077 67.1908 26.9631 67.1092 26.9631H66.3554C66.2419 26.9631 66.155 26.8594 66.1728 26.7451C66.2189 26.4556 66.3182 26.218 66.4707 26.0179ZM67.3238 29.1214C67.4303 29.2108 67.5633 29.2554 67.7176 29.2554C67.9641 29.2554 68.1912 29.1822 68.3987 29.0375C68.6062 28.891 68.7144 28.6247 68.7232 28.2388V27.81C68.6505 27.8564 68.5778 27.8922 68.5033 27.9207C68.4288 27.9493 68.3277 27.9761 68.2 27.9994L67.9428 28.0476C67.7016 28.0905 67.5278 28.1441 67.4232 28.2048C67.2458 28.3103 67.1571 28.4729 67.1571 28.6944C67.1571 28.891 67.2121 29.0339 67.3221 29.1197L67.3238 29.1214Z" fill="#172031"/>
<path d="M71.8249 28.2196L72.4969 25.7215C72.5181 25.6412 72.5889 25.5859 72.6685 25.5859H73.4625C73.5846 25.5859 73.6712 25.7125 73.6305 25.832L72.2582 29.9208C71.9787 30.7571 71.7559 31.2742 71.5932 31.4757C71.4305 31.6772 71.1033 31.777 70.6117 31.777C70.5127 31.777 70.4348 31.777 70.3747 31.7752C70.3482 31.7752 70.3164 31.7735 70.2774 31.7717C70.1819 31.7663 70.1059 31.6861 70.1059 31.5862V30.9791C70.1059 30.9032 70.1699 30.8432 70.2456 30.848C70.3553 30.8533 70.4578 30.848 70.5569 30.8355C70.6559 30.8213 70.739 30.7909 70.8062 30.7428C70.8717 30.6964 70.9318 30.6019 70.9866 30.4557C71.0432 30.3095 71.0644 30.2203 71.0556 30.1882L69.5824 25.832C69.5417 25.7125 69.6284 25.5859 69.7504 25.5859H70.5993C70.6789 25.5859 70.7479 25.6394 70.7709 25.7179L71.4836 28.2214C71.5349 28.3997 71.7771 28.398 71.8249 28.2196Z" fill="#172031"/>
<path d="M76.8802 28.7833C77.0094 28.7833 77.0979 28.9142 77.0519 29.038C76.9864 29.2174 76.8714 29.4003 76.7085 29.585C76.3333 30.0155 75.8094 30.2325 75.135 30.2325C74.5775 30.2325 74.0872 30.0514 73.6624 29.6873C73.2376 29.3232 73.0234 28.7331 73.0234 27.9134C73.0234 27.1458 73.2146 26.5575 73.5987 26.1486C73.9828 25.7396 74.4819 25.5352 75.0943 25.5352C75.4589 25.5352 75.7864 25.6051 76.0784 25.7432C76.3705 25.8813 76.6112 26.1001 76.8006 26.3979C76.9722 26.6615 77.082 26.9664 77.1333 27.3126C77.1581 27.4812 77.1705 27.7108 77.1705 28.0031C77.1705 28.1071 77.0891 28.1914 76.9864 28.1914H74.3757C74.2642 28.1914 74.1775 28.2937 74.1934 28.4049C74.2412 28.7367 74.3722 28.9788 74.5881 29.1277C74.7456 29.2389 74.9368 29.2945 75.158 29.2945C75.3934 29.2945 75.5846 29.2263 75.7315 29.0918C75.7917 29.0362 75.8465 28.9663 75.8961 28.8784C75.928 28.8228 75.9828 28.7869 76.0465 28.7869H76.8784L76.8802 28.7833ZM75.7704 27.4256C75.8855 27.4256 75.9757 27.318 75.951 27.205C75.9085 27.0059 75.8271 26.8463 75.7049 26.7279C75.5403 26.57 75.3368 26.4893 75.0925 26.4893C74.827 26.4893 74.6217 26.5736 74.4766 26.7422C74.3722 26.8624 74.296 27.0131 74.2465 27.1924C74.2146 27.309 74.3049 27.4256 74.4253 27.4256H75.7687H75.7704Z" fill="#172031"/>
<path d="M79.3486 26.7351C78.8873 26.7351 78.5768 26.8862 78.4189 27.1868C78.3302 27.3557 78.2859 27.6171 78.2859 27.9692V29.8862C78.2859 29.9876 78.2042 30.0711 78.1013 30.0711H77.3154C77.2142 30.0711 77.1309 29.9893 77.1309 29.8862V25.8584C77.1309 25.757 77.2125 25.6735 77.3154 25.6735H78.041C78.1421 25.6735 78.2255 25.7553 78.2255 25.8584C78.2255 26.0291 78.4384 26.1056 78.5502 25.9775C78.5981 25.9206 78.6442 25.8762 78.6886 25.8406C78.9033 25.661 79.1818 25.5703 79.526 25.5703C79.5473 25.5703 79.565 25.5703 79.581 25.5721C79.5902 25.5721 79.8141 25.5736 79.9858 25.5751C80.0926 25.576 80.1773 25.6621 80.1773 25.769V26.5306C80.1773 26.6497 80.0726 26.7489 79.9535 26.7464C79.7646 26.7424 79.5232 26.7398 79.487 26.7386C79.4302 26.7369 79.3841 26.7351 79.3504 26.7351H79.3486Z" fill="#172031"/>
<path d="M59.0039 26.375V27.5625L59.0049 29.7939C59.0049 29.8726 58.941 29.9365 58.8623 29.9365H57.96C57.8814 29.9365 57.8174 29.8726 57.8174 29.7939V28.3955L56.3965 29.8398C56.3415 29.8958 56.2514 29.8965 56.1953 29.8418L55.5518 29.209C55.4957 29.1538 55.4947 29.0629 55.5498 29.0068L56.9717 27.5625H55.5859C55.5073 27.5625 55.4435 27.4985 55.4434 27.4199V26.5176C55.4434 26.4389 55.5073 26.375 55.5859 26.375H59.0039Z" fill="#172031"/>
<path d="M57.373 27.4189C57.373 27.4976 57.4368 27.5613 57.5155 27.5613H60.792C60.8706 27.5613 60.9344 27.4976 60.9344 27.4189V26.5167C60.9344 26.438 60.8706 26.3742 60.792 26.3742L58.5602 26.3742L58.5602 24.1425C58.5602 24.0638 58.4964 24 58.4177 24L57.5155 24C57.4368 24 57.373 24.0638 57.373 24.1425L57.373 27.4189Z" fill="#6C9CFA"/>
<path d="M57.8223 26.3828H59.012V27.5726H58.699C58.2148 27.5726 57.8223 27.18 57.8223 26.6958V26.3828Z" fill="#E2EBFE"/>
<path fill-rule="evenodd" clip-rule="evenodd" d="M138.035 25.9711C138.152 26.0822 138.156 26.2668 138.045 26.3834L136.57 27.9323H140.556C140.717 27.9323 140.848 28.0629 140.848 28.224C140.848 28.385 140.717 28.5156 140.556 28.5156H136.57L138.045 30.0645C138.156 30.1811 138.152 30.3657 138.035 30.4768C137.918 30.5879 137.734 30.5834 137.623 30.4668L135.678 28.4251C135.571 28.3125 135.571 28.1355 135.678 28.0228L137.623 25.9811C137.734 25.8645 137.918 25.86 138.035 25.9711Z" fill="#212329"/>
<path d="M47.666 39.5547H148.777" stroke="#F2F4F8" stroke-width="0.388889"/>
<path d="M57.6128 54.2683V55.5511C57.6128 55.7658 57.4387 55.94 57.2239 55.94H56.4483C56.1727 55.94 55.9492 55.7275 55.9492 55.4653V52.7282C55.9492 52.6257 56.0013 52.5296 56.0891 52.4703L58.2518 51.0078C58.3672 50.9297 58.522 50.9297 58.6374 51.0078L60.8001 52.4703C60.8878 52.5296 60.94 52.6257 60.94 52.7282V55.4653C60.94 55.7275 60.7165 55.94 60.4409 55.94H59.6653C59.4505 55.94 59.2764 55.7658 59.2764 55.5511V54.2683C59.2764 54.0936 59.1274 53.9519 58.9437 53.9519H57.9455C57.7618 53.9519 57.6128 54.0936 57.6128 54.2683Z" fill="#212329"/>
<path d="M72.4703 54.7352V56.3333H68.6604V54.7352H72.4703ZM69.3288 55.2457V55.8229H71.814V55.2457H69.3288ZM72.8045 51.3264V51.8368H68.3201V51.3264H70.2342V50.8464H70.9086V51.3264H72.8045ZM70.5684 52.0069C71.7411 52.0069 72.3974 52.2682 72.3974 52.7847C72.3974 53.2496 71.8687 53.5109 70.9086 53.5564V53.8785H73.0779V54.4132H68.071V53.8785H70.2342V53.5564C69.2802 53.5139 68.7454 53.2496 68.7454 52.7847C68.7454 52.2682 69.4078 52.0069 70.5684 52.0069ZM70.5684 52.4627C69.8392 52.4688 69.4685 52.5599 69.4685 52.7847C69.4685 53.0035 69.8392 53.1068 70.5684 53.1068C71.3036 53.1068 71.6743 53.0035 71.6743 52.7847C71.6743 52.5599 71.3036 52.4688 70.5684 52.4627Z" fill="#212329"/>
<path d="M53.8887 64.0547H142.555" stroke="#F2F4F8" stroke-width="0.388889"/>
<path d="M60.3429 74.0477V79.5408H59.6927V76.7639H59.0851V79.2613H58.4531V74.151H59.0851V76.2109H59.6927V74.0477H60.3429ZM56.5451 74.6797V77.5781C57.0191 77.569 57.5386 77.5295 58.1128 77.4141L58.1797 78.0035C57.4384 78.1372 56.8125 78.1736 56.2292 78.1736H55.8646V74.6797H56.5451ZM65.3194 74.8012C65.3194 75.6519 66.1519 76.5026 67.3003 76.7031L66.9965 77.2682C66.076 77.0738 65.3225 76.5178 64.967 75.7795C64.6024 76.5117 63.849 77.0707 62.9314 77.2682L62.6337 76.7031C63.77 76.4965 64.5964 75.6458 64.6024 74.8012V74.3941H65.3194V74.8012ZM67.5009 78.283V78.842H62.4818V78.283H67.5009ZM72.6293 74.0477V79.5408H71.9852V74.0477H72.6293ZM71.5356 74.1632V79.2674H70.8915V76.6788H70.2839V76.0773H70.8915V74.1632H71.5356ZM70.4236 74.6979V75.2448H70.0347V77.6146C70.2079 77.5994 70.372 77.5812 70.5269 77.5599L70.5694 78.0521C69.7066 78.2283 68.5764 78.2465 67.8776 78.2465L67.7986 77.6875C67.9475 77.6875 68.1146 77.6875 68.2969 77.6814V75.2448H67.908V74.6979H70.4236ZM68.9045 77.6693C69.0716 77.6693 69.2448 77.6632 69.4149 77.651V75.2448H68.9045V77.6693ZM77.8064 74.0477V79.5469H77.1259V74.0477H77.8064ZM74.8472 74.4488C75.6736 74.4488 76.2752 75.2023 76.2812 76.3872C76.2752 77.5842 75.6736 78.3316 74.8472 78.3316C74.0148 78.3316 73.4132 77.5842 73.4132 76.3872C73.4132 75.2023 74.0148 74.4488 74.8472 74.4488ZM74.8472 75.0564C74.3793 75.0564 74.0634 75.5486 74.0634 76.3872C74.0634 77.2318 74.3793 77.724 74.8472 77.724C75.309 77.724 75.625 77.2318 75.625 76.3872C75.625 75.5486 75.309 75.0564 74.8472 75.0564ZM81.4523 74.8012C81.4523 75.6519 82.2847 76.5026 83.4332 76.7031L83.1293 77.2682C82.2088 77.0738 81.4553 76.5178 81.0998 75.7795C80.7352 76.5117 79.9818 77.0707 79.0642 77.2682L78.7665 76.7031C79.9028 76.4965 80.7292 75.6458 80.7352 74.8012V74.3941H81.4523V74.8012ZM83.6337 78.283V78.842H78.6146V78.283H83.6337Z" fill="#212329"/>
<path fill-rule="evenodd" clip-rule="evenodd" d="M138.223 74.207C138.384 74.207 138.514 74.3376 138.514 74.4987V79.1654C138.514 79.3264 138.384 79.457 138.223 79.457C138.062 79.457 137.931 79.3264 137.931 79.1654V74.4987C137.931 74.3376 138.062 74.207 138.223 74.207Z" fill="#212329"/>
<path fill-rule="evenodd" clip-rule="evenodd" d="M140.848 76.832C140.848 76.9931 140.717 77.1237 140.556 77.1237L135.889 77.1237C135.728 77.1237 135.598 76.9931 135.598 76.832C135.598 76.6709 135.728 76.5404 135.889 76.5404L140.556 76.5404C140.717 76.5404 140.848 76.6709 140.848 76.832Z" fill="#212329"/>
<path d="M59.9223 90.3947V93.9039H59.3321V92.144H58.4814V91.6655H59.3321V90.3947H59.9223ZM60.0446 94.6216V95.1002H56.7694V93.5955H57.3596V94.6216H60.0446ZM57.6627 91.3518C57.6627 91.9313 58.0508 92.5268 58.7951 92.7714L58.4974 93.2446C57.9604 93.0611 57.5802 92.6969 57.3702 92.2397C57.1576 92.7475 56.7561 93.1489 56.1899 93.3456L55.8868 92.8671C56.6525 92.6172 57.0618 91.9845 57.0618 91.3465V91.2189H56.0623V90.7403H58.6569V91.2189H57.6627V91.3518ZM62.0703 91.8569C62.0703 92.6012 62.3787 93.3509 63.0486 93.7125L62.719 94.1484C62.2724 93.9118 61.9693 93.4891 61.7992 92.984C61.629 93.529 61.326 93.9942 60.874 94.2601L60.5284 93.8135C61.209 93.42 61.512 92.6172 61.512 91.8569V91.708H60.6933V91.2295H61.512V90.5596H62.0703V91.2295H62.8732V91.708H62.0703V91.8569ZM64.7394 90.3894V95.1959H64.1758V90.3894H64.7394ZM63.7611 90.4798V94.9619H63.2028V92.7235H62.5754V92.2344H63.2028V90.4798H63.7611Z" fill="#212329"/>
<rect x="55.4434" y="99.0547" width="10" height="0.777778" fill="#212329"/>
<path d="M74.6913 90.3894V95.1959H74.1224V92.7288H73.6067V94.9725H73.0537V90.517H73.6067V92.2503H74.1224V90.3894H74.6913ZM72.6443 90.9956C72.6443 92.2929 72.2349 93.4094 70.8685 94.191L70.5282 93.7816C71.5517 93.1887 71.985 92.4284 72.0701 91.4688H70.7515V90.9956H72.6443ZM79.2744 90.3947V93.8666H78.6789V90.3947H79.2744ZM79.4073 94.6216V95.1002H76.0949V93.5157H76.6904V94.6216H79.4073ZM76.6532 90.7084C77.3816 90.7084 77.9452 91.2135 77.9452 91.91C77.9452 92.6225 77.3816 93.117 76.6532 93.117C75.9195 93.117 75.3559 92.6225 75.3559 91.91C75.3559 91.2135 75.9195 90.7084 76.6532 90.7084ZM76.6532 91.2242C76.2438 91.2242 75.9301 91.4953 75.9354 91.91C75.9301 92.3354 76.2438 92.6012 76.6532 92.6012C77.052 92.6012 77.3657 92.3354 77.3657 91.91C77.3657 91.4953 77.052 91.2242 76.6532 91.2242Z" fill="#A9AFBB"/>
<path d="M87.6734 90.6712V91.1497H85.9508V91.5964H87.5352V92.0589H85.9508V92.5321C86.8493 92.5295 87.397 92.5135 88.0297 92.4098L88.0882 92.8724C87.397 92.9947 86.7962 93.0053 85.7594 93H85.35V90.6712H87.6734ZM89.0877 90.3947V93.2499H88.4922V90.3947H89.0877ZM89.0877 93.4626V95.1374H85.8976V93.4626H89.0877ZM86.4825 93.9198V94.6589H88.5082V93.9198H86.4825Z" fill="#A9AFBB"/>
<rect x="52.334" y="102.945" width="91.7778" height="21.7778" rx="3.11111" fill="white"/>
<rect x="53.8887" y="106.836" width="14" height="14" rx="7" fill="#EDF0F4"/>
<path d="M57.3867 111.667C57.3867 111.298 57.6852 111 58.0534 111H63.7201C64.0882 111 64.3867 111.298 64.3867 111.667V116C64.3867 116.368 64.0882 116.667 63.7201 116.667H58.0534C57.6852 116.667 57.3867 116.368 57.3867 116V111.667Z" fill="#A7C4FC"/>
<path d="M57.3867 111.667C57.3867 111.298 57.6852 111 58.0534 111H63.7201C64.0882 111 64.3867 111.298 64.3867 111.667V112.2H57.3867L57.3867 111.667Z" fill="#6C9CFA"/>
<path d="M60.7235 115.852L61.3353 112.793L60.9431 112.715L60.3313 115.774L60.7235 115.852Z" fill="white"/>
<path d="M60.1029 113.35L59.1696 114.283L60.1029 115.217L59.8201 115.5L58.6039 114.283L59.8201 113.067L60.1029 113.35Z" fill="white"/>
<path d="M61.6705 113.35L62.6039 114.283L61.6705 115.217L61.9534 115.5L63.1695 114.283L61.9534 113.067L61.6705 113.35Z" fill="white"/>
<path d="M76.084 107.612V110.574H75.5151V107.612H76.084ZM75.1748 107.697V110.568H74.6165V110.366H73.8509V109.962H74.6165V107.697H75.1748ZM71.9049 109.42C72.5483 109.42 73.6063 109.409 74.3932 109.287L74.4304 109.686C74.1354 109.749 73.8137 109.792 73.4894 109.819V110.552H72.9205V109.85C72.5642 109.869 72.2319 109.869 71.9634 109.866L71.9049 109.42ZM73.298 110.733V111.1H75.4938V110.733H76.084V112.36H72.7131V110.733H73.298ZM73.298 111.897H75.4938V111.552H73.298V111.897ZM73.181 107.782C73.8084 107.782 74.2337 108.053 74.2337 108.495C74.2337 108.931 73.8084 109.212 73.181 109.212C72.5483 109.212 72.1229 108.931 72.1229 108.495C72.1229 108.053 72.5483 107.782 73.181 107.782ZM73.181 108.192C72.8567 108.192 72.6599 108.298 72.6599 108.495C72.6599 108.697 72.8567 108.798 73.181 108.798C73.4947 108.798 73.702 108.697 73.7074 108.495C73.702 108.298 73.4947 108.192 73.181 108.192ZM81.9378 107.612V112.424H81.353V107.612H81.9378ZM80.4597 108.032V109.835H78.8062V110.802C79.5639 110.797 80.2178 110.76 80.9648 110.632L81.018 111.116C80.1992 111.259 79.4814 111.286 78.6201 111.286H78.2001V109.367H79.8589V108.511H78.1948V108.032H80.4597ZM86.5209 109.165V109.643H83.182V107.841H83.7721V109.165H86.5209ZM87.0207 110.233V110.712H85.968V112.419H85.3725V110.712H84.2879V112.419H83.6977V110.712H82.6396V110.233H87.0207ZM91.3699 107.612V110.026H90.7797V109.09H89.9131C89.7961 109.614 89.307 109.962 88.6796 109.962C87.9512 109.962 87.4089 109.505 87.4089 108.851C87.4089 108.213 87.9512 107.761 88.6796 107.761C89.3043 107.761 89.7908 108.104 89.9131 108.612H90.7797V107.612H91.3699ZM88.6796 108.239C88.2649 108.239 87.9724 108.484 87.9724 108.851C87.9724 109.239 88.2649 109.478 88.6796 109.478C89.0783 109.478 89.3708 109.239 89.3761 108.851C89.3708 108.484 89.0783 108.239 88.6796 108.239ZM91.3699 110.26V111.504H88.7965V111.892H91.5241V112.36H88.2064V111.068H90.7797V110.717H88.2011V110.26H91.3699ZM97.7342 111.345V111.839H93.3424V111.345H97.7342ZM97.3513 108.059V108.532H96.6495V110.063H97.3354V110.531H93.7199V110.063H94.3952V108.532H93.704V108.059H97.3513ZM94.9854 110.063H96.0647V108.532H94.9854V110.063ZM102.44 111.371V111.86H98.0478V111.371H99.9406V110.59H98.5689V109.016H101.334V108.42H98.5583V107.942H101.919V109.484H99.1591V110.106H102.03V110.59H100.525V111.371H102.44ZM105.917 107.713V110.51H105.353V109.298H104.752V108.819H105.353V107.713H105.917ZM104.237 108.644C104.237 109.159 104.524 109.68 105.135 109.925L104.837 110.377C104.412 110.212 104.125 109.904 103.96 109.531C103.785 109.949 103.479 110.292 103.024 110.478L102.716 110.015C103.359 109.76 103.662 109.191 103.662 108.644V108.452H102.854V107.979H104.997V108.452H104.237V108.644ZM106.863 107.612V110.542H106.3V107.612H106.863ZM106.863 110.733V112.419H106.273V111.206H103.572V110.733H106.863ZM111.367 110.132V110.6H107.996V107.99H111.324V108.468H108.596V109.048H111.212V109.51H108.596V110.132H111.367ZM111.85 111.35V111.834H107.459V111.35H111.85Z" fill="#212329"/>
<path d="M75.6647 119.235V119.6H71.9277V119.235H75.6647ZM75.3229 116.419V116.774H74.6986V118.137H75.3092V118.483H72.2559V118.137H72.8665V116.774H72.2467V116.419H75.3229ZM73.2949 118.137H74.2747V116.774H73.2949V118.137ZM79.6979 119.258V119.622H75.9609V119.258H77.6061V118.542H76.4167V117.243H78.8138V116.669H76.4076V116.314H79.2422V117.59H76.8451V118.187H79.3379V118.542H78.0345V119.258H79.6979ZM82.6738 116.113V118.488H82.2637V117.417H81.694V117.066H82.2637V116.113H82.6738ZM81.2292 116.902C81.2292 117.344 81.498 117.804 82.0176 118.018L81.7988 118.351C81.4274 118.198 81.1722 117.916 81.0286 117.581C80.8828 117.957 80.6139 118.273 80.2174 118.442L79.985 118.1C80.5273 117.882 80.8099 117.376 80.8099 116.902V116.701H80.0853V116.35H81.9128V116.701H81.2292V116.902ZM83.4759 116.027V118.52H83.0658V116.027H83.4759ZM83.4759 118.688V120.11H83.0475V119.039H80.7005V118.688H83.4759ZM87.3405 118.201V118.547H84.4967V116.364H87.2995V116.715H84.9342V117.266H87.2129V117.608H84.9342V118.201H87.3405ZM87.7643 119.24V119.595H84.0273V119.24H87.7643ZM92.9277 118.014V118.36H89.1999V118.014H90.8542V117.581H89.6647V116.214H92.4674V116.555H90.0931V117.234H92.4948V117.581H91.2734V118.014H92.9277ZM91.0592 118.624C91.9388 118.624 92.4674 118.893 92.4674 119.367C92.4674 119.841 91.9388 120.105 91.0592 120.11C90.1751 120.105 89.6419 119.841 89.6419 119.367C89.6419 118.893 90.1751 118.624 91.0592 118.624ZM91.0592 118.962C90.4349 118.962 90.0794 119.107 90.0794 119.367C90.0794 119.627 90.4349 119.773 91.0592 119.768C91.6745 119.773 92.0345 119.627 92.0345 119.367C92.0345 119.107 91.6745 118.962 91.0592 118.962ZM96.4414 116.022V117.243H97.0339V117.608H96.4414V119.025H96.0085V116.022H96.4414ZM96.6146 119.673V120.023H93.8529V118.711H94.2858V119.673H96.6146ZM94.3815 116.305C94.9967 116.305 95.4661 116.724 95.4707 117.321C95.4661 117.913 94.9967 118.337 94.3815 118.337C93.7663 118.337 93.2923 117.913 93.2969 117.321C93.2923 116.724 93.7663 116.305 94.3815 116.305ZM94.3815 116.683C94.0078 116.683 93.7161 116.943 93.7207 117.321C93.7161 117.699 94.0078 117.959 94.3815 117.959C94.7598 117.959 95.0469 117.699 95.0469 117.321C95.0469 116.943 94.7598 116.683 94.3815 116.683ZM99.9186 116.879C99.9186 117.408 100.311 117.904 100.939 118.105L100.716 118.442C100.247 118.287 99.8913 117.966 99.709 117.558C99.5244 118.002 99.1621 118.353 98.6745 118.524L98.4512 118.182C99.0846 117.968 99.4766 117.439 99.4811 116.879V116.701H98.5651V116.35H100.816V116.701H99.9186V116.879ZM101.792 116.031V119.012H101.359V116.031H101.792ZM101.915 119.673V120.023H99.1211V118.729H99.5586V119.673H101.915ZM105.921 116.027V118.602H105.51V117.462H105.036V118.46H104.631V116.104H105.036V117.107H105.51V116.027H105.921ZM104.48 116.492V116.833H102.416V116.492H103.241V116.059H103.669V116.492H104.48ZM103.451 117.025C103.97 117.025 104.335 117.303 104.335 117.727C104.335 118.15 103.97 118.428 103.451 118.428C102.94 118.428 102.576 118.15 102.576 117.727C102.576 117.303 102.94 117.025 103.451 117.025ZM103.451 117.344C103.163 117.344 102.963 117.494 102.963 117.727C102.963 117.959 103.163 118.114 103.451 118.114C103.747 118.114 103.943 117.959 103.943 117.727C103.943 117.494 103.747 117.344 103.451 117.344ZM104.553 118.661C105.419 118.661 105.939 118.921 105.943 119.385C105.939 119.841 105.419 120.105 104.553 120.101C103.688 120.105 103.168 119.841 103.173 119.385C103.168 118.921 103.688 118.661 104.553 118.661ZM104.553 118.993C103.947 118.993 103.596 119.13 103.601 119.385C103.596 119.632 103.947 119.773 104.553 119.768C105.164 119.773 105.506 119.632 105.51 119.385C105.506 119.13 105.164 118.993 104.553 118.993ZM108.851 117.335V117.686H108.053V118.201C108.416 118.185 108.776 118.16 109.111 118.123L109.143 118.442C108.272 118.561 107.315 118.583 106.549 118.583L106.49 118.237C106.839 118.235 107.229 118.23 107.625 118.219V117.686H106.855V116.286H108.814V116.637H107.288V117.335H108.851ZM109.858 116.027V119.089H109.425V116.027H109.858ZM109.986 119.673V120.023H107.165V118.87H107.598V119.673H109.986ZM115.021 116.027V120.11H114.589V116.027H115.021ZM111.667 118.998C112.002 118.996 112.387 118.993 112.788 118.98V118.574C112.31 118.513 112 118.232 112.005 117.831C112 117.371 112.401 117.066 112.993 117.066C113.59 117.066 114.001 117.371 114.001 117.831C114.001 118.228 113.691 118.506 113.217 118.57V118.966C113.595 118.95 113.978 118.921 114.338 118.875L114.37 119.199C113.463 119.349 112.474 119.358 111.727 119.358L111.667 118.998ZM114.247 116.514V116.861H111.754V116.514H112.788V116.036H113.221V116.514H114.247ZM112.993 117.403C112.652 117.403 112.41 117.572 112.415 117.831C112.41 118.091 112.652 118.251 112.993 118.251C113.344 118.251 113.586 118.091 113.586 117.831C113.586 117.572 113.344 117.403 112.993 117.403ZM118.982 116.419V116.82C118.982 117.326 118.982 117.891 118.827 118.725L118.389 118.679C118.549 117.891 118.549 117.312 118.549 116.82V116.77H116.07V116.419H118.982ZM119.401 119.199V119.559H115.678V119.199H117.095V117.758H117.523V119.199H119.401ZM120.937 116.286C121.566 116.286 122.035 116.683 122.035 117.257C122.035 117.763 121.671 118.13 121.156 118.21V118.857C121.518 118.841 121.88 118.813 122.217 118.77L122.249 119.094C121.388 119.244 120.436 119.249 119.729 119.244L119.661 118.889C119.978 118.886 120.342 118.884 120.723 118.875V118.21C120.194 118.134 119.834 117.765 119.839 117.257C119.834 116.683 120.294 116.286 120.937 116.286ZM120.937 116.651C120.545 116.656 120.258 116.893 120.258 117.257C120.258 117.622 120.545 117.863 120.937 117.859C121.324 117.863 121.607 117.622 121.611 117.257C121.607 116.893 121.324 116.656 120.937 116.651ZM122.896 116.027V117.686H123.525V118.05H122.896V120.11H122.464V116.027H122.896ZM128.27 116.031V118.998H127.837V116.031H128.27ZM128.393 119.673V120.023H125.599V118.697H126.036V119.673H128.393ZM126.055 116.305C126.67 116.305 127.139 116.724 127.139 117.316C127.139 117.918 126.67 118.333 126.055 118.333C125.439 118.333 124.965 117.918 124.965 117.316C124.965 116.724 125.439 116.305 126.055 116.305ZM126.055 116.683C125.672 116.683 125.389 116.943 125.389 117.316C125.389 117.699 125.672 117.954 126.055 117.954C126.428 117.954 126.715 117.699 126.715 117.316C126.715 116.943 126.428 116.683 126.055 116.683ZM130.334 117.066C130.329 117.79 130.749 118.529 131.359 118.825L131.09 119.171C130.646 118.941 130.302 118.483 130.124 117.936C129.94 118.52 129.582 119.007 129.117 119.249L128.848 118.898C129.477 118.597 129.901 117.813 129.901 117.066V116.368H130.334V117.066ZM132.098 116.027V117.654H132.754V118.023H132.098V120.11H131.665V116.027H132.098ZM133.415 119.755C133.237 119.755 133.087 119.609 133.091 119.431C133.087 119.253 133.237 119.107 133.415 119.107C133.588 119.107 133.738 119.253 133.738 119.431C133.738 119.609 133.588 119.755 133.415 119.755ZM134.645 119.755C134.467 119.755 134.317 119.609 134.322 119.431C134.317 119.253 134.467 119.107 134.645 119.107C134.818 119.107 134.969 119.253 134.969 119.431C134.969 119.609 134.818 119.755 134.645 119.755ZM135.876 119.755C135.698 119.755 135.548 119.609 135.552 119.431C135.548 119.253 135.698 119.107 135.876 119.107C136.049 119.107 136.199 119.253 136.199 119.431C136.199 119.609 136.049 119.755 135.876 119.755Z" fill="#8B909C"/>
<rect x="52.334" y="126.281" width="91.7778" height="1.55556" fill="white"/>
<rect x="56.2227" y="130.172" width="9.33333" height="9.33333" rx="3.11111" fill="#F2F4F8"/>
<g clip-path="url(#clip2_1978_112997)">
<path fill-rule="evenodd" clip-rule="evenodd" d="M61.2214 133.129C61.3466 133.129 61.4482 133.23 61.4482 133.356V136.985C61.4482 137.111 61.3466 137.212 61.2214 137.212C61.0961 137.212 60.9945 137.111 60.9945 136.985V133.356C60.9945 133.23 61.0961 133.129 61.2214 133.129Z" fill="#8B909C"/>
<path fill-rule="evenodd" clip-rule="evenodd" d="M63.263 135.171C63.263 135.296 63.1615 135.397 63.0362 135.397L59.4065 135.397C59.2813 135.397 59.1797 135.296 59.1797 135.171C59.1797 135.045 59.2813 134.944 59.4065 134.944L63.0362 134.944C63.1615 134.944 63.263 135.045 63.263 135.171Z" fill="#8B909C"/>
</g>
<path d="M74.372 133.199C74.372 133.975 75.2014 134.709 76.1159 134.874L75.8819 135.294C75.1216 135.129 74.4198 134.629 74.1114 133.96C73.7977 134.624 73.0986 135.124 72.3356 135.294L72.1123 134.874C73.0162 134.704 73.8403 133.975 73.8403 133.199V132.838H74.372V133.199ZM76.3126 136.24V136.66H71.9528V136.24H76.3126ZM80.7788 132.524V137.288H80.2949V132.524H80.7788ZM79.8377 132.63V137.043H79.3592V134.762H78.7637V134.31H79.3592V132.63H79.8377ZM78.8913 133.109V133.524H78.5244V135.65C78.6866 135.64 78.8434 135.621 78.987 135.602L79.0242 135.969C78.2692 136.118 77.2803 136.139 76.6635 136.139L76.605 135.714C76.7433 135.714 76.9028 135.714 77.0729 135.709V133.524H76.7061V133.109H78.8913ZM77.5302 135.703C77.703 135.698 77.8811 135.693 78.0565 135.682V133.524H77.5302V135.703ZM85.3087 132.524V137.299H84.8036V132.524H85.3087ZM82.7619 132.88C83.4691 132.88 83.9901 133.529 83.9901 134.55C83.9901 135.576 83.4691 136.225 82.7619 136.225C82.0442 136.225 81.5284 135.576 81.5284 134.55C81.5284 133.529 82.0442 132.88 82.7619 132.88ZM82.7619 133.332C82.3206 133.332 82.0176 133.8 82.0176 134.55C82.0176 135.305 82.3206 135.773 82.7619 135.773C83.1979 135.773 83.501 135.305 83.501 134.55C83.501 133.8 83.1979 133.332 82.7619 133.332ZM88.4882 133.199C88.4882 133.975 89.3176 134.709 90.2321 134.874L89.9982 135.294C89.2378 135.129 88.536 134.629 88.2276 133.96C87.914 134.624 87.2148 135.124 86.4518 135.294L86.2285 134.874C87.1324 134.704 87.9565 133.975 87.9565 133.199V132.838H88.4882V133.199ZM90.4288 136.24V136.66H86.069V136.24H90.4288ZM96.4475 135.395V135.81H94.5228V137.293H94.023V135.81H92.1036V135.395H96.4475ZM96.0328 133.098V133.508H94.5281C94.5573 134.034 95.2751 134.547 96.1816 134.661L96.0009 135.065C95.2352 134.959 94.5839 134.6 94.2782 134.114C93.9672 134.606 93.3105 134.959 92.5449 135.065L92.3588 134.661C93.2654 134.547 93.9884 134.045 94.023 133.508H92.513V133.098H94.023V132.524H94.5228V133.098H96.0328ZM100.52 132.524V134.422H101.259V134.842H100.52V137.283H100.015V132.524H100.52ZM99.276 133.024C99.2707 134.401 98.6646 135.629 97.0961 136.405L96.8143 136.012C98.008 135.416 98.6566 134.555 98.7603 133.444H97.0536V133.024H99.276Z" fill="#8B909C"/>
</g>
<g filter="url(#filter0_dd_1978_112997)">
<rect x="17" y="84" width="150" height="29.4189" rx="6" fill="white" shape-rendering="crispEdges"/>
<rect x="16.2" y="83.2" width="151.6" height="31.0189" rx="6.8" stroke="#6C9CFA" stroke-width="1.6" shape-rendering="crispEdges"/>
<rect x="23.3574" y="91.0859" width="15.2542" height="15.2542" rx="5.08475" fill="#EDF0F4"/>
<path fill-rule="evenodd" clip-rule="evenodd" d="M31.0966 95.832C31.3014 95.832 31.4674 95.998 31.4674 96.2028V102.135C31.4674 102.34 31.3014 102.506 31.0966 102.506C30.8919 102.506 30.7259 102.34 30.7259 102.135V96.2028C30.7259 95.998 30.8919 95.832 31.0966 95.832Z" fill="#212329"/>
<path fill-rule="evenodd" clip-rule="evenodd" d="M34.4335 99.1689C34.4335 99.3737 34.2675 99.5397 34.0627 99.5397L28.1305 99.5397C27.9258 99.5397 27.7598 99.3737 27.7598 99.1689C27.7598 98.9641 27.9258 98.7981 28.1305 98.7981L34.0627 98.7981C34.2675 98.7981 34.4335 98.9641 34.4335 99.1689Z" fill="#212329"/>
<path d="M53.0981 95.7063C53.0981 96.9229 54.2886 98.1394 55.931 98.4262L55.4965 99.2344C54.18 98.9563 53.1024 98.1612 52.5941 97.1054C52.0727 98.1525 50.9952 98.9519 49.683 99.2344L49.2572 98.4262C50.8822 98.1308 52.064 96.9142 52.0727 95.7063V95.1241H53.0981V95.7063ZM56.2177 100.686V101.485H49.04V100.686H56.2177ZM63.5519 94.6288V102.484H62.6308V94.6288H63.5519ZM61.9877 94.7939V102.093H61.0666V98.3915H60.1976V97.5312H61.0666V94.7939H61.9877ZM60.3975 95.5586V96.3407H59.8413V99.7297C60.089 99.7079 60.3236 99.6819 60.5452 99.6515L60.606 100.355C59.3721 100.607 57.7558 100.633 56.7565 100.633L56.6435 99.834L57.3561 99.8253V96.3407H56.7999V95.5586H60.3975ZM58.2251 99.8079L58.955 99.7818V96.3407H58.2251V99.8079ZM70.9555 94.6288V102.493H69.9823V94.6288H70.9555ZM66.7236 95.2023C67.9054 95.2023 68.7657 96.2798 68.7744 97.9743C68.7657 99.6862 67.9054 100.755 66.7236 100.755C65.5331 100.755 64.6729 99.6862 64.6729 97.9743C64.6729 96.2798 65.5331 95.2023 66.7236 95.2023ZM66.7236 96.0713C66.0545 96.0713 65.6027 96.7752 65.6027 97.9743C65.6027 99.1822 66.0545 99.8861 66.7236 99.8861C67.3841 99.8861 67.8359 99.1822 67.8359 97.9743C67.8359 96.7752 67.3841 96.0713 66.7236 96.0713ZM76.1694 95.7063C76.1694 96.9229 77.3599 98.1394 79.0023 98.4262L78.5678 99.2344C77.2513 98.9563 76.1737 98.1612 75.6654 97.1054C75.144 98.1525 74.0665 98.9519 72.7543 99.2344L72.3285 98.4262C73.9535 98.1308 75.1353 96.9142 75.144 95.7063V95.1241H76.1694V95.7063ZM79.289 100.686V101.485H72.1113V100.686H79.289ZM89.0737 99.3473V100.138H85.9627V102.493H85.0069V100.138H81.9133V99.3473H89.0737ZM88.4046 95.5586V96.3233H85.9801C86.0714 97.101 87.0924 97.9135 88.6653 98.1047L88.309 98.8694C87.0099 98.7043 86.0018 98.1308 85.4935 97.3748C84.9765 98.1394 83.9598 98.7043 82.6519 98.8694L82.3044 98.1047C83.8729 97.9135 84.9026 97.1141 84.9982 96.3233H82.5737V95.5586H85.0069V94.6375H85.9627V95.5586H88.4046ZM95.7561 94.6288V97.6963H96.9205V98.5044H95.7561V102.467H94.7915V94.6288H95.7561ZM93.6792 95.4456C93.6792 97.7571 92.7234 99.7818 90.1078 101.068L89.5603 100.321C91.472 99.369 92.5061 98.0308 92.706 96.2451H89.9861V95.4456H93.6792Z" fill="#212329"/>
</g>
<path d="M152.027 117.986C151.837 117.791 151.722 117.548 151.658 117.283L151.655 117.27L149.832 108.871L149.834 108.871C149.534 107.579 150.828 106.493 152.049 107.012L152.05 107.011L160.005 110.264L160.017 110.269C161.125 110.749 161.34 112.228 160.415 113.004L159.639 113.654L162.64 117.23C162.955 117.606 163.173 118.069 163.188 118.562C163.203 119.074 162.994 119.563 162.556 119.93L160.717 121.473C160.274 121.845 159.76 121.953 159.262 121.816C158.8 121.69 158.415 121.374 158.12 121.023L155.12 117.447L154.169 118.245L154.025 118.276C153.605 118.368 153.115 118.448 152.683 118.348C152.45 118.293 152.218 118.182 152.027 117.986Z" fill="#C4D7FD" stroke="#6C9CFA" stroke-width="1.2"/>
</g>
<defs>
<filter id="filter0_dd_1978_112997" x="2.54325" y="73.827" width="178.914" height="58.3354" filterUnits="userSpaceOnUse" color-interpolation-filters="sRGB">
<feFlood flood-opacity="0" result="BackgroundImageFix"/>
<feColorMatrix in="SourceAlpha" type="matrix" values="0 0 0 0 0 0 0 0 0 0 0 0 0 0 0 0 0 0 127 0" result="hardAlpha"/>
<feOffset dy="4.28571"/>
<feGaussianBlur stdDeviation="4.28571"/>
<feComposite in2="hardAlpha" operator="out"/>
<feColorMatrix type="matrix" values="0 0 0 0 0.0235294 0 0 0 0 0.0313726 0 0 0 0 0.0470588 0 0 0 0.08 0"/>
<feBlend mode="normal" in2="BackgroundImageFix" result="effect1_dropShadow_1978_112997"/>
<feColorMatrix in="SourceAlpha" type="matrix" values="0 0 0 0 0 0 0 0 0 0 0 0 0 0 0 0 0 0 127 0" result="hardAlpha"/>
<feOffset dy="4.28571"/>
<feGaussianBlur stdDeviation="6.42857"/>
<feComposite in2="hardAlpha" operator="out"/>
<feColorMatrix type="matrix" values="0 0 0 0 0.0235294 0 0 0 0 0.0313726 0 0 0 0 0.0470588 0 0 0 0.12 0"/>
<feBlend mode="normal" in2="effect1_dropShadow_1978_112997" result="effect2_dropShadow_1978_112997"/>
<feBlend mode="normal" in="SourceGraphic" in2="effect2_dropShadow_1978_112997" result="shape"/>
</filter>
<clipPath id="clip0_1978_112997">
<path d="M0 8C0 3.58172 3.58172 0 8 0H264C268.418 0 272 3.58172 272 8V138H0V8Z" fill="white"/>
</clipPath>
<clipPath id="clip1_1978_112997">
<rect x="43" y="10" width="560" height="350" rx="6" fill="white"/>
</clipPath>
<clipPath id="clip2_1978_112997">
<rect width="5.44444" height="5.44444" fill="white" transform="translate(58.5 132.449)"/>
</clipPath>
</defs>
</svg>
