<svg width="112" height="59" viewBox="0 0 112 59" fill="none" xmlns="http://www.w3.org/2000/svg">
<path d="M73 59L77 39H94.5L73 59Z" fill="white"/>
<path d="M0 23C0 10.2975 10.2975 0 23 0H89C101.703 0 112 10.2975 112 23C112 35.7025 101.703 46 89 46H23C10.2975 46 0 35.7025 0 23Z" fill="white"/>
<path d="M23.4297 32V15.0312H34.6094V17.9375H26.9453V22.0625H33.8828V24.9688H26.9453V32H23.4297ZM37.3394 32V19.2734H40.8081V32H37.3394ZM37.1753 15.8516C37.1753 14.8672 38.0308 14.082 39.0737 14.0703C40.105 14.082 40.9605 14.8672 40.9487 15.8516C40.9605 16.8125 40.105 17.6094 39.0737 17.6094C38.0308 17.6094 37.1753 16.8125 37.1753 15.8516ZM47.4522 24.6406V32H43.9834V19.2734H47.2881V21.5H47.4287C48.003 20.0352 49.3623 19.1094 51.2491 19.1094C53.9092 19.1094 55.6436 20.9258 55.6319 23.8906V32H52.1866V24.5C52.1748 22.9297 51.3311 21.9922 49.8897 21.9922C48.4483 21.9922 47.4522 22.9648 47.4522 24.6406ZM58.8072 32V19.2734H62.2759V32H58.8072ZM58.6431 15.8516C58.6431 14.8672 59.4986 14.082 60.5416 14.0703C61.5728 14.082 62.4283 14.8672 62.4166 15.8516C62.4283 16.8125 61.5728 17.6094 60.5416 17.6094C59.4986 17.6094 58.6431 16.8125 58.6431 15.8516ZM72.7169 23.0469C72.5645 22.1562 71.7911 21.582 70.6309 21.5703C69.5059 21.582 68.6505 22.1094 68.6622 22.8828C68.6505 23.457 69.0958 23.9023 70.3028 24.1484L72.5762 24.6172C75.0489 25.1328 76.2442 26.2344 76.2559 28.0625C76.2442 30.5703 73.9942 32.2461 70.6075 32.2578C67.1739 32.2461 65.1583 30.7109 64.8653 28.2266H68.3575C68.5216 29.2227 69.3302 29.7383 70.6075 29.75C71.8731 29.7383 72.7169 29.2344 72.7169 28.4141C72.7169 27.7578 72.1778 27.3477 70.9825 27.1016L68.8731 26.6797C66.4473 26.1992 65.2052 24.957 65.2169 23.0703C65.2052 20.6328 67.3028 19.1094 70.5841 19.1094C73.795 19.1094 75.7872 20.6328 75.9747 23.0469H72.7169ZM82.3375 24.6406V32H78.8688V15.0313H82.2438V21.5H82.3844C82.9703 20.0117 84.2477 19.1094 86.1813 19.1094C88.8414 19.1094 90.5875 20.9023 90.5875 23.8906V32H87.1188V24.5C87.1188 22.918 86.275 21.9922 84.8219 21.9922C83.357 21.9922 82.3375 22.9648 82.3375 24.6406Z" fill="#6C9CFA"/>
</svg>
