<svg width="56" height="57" viewBox="0 0 56 57" fill="none" xmlns="http://www.w3.org/2000/svg">
<circle cx="28" cy="28.666" r="22" fill="#D2D9E0"/>
<path fill-rule="evenodd" clip-rule="evenodd" d="M23.9993 24.666C23.9993 25.7706 23.1039 26.666 21.9993 26.666C20.8947 26.666 19.9993 25.7706 19.9993 24.666C19.9993 23.5614 20.8947 22.666 21.9993 22.666C23.1039 22.666 23.9993 23.5614 23.9993 24.666ZM19.6597 34.1175C19.4129 34.4788 18.9206 34.575 18.5555 34.3317C18.1879 34.0866 18.0886 33.5899 18.3337 33.2223L18.9993 33.666C18.3337 33.2223 18.334 33.2217 18.3344 33.2212L18.3352 33.22L18.3369 33.2175L18.3408 33.2117L18.3512 33.1968C18.3592 33.1854 18.3693 33.1713 18.3818 33.1546C18.4066 33.1212 18.4406 33.0775 18.4843 33.025C18.5719 32.9199 18.6988 32.7796 18.871 32.6165C19.2158 32.2898 19.7404 31.8733 20.4912 31.4637C21.997 30.6424 24.3814 29.866 27.9993 29.866C31.6172 29.866 34.0016 30.6424 35.5074 31.4637C36.2583 31.8733 36.7828 32.2898 37.1276 32.6165C37.2998 32.7796 37.4267 32.9199 37.5143 33.025C37.558 33.0775 37.592 33.1212 37.6168 33.1546C37.6293 33.1713 37.6394 33.1854 37.6474 33.1968L37.6578 33.2117L37.6618 33.2175L37.6634 33.22L37.6642 33.2212C37.6646 33.2217 37.6649 33.2223 36.9993 33.666L37.6649 33.2223C37.91 33.5899 37.8107 34.0866 37.4431 34.3317C37.078 34.575 36.5857 34.4788 36.3389 34.1175L36.3334 34.11C36.3256 34.0995 36.3097 34.0788 36.2851 34.0493C36.236 33.9903 36.1519 33.8961 36.0272 33.778C35.7783 33.5422 35.3654 33.2088 34.7412 32.8683C33.497 32.1897 31.3814 31.466 27.9993 31.466C24.6172 31.466 22.5016 32.1897 21.2574 32.8683C20.6333 33.2088 20.2203 33.5422 19.9714 33.778C19.8467 33.8961 19.7626 33.9903 19.7135 34.0493C19.6889 34.0788 19.673 34.0995 19.6652 34.11L19.6597 34.1175ZM33.9993 26.666C35.1039 26.666 35.9993 25.7706 35.9993 24.666C35.9993 23.5614 35.1039 22.666 33.9993 22.666C32.8947 22.666 31.9993 23.5614 31.9993 24.666C31.9993 25.7706 32.8947 26.666 33.9993 26.666Z" fill="white"/>
</svg>
