<svg width="56" height="57" viewBox="0 0 56 57" fill="none" xmlns="http://www.w3.org/2000/svg">
<circle cx="27.2137" cy="27.8778" r="22.0028" fill="#D2D9E0"/>
<path fill-rule="evenodd" clip-rule="evenodd" d="M23.2141 23.8772C23.2141 24.9819 22.3186 25.8775 21.2139 25.8775C20.1091 25.8775 19.2136 24.9819 19.2136 23.8772C19.2136 22.7725 20.1091 21.877 21.2139 21.877C22.3186 21.877 23.2141 22.7725 23.2141 23.8772ZM17.9164 29.1352C18.3255 28.9715 18.7897 29.1696 18.955 29.5777L18.9563 29.5809C18.9583 29.5855 18.9622 29.5946 18.9681 29.6079C18.9799 29.6344 18.9999 29.6776 19.0286 29.7351C19.0862 29.8501 19.1786 30.0218 19.3113 30.2313C19.577 30.6509 20.0014 31.2177 20.6268 31.7863C21.8647 32.9117 23.9262 34.0786 27.2146 34.0786C30.503 34.0786 32.5645 32.9117 33.8024 31.7863C34.4278 31.2177 34.8522 30.6509 35.118 30.2313C35.2507 30.0218 35.3431 29.8501 35.4006 29.7351C35.4293 29.6776 35.4493 29.6344 35.4611 29.6079C35.4671 29.5946 35.471 29.5855 35.4729 29.5809L35.4733 29.58L35.4736 29.5793L35.4743 29.5777C35.6395 29.1696 36.1037 28.9715 36.5129 29.1352C36.9231 29.2993 37.1226 29.7649 36.9585 30.1751L36.2158 29.878C36.9585 30.1751 36.9584 30.1755 36.9582 30.176L36.9577 30.1771L36.9568 30.1795L36.9542 30.1858L36.9467 30.2037C36.9407 30.218 36.9325 30.237 36.922 30.2604C36.9012 30.3071 36.8713 30.3714 36.8317 30.4506C36.7525 30.609 36.6339 30.8281 36.4697 31.0874C36.1416 31.6054 35.6284 32.2887 34.8787 32.9702C33.3662 34.3452 30.9271 35.6786 27.2146 35.6786C23.5021 35.6786 21.063 34.3452 19.5506 32.9702C18.8008 32.2887 18.2876 31.6054 17.9595 31.0874C17.7953 30.8281 17.6768 30.609 17.5976 30.4506C17.5579 30.3714 17.5281 30.3071 17.5072 30.2604C17.4968 30.237 17.4886 30.218 17.4825 30.2037L17.475 30.1858L17.4725 30.1795L17.4715 30.1771L17.4711 30.176C17.4709 30.1755 17.4707 30.1751 18.2135 29.878L17.4707 30.1751C17.3066 29.7649 17.5061 29.2993 17.9164 29.1352ZM33.2154 25.8775C34.3201 25.8775 35.2156 24.9819 35.2156 23.8772C35.2156 22.7725 34.3201 21.877 33.2154 21.877C32.1107 21.877 31.2151 22.7725 31.2151 23.8772C31.2151 24.9819 32.1107 25.8775 33.2154 25.8775Z" fill="white"/>
</svg>
