<svg width="28" height="28" viewBox="0 0 28 28" fill="none" xmlns="http://www.w3.org/2000/svg">
<circle cx="13.4398" cy="13.4398" r="5.6" fill="white"/>
<path d="M18.586 7.81832C20.0333 9.26568 20.8605 11.2147 20.8854 13.2366C20.9104 15.2585 20.1311 17.1877 18.719 18.5998C17.3069 20.0119 15.3777 20.7912 13.3558 20.7662C11.3339 20.7413 9.38486 19.9142 7.9375 18.4668" stroke="white" stroke-width="0.896"/>
<path d="M17.9219 8.9593L19.6019 7.2793" stroke="white" stroke-width="0.896"/>
<path d="M7.28125 19.5999L8.96125 17.9199" stroke="white" stroke-width="0.896"/>
<path d="M17.3989 9.47966C17.9189 9.99966 18.3314 10.617 18.6129 11.2964C18.8943 11.9758 19.0391 12.7041 19.0391 13.4395C19.0391 14.1749 18.8943 14.9031 18.6129 15.5825C18.3314 16.2619 17.9189 16.8792 17.3989 17.3993C16.8789 17.9193 16.2616 18.3318 15.5822 18.6132C14.9027 18.8946 14.1745 19.0395 13.4391 19.0395C12.7037 19.0395 11.9755 18.8946 11.2961 18.6132C10.6167 18.3318 9.99934 17.9193 9.47933 17.3993L13.4391 13.4395L17.3989 9.47966Z" fill="#AAC7FF"/>
<path d="M14 20.7197V22.6797" stroke="white" stroke-width="0.896"/>
<path d="M16.2383 22.6797H11.7583" stroke="white" stroke-width="0.896"/>
</svg>
