<svg width="140" height="140" viewBox="0 0 140 140" fill="none" xmlns="http://www.w3.org/2000/svg">
    <path fill-rule="evenodd" clip-rule="evenodd" d="M40.9537 17.2229C41.1632 15.4805 42.8519 14.1572 44.8659 14.1572H93.716C95.7091 14.1572 97.3873 15.4541 97.622 17.1758L111.931 122.105C112.209 124.14 110.381 125.93 108.025 125.93H94.7179C94.0088 125.93 93.3475 125.572 92.9587 124.979L87.7903 117.096C87.557 116.74 87.1222 116.52 86.6513 116.52H54.4876C54.0528 116.52 53.6462 116.708 53.4022 117.021L47.093 125.119C46.6944 125.63 46.0821 125.93 45.4336 125.93H32.2493C29.9151 125.93 28.0944 124.172 28.3372 122.152L40.9537 17.2229ZM89.1796 22.141H50.8282V30.1247C50.8282 33.2742 53.7634 35.8274 57.384 35.8274H82.6238C86.2444 35.8274 89.1796 33.2742 89.1796 30.1247V22.141Z" fill="#EDF0F4"/>
    <path d="M90.8812 88.3009C89.8343 88.3009 89.1313 88.6418 88.7722 89.3235C88.5713 89.707 88.4709 90.2974 88.4709 91.0947V95.3256C88.4709 95.6161 88.2355 95.8515 87.945 95.8515H86.3765C86.086 95.8515 85.8506 95.6161 85.8506 95.3256V86.4256C85.8506 86.1352 86.086 85.8997 86.3765 85.8997H87.8081C88.0985 85.8997 88.334 86.1352 88.334 86.4256V87.6344C88.7357 86.971 89.0857 86.5175 89.3839 86.2741C89.8709 85.8663 90.5039 85.6624 91.283 85.6624C91.321 85.6624 91.3535 85.6642 91.3804 85.6679C91.3946 85.6699 91.3987 85.6714 91.4131 85.6716C91.529 85.6731 91.6299 85.7715 91.6299 85.8875V87.9068C91.6299 88.1414 91.426 88.3212 91.1917 88.3101C91.0638 88.304 90.9604 88.3009 90.8812 88.3009Z" fill="#8B909C"/>
    <path d="M82.7469 87.1584C83.5868 88.2114 84.0068 89.4561 84.0068 90.8926C84.0068 92.3534 83.5868 93.6042 82.7469 94.645C81.9069 95.6797 80.6317 96.1971 78.9214 96.1971C77.211 96.1971 75.9359 95.6797 75.0959 94.645C74.2559 93.6042 73.8359 92.3534 73.8359 90.8926C73.8359 89.4561 74.2559 88.2114 75.0959 87.1584C75.9359 86.1054 77.211 85.5789 78.9214 85.5789C80.6317 85.5789 81.9069 86.1054 82.7469 87.1584ZM78.9123 87.7792C78.1514 87.7792 77.564 88.0501 77.1501 88.5918C76.7423 89.1274 76.5384 89.8943 76.5384 90.8926C76.5384 91.8908 76.7423 92.6607 77.1501 93.2025C77.564 93.7442 78.1514 94.015 78.9123 94.015C79.6731 94.015 80.2574 93.7442 80.6652 93.2025C81.073 92.6607 81.2769 91.8908 81.2769 90.8926C81.2769 89.8943 81.073 89.1274 80.6652 88.5918C80.2574 88.0501 79.6731 87.7792 78.9123 87.7792Z" fill="#8B909C"/>
    <path d="M72.1645 88.3009C71.1175 88.3009 70.4145 88.6418 70.0554 89.3235C69.8545 89.707 69.7541 90.2974 69.7541 91.0947V95.3256C69.7541 95.6161 69.5187 95.8515 69.2282 95.8515H67.6597C67.3692 95.8515 67.1338 95.6161 67.1338 95.3256V86.4256C67.1338 86.1352 67.3692 85.8997 67.6597 85.8997H69.0913C69.3817 85.8997 69.6172 86.1352 69.6172 86.4256V87.6344C70.0189 86.971 70.3689 86.5175 70.6671 86.2741C71.1541 85.8663 71.7871 85.6624 72.5662 85.6624C72.6042 85.6624 72.6367 85.6642 72.6636 85.6679C72.6778 85.6699 72.6819 85.6714 72.6963 85.6716C72.8122 85.6731 72.9131 85.7715 72.9131 85.8875V87.9068C72.9131 88.1414 72.7092 88.3212 72.4749 88.3101C72.3471 88.304 72.2436 88.3009 72.1645 88.3009Z" fill="#8B909C"/>
    <path d="M64.8793 88.3009C63.8324 88.3009 63.1294 88.6418 62.7703 89.3235C62.5694 89.707 62.469 90.2974 62.469 91.0947V95.3256C62.469 95.6161 62.2335 95.8515 61.9431 95.8515H60.3745C60.0841 95.8515 59.8486 95.6161 59.8486 95.3256V86.4256C59.8486 86.1352 60.0841 85.8997 60.3745 85.8997H61.8061C62.0966 85.8997 62.332 86.1352 62.332 86.4256V87.6344C62.7337 86.971 63.0837 86.5175 63.382 86.2741C63.8689 85.8663 64.5019 85.6624 65.281 85.6624C65.3191 85.6624 65.3515 85.6642 65.3784 85.6679C65.3926 85.6699 65.3968 85.6714 65.4111 85.6716C65.5271 85.6731 65.628 85.7715 65.628 85.8875V87.9068C65.628 88.1414 65.4241 88.3212 65.1897 88.3101C65.0619 88.304 64.9584 88.3009 64.8793 88.3009Z" fill="#8B909C"/>
    <path d="M57.3973 92.9287C57.7112 92.9287 57.9567 93.2052 57.8476 93.4995C57.6973 93.9046 57.4361 94.3138 57.064 94.7273C56.2119 95.6951 55.0189 96.179 53.485 96.179C52.219 96.179 51.1021 95.7712 50.1343 94.9556C49.1665 94.14 48.6826 92.8131 48.6826 90.9749C48.6826 89.2523 49.1178 87.9315 49.9882 87.0124C50.8647 86.0933 51.9999 85.6338 53.3937 85.6338C54.2215 85.6338 54.9671 85.789 55.6306 86.0994C56.294 86.4098 56.8418 86.8998 57.274 87.5694C57.6636 88.1598 57.9161 88.8445 58.0318 89.6236C58.0846 89.9834 58.1128 90.4679 58.1164 91.0772C58.1181 91.3647 57.883 91.5957 57.5955 91.5957H51.3029C51.3395 92.5939 51.6529 93.2939 52.2433 93.6956C52.6025 93.9452 53.0346 94.07 53.5398 94.07C54.0754 94.07 54.5106 93.9178 54.8454 93.6135C54.9624 93.5082 55.0706 93.3767 55.1701 93.2189C55.2781 93.0477 55.4581 92.9287 55.6604 92.9287H57.3973ZM55.4115 89.8793C55.3689 89.1915 55.1589 88.6711 54.7815 88.318C54.4102 87.9589 53.9476 87.7794 53.3937 87.7794C52.7911 87.7794 52.3225 87.968 51.9877 88.3454C51.659 88.7228 51.4521 89.2341 51.3669 89.8793H55.4115Z" fill="#8B909C"/>
    <path d="M68.4736 47.3198C68.8784 46.6186 69.8904 46.6186 70.2952 47.3198L86.9254 76.124C87.3302 76.8252 86.8242 77.7016 86.0145 77.7016H52.7543C51.9447 77.7016 51.4386 76.8252 51.8435 76.124L68.4736 47.3198Z" fill="#CED2DA"/>
    <path d="M70.7289 70.0243C71.0193 70.0243 71.2548 70.2598 71.2548 70.5502V72.7509C71.2548 73.0414 71.0193 73.2768 70.7289 73.2768H67.8472C67.5567 73.2768 67.3213 73.0414 67.3213 72.7509V70.5502C67.3213 70.2598 67.5567 70.0243 67.8472 70.0243H70.7289ZM70.2177 68.3089C70.179 68.5663 69.9579 68.7567 69.6976 68.7567H68.8276C68.5666 68.7567 68.3451 68.5653 68.3073 68.3071L67.4259 62.2897C67.4222 62.2645 67.4204 62.239 67.4204 62.2135V58.7244C67.4204 58.4339 67.6558 58.1985 67.9462 58.1985H70.6007C70.8911 58.1985 71.1266 58.4339 71.1266 58.7244V62.2126C71.1266 62.2387 71.1246 62.2648 71.1207 62.2906L70.2177 68.3089Z" fill="#8B909C"/>
</svg>
