<svg width="58" height="50" viewBox="0 0 58 50" fill="none" xmlns="http://www.w3.org/2000/svg">
<g clip-path="url(#clip0_1319_24819)">
<path d="M28.7734 31.2207C30.0195 31.2207 31.0391 30.3594 31.0391 29.3066V15.9082C31.0391 14.8555 30.0195 13.9941 28.7734 13.9941C27.5273 13.9941 26.5078 14.8555 26.5078 15.9082V29.3066C26.5078 30.3594 27.5273 31.2207 28.7734 31.2207Z" fill="#A9AFBB"/>
<path d="M28.7738 40.724C30.5819 40.724 32.0477 39.4857 32.0477 37.9582C32.0477 36.4307 30.5819 35.1924 28.7738 35.1924C26.9657 35.1924 25.5 36.4307 25.5 37.9582C25.5 39.4857 26.9657 40.724 28.7738 40.724Z" fill="#A9AFBB"/>
<path d="M57.3204 40.9059L34.0411 3.89751C32.9083 2.08872 30.8692 1.01685 28.581 1.01685H28.5243C26.2247 1.03599 24.1857 2.13657 23.0755 3.97407L0.827059 40.9442C-0.294426 42.8104 -0.192473 45.0786 1.09893 46.8586C2.26573 48.4665 4.2255 49.4426 6.34386 49.4426L51.8829 49.5H51.8942C54.0353 49.5 55.995 48.5143 57.1505 46.8874C58.4306 45.0786 58.4985 42.7817 57.3204 40.9059ZM53.2649 44.9159C53.0724 45.1934 52.6306 45.6719 51.8942 45.6719L6.35518 45.6145C5.61886 45.6145 5.17706 45.1456 4.97315 44.868C4.59932 44.3512 4.38409 43.509 4.8712 42.686L27.131 5.69673C27.4595 5.15122 27.9919 4.80669 28.581 4.80669H28.5923C29.1814 4.80669 29.7138 5.13208 30.0536 5.67759L53.3216 42.7051C53.8427 43.5282 53.6274 44.3991 53.2649 44.9159Z" fill="#A9AFBB"/>
</g>
<defs>
<clipPath id="clip0_1319_24819">
<rect width="58" height="49" fill="white" transform="translate(0 0.5)"/>
</clipPath>
</defs>
</svg>
